G04 #@! TF.GenerationSoftware,KiCad,Pcbnew,10.0.3*
G04 #@! TF.CreationDate,2026-06-22T12:30:59+02:00*
G04 #@! TF.ProjectId,vocore2-breakout,766f636f-7265-4322-9d62-7265616b6f75,rev?*
G04 #@! TF.SameCoordinates,Original*
G04 #@! TF.FileFunction,Copper,L2,Bot*
G04 #@! TF.FilePolarity,Positive*
%FSLAX46Y46*%
G04 Gerber Fmt 4.6, Leading zero omitted, Abs format (unit mm)*
G04 Created by KiCad (PCBNEW 10.0.3) date 2026-06-22 12:30:59*
%MOMM*%
%LPD*%
G01*
G04 APERTURE LIST*
G04 #@! TA.AperFunction,ComponentPad*
%ADD10R,1.700000X1.700000*%
G04 #@! TD*
G04 #@! TA.AperFunction,ComponentPad*
%ADD11C,1.700000*%
G04 #@! TD*
G04 #@! TA.AperFunction,ComponentPad*
%ADD12C,5.600000*%
G04 #@! TD*
G04 #@! TA.AperFunction,ComponentPad*
%ADD13R,1.000000X1.000000*%
G04 #@! TD*
G04 #@! TA.AperFunction,ComponentPad*
%ADD14C,1.000000*%
G04 #@! TD*
G04 #@! TA.AperFunction,ViaPad*
%ADD15C,0.600000*%
G04 #@! TD*
G04 #@! TA.AperFunction,Conductor*
%ADD16C,0.500000*%
G04 #@! TD*
G04 APERTURE END LIST*
D10*
X170460000Y-81295000D03*
D11*
X173000000Y-81295000D03*
X170460000Y-83835000D03*
X173000000Y-83835000D03*
X170460000Y-86375000D03*
X173000000Y-86375000D03*
X170460000Y-88915000D03*
X173000000Y-88915000D03*
X170460000Y-91455000D03*
X173000000Y-91455000D03*
D10*
X123500000Y-68000000D03*
D11*
X123500000Y-70540000D03*
X123500000Y-73080000D03*
X123500000Y-75620000D03*
X123500000Y-78160000D03*
X123500000Y-80700000D03*
X123500000Y-83240000D03*
X123500000Y-85780000D03*
X123500000Y-88320000D03*
X123500000Y-90860000D03*
X123500000Y-93400000D03*
X123500000Y-95940000D03*
X123500000Y-98480000D03*
X123500000Y-101020000D03*
X123500000Y-103560000D03*
X123500000Y-106100000D03*
X155900000Y-68000000D03*
X153360000Y-68000000D03*
X150820000Y-68000000D03*
X148280000Y-68000000D03*
X145740000Y-68000000D03*
X143200000Y-68000000D03*
X140660000Y-68000000D03*
X138120000Y-68000000D03*
X135580000Y-68000000D03*
X133040000Y-68000000D03*
X130500000Y-68000000D03*
D10*
X127960000Y-68000000D03*
D12*
X176000000Y-112500000D03*
X119500000Y-112500000D03*
X176000000Y-62500000D03*
X119500000Y-62500000D03*
D11*
X160500000Y-103560000D03*
X160500000Y-101020000D03*
X160500000Y-98480000D03*
X160500000Y-95940000D03*
X160500000Y-93400000D03*
X160500000Y-90860000D03*
X160500000Y-88320000D03*
X160500000Y-85780000D03*
X160500000Y-83240000D03*
X160500000Y-80700000D03*
X160500000Y-78160000D03*
X160500000Y-75620000D03*
X160500000Y-73080000D03*
X160500000Y-70540000D03*
D10*
X160500000Y-68000000D03*
D11*
X170500000Y-74540000D03*
X170500000Y-72000000D03*
D10*
X170500000Y-69460000D03*
X127480000Y-108000000D03*
D11*
X130020000Y-108000000D03*
X132560000Y-108000000D03*
X135100000Y-108000000D03*
X137640000Y-108000000D03*
X140180000Y-108000000D03*
X142720000Y-108000000D03*
X145260000Y-108000000D03*
X147800000Y-108000000D03*
X150340000Y-108000000D03*
X152880000Y-108000000D03*
X155420000Y-108000000D03*
X157960000Y-108000000D03*
X160500000Y-108000000D03*
D13*
X173000000Y-104540000D03*
D14*
X171730000Y-104540000D03*
X173000000Y-103270000D03*
X171730000Y-103270000D03*
X173000000Y-102000000D03*
X171730000Y-102000000D03*
X173000000Y-100730000D03*
X171730000Y-100730000D03*
X173000000Y-99460000D03*
X171730000Y-99460000D03*
D15*
X168000000Y-86375000D03*
X171000000Y-97500000D03*
X175500000Y-77500000D03*
X175000000Y-98000000D03*
X175000000Y-99000000D03*
X175000000Y-100000000D03*
X175000000Y-101000000D03*
X120000000Y-84500000D03*
X118500000Y-84500000D03*
X120000000Y-87000000D03*
X118500000Y-87000000D03*
X165500000Y-69000000D03*
X165500000Y-71000000D03*
X166500000Y-107500000D03*
X164500000Y-107500000D03*
X166500000Y-105500000D03*
X164500000Y-105500000D03*
X175500000Y-76000000D03*
X174000000Y-76000000D03*
X167500000Y-69000000D03*
X167500000Y-71000000D03*
X164500000Y-77000000D03*
X166500000Y-77000000D03*
X166500000Y-74500000D03*
X164500000Y-74500000D03*
X130000000Y-72500000D03*
X128500000Y-71000000D03*
X128000000Y-104500000D03*
X128000000Y-103000000D03*
X129500000Y-103000000D03*
X129500000Y-104500000D03*
X156000000Y-103000000D03*
X156000000Y-104500000D03*
X157500000Y-104500000D03*
X157500000Y-103000000D03*
X169500000Y-97500000D03*
X167000000Y-91455000D03*
X167690000Y-97500000D03*
X166000000Y-87500000D03*
X165000000Y-82660000D03*
X166250000Y-97750000D03*
X165000000Y-98000000D03*
X163750000Y-78250000D03*
D16*
X173000000Y-99460000D02*
X173000000Y-97500000D01*
X173000000Y-97500000D02*
X168000000Y-92500000D01*
X168000000Y-92500000D02*
X168000000Y-86375000D01*
X174730000Y-103270000D02*
X175000000Y-103000000D01*
X173000000Y-103270000D02*
X174730000Y-103270000D01*
X173000000Y-102000000D02*
X174500000Y-102000000D01*
X160500000Y-68000000D02*
X160500000Y-65500000D01*
X160500000Y-68000000D02*
X163500000Y-68000000D01*
X169500000Y-97500000D02*
X169469669Y-97469669D01*
X169469669Y-97469669D02*
X169469669Y-96969669D01*
X169469669Y-96969669D02*
X167000000Y-94500000D01*
X167000000Y-94500000D02*
X167000000Y-91455000D01*
X166250000Y-97750000D02*
X165000000Y-96500000D01*
X165000000Y-96500000D02*
X165000000Y-82660000D01*
X167690000Y-97500000D02*
X167690000Y-96690000D01*
X167690000Y-96690000D02*
X166000000Y-95000000D01*
X166000000Y-95000000D02*
X166000000Y-87500000D01*
X165000000Y-98000000D02*
X163750000Y-96750000D01*
X163750000Y-96750000D02*
X163750000Y-78250000D01*
X171730000Y-99460000D02*
X164460000Y-99460000D01*
X164460000Y-99460000D02*
X162500000Y-97500000D01*
X162500000Y-97500000D02*
X162500000Y-90320000D01*
X162500000Y-90320000D02*
X160500000Y-88320000D01*
X160500000Y-95940000D02*
X156390000Y-100050000D01*
X156390000Y-100050000D02*
X146950000Y-100050000D01*
X146950000Y-100050000D02*
X145260000Y-101740000D01*
X145260000Y-101740000D02*
X145260000Y-108000000D01*
X145260000Y-108000000D02*
X145260000Y-101760000D01*
X145260000Y-101760000D02*
X142950000Y-99450000D01*
X142950000Y-99450000D02*
X129989340Y-99450000D01*
X129500000Y-74000000D02*
X123500000Y-68000000D01*
X129989340Y-99450000D02*
X129500000Y-98960660D01*
X129500000Y-98960660D02*
X129500000Y-74000000D01*
G04 #@! TA.AperFunction,Conductor*
G36*
X167955703Y-93517517D02*
G01*
X167962181Y-93523549D01*
X172213181Y-97774549D01*
X172246666Y-97835872D01*
X172249500Y-97862230D01*
X172249500Y-98406671D01*
X172229815Y-98473710D01*
X172177011Y-98519465D01*
X172107853Y-98529409D01*
X172078049Y-98521233D01*
X172043237Y-98506814D01*
X172021835Y-98497949D01*
X172021833Y-98497948D01*
X172021829Y-98497947D01*
X171828543Y-98459500D01*
X171828541Y-98459500D01*
X171631459Y-98459500D01*
X171631457Y-98459500D01*
X171438170Y-98497947D01*
X171438160Y-98497950D01*
X171256092Y-98573364D01*
X171256079Y-98573371D01*
X171087153Y-98686245D01*
X171086132Y-98684717D01*
X171029745Y-98708666D01*
X171015390Y-98709500D01*
X166648760Y-98709500D01*
X166581721Y-98689815D01*
X166535966Y-98637011D01*
X166526022Y-98567853D01*
X166555047Y-98504297D01*
X166601308Y-98470939D01*
X166629172Y-98459397D01*
X166629172Y-98459396D01*
X166629179Y-98459394D01*
X166760289Y-98371789D01*
X166871789Y-98260289D01*
X166959394Y-98129179D01*
X166959400Y-98129162D01*
X166959885Y-98128258D01*
X166960276Y-98127859D01*
X166962779Y-98124114D01*
X166963488Y-98124588D01*
X167008840Y-98078406D01*
X167076975Y-98062935D01*
X167142659Y-98086756D01*
X167156934Y-98099013D01*
X167179707Y-98121786D01*
X167179711Y-98121789D01*
X167310814Y-98209390D01*
X167310827Y-98209397D01*
X167456498Y-98269735D01*
X167456503Y-98269737D01*
X167543325Y-98287007D01*
X167611153Y-98300499D01*
X167611156Y-98300500D01*
X167611158Y-98300500D01*
X167768844Y-98300500D01*
X167768845Y-98300499D01*
X167923497Y-98269737D01*
X168069179Y-98209394D01*
X168200289Y-98121789D01*
X168311789Y-98010289D01*
X168399394Y-97879179D01*
X168406415Y-97862230D01*
X168443712Y-97772184D01*
X168459737Y-97733497D01*
X168467311Y-97695419D01*
X168473383Y-97664897D01*
X168505768Y-97602986D01*
X168566484Y-97568412D01*
X168636253Y-97572151D01*
X168692925Y-97613018D01*
X168716617Y-97664897D01*
X168730261Y-97733489D01*
X168730264Y-97733501D01*
X168790602Y-97879172D01*
X168790609Y-97879185D01*
X168878210Y-98010288D01*
X168878213Y-98010292D01*
X168989707Y-98121786D01*
X168989711Y-98121789D01*
X169120814Y-98209390D01*
X169120827Y-98209397D01*
X169266498Y-98269735D01*
X169266503Y-98269737D01*
X169353325Y-98287007D01*
X169421153Y-98300499D01*
X169421156Y-98300500D01*
X169421158Y-98300500D01*
X169578844Y-98300500D01*
X169578845Y-98300499D01*
X169733497Y-98269737D01*
X169879179Y-98209394D01*
X170010289Y-98121789D01*
X170121789Y-98010289D01*
X170209394Y-97879179D01*
X170216415Y-97862230D01*
X170253712Y-97772184D01*
X170269737Y-97733497D01*
X170300500Y-97578842D01*
X170300500Y-97421158D01*
X170300500Y-97421155D01*
X170300499Y-97421153D01*
X170269739Y-97266511D01*
X170269736Y-97266501D01*
X170258639Y-97239711D01*
X170229608Y-97169622D01*
X170220169Y-97122170D01*
X170220169Y-96895748D01*
X170191328Y-96750761D01*
X170191327Y-96750760D01*
X170191327Y-96750756D01*
X170148688Y-96647816D01*
X170134756Y-96614180D01*
X170134749Y-96614167D01*
X170052621Y-96491254D01*
X170019779Y-96458412D01*
X169948085Y-96386718D01*
X167786819Y-94225451D01*
X167753334Y-94164128D01*
X167750500Y-94137770D01*
X167750500Y-93611230D01*
X167770185Y-93544191D01*
X167822989Y-93498436D01*
X167892147Y-93488492D01*
X167955703Y-93517517D01*
G37*
G04 #@! TD.AperFunction*
G04 #@! TA.AperFunction,Conductor*
G36*
X161718635Y-96817164D02*
G01*
X161748110Y-96880512D01*
X161749500Y-96899029D01*
X161749500Y-97573920D01*
X161750097Y-97579983D01*
X161747996Y-97580189D01*
X161742621Y-97640243D01*
X161699757Y-97695419D01*
X161633866Y-97718662D01*
X161617503Y-97718458D01*
X161615269Y-97718282D01*
X160982962Y-98350590D01*
X160965925Y-98287007D01*
X160900099Y-98172993D01*
X160807007Y-98079901D01*
X160692993Y-98014075D01*
X160629408Y-97997037D01*
X161261716Y-97364728D01*
X161207547Y-97325373D01*
X161207547Y-97325372D01*
X161198500Y-97320763D01*
X161147706Y-97272788D01*
X161130912Y-97204966D01*
X161153451Y-97138832D01*
X161198508Y-97099793D01*
X161207816Y-97095051D01*
X161302516Y-97026248D01*
X161379786Y-96970109D01*
X161379788Y-96970106D01*
X161379792Y-96970104D01*
X161530104Y-96819792D01*
X161530107Y-96819787D01*
X161531214Y-96818493D01*
X161531758Y-96818137D01*
X161533549Y-96816347D01*
X161533925Y-96816723D01*
X161589723Y-96780302D01*
X161659591Y-96779807D01*
X161718635Y-96817164D01*
G37*
G04 #@! TD.AperFunction*
G04 #@! TA.AperFunction,Conductor*
G36*
X176020896Y-59519684D02*
G01*
X176041695Y-59536475D01*
X178945678Y-62450852D01*
X178979053Y-62512234D01*
X178981837Y-62539263D01*
X178623487Y-112641393D01*
X178603323Y-112708290D01*
X178587015Y-112728344D01*
X176029278Y-115276964D01*
X175967895Y-115310339D01*
X175942171Y-115313125D01*
X119554989Y-115503208D01*
X119487884Y-115483750D01*
X119466890Y-115466890D01*
X116536319Y-112536319D01*
X116502834Y-112474996D01*
X116500000Y-112448638D01*
X116500000Y-67102135D01*
X122149500Y-67102135D01*
X122149500Y-68897870D01*
X122149501Y-68897876D01*
X122155908Y-68957483D01*
X122206202Y-69092328D01*
X122206206Y-69092335D01*
X122292452Y-69207544D01*
X122292455Y-69207547D01*
X122407664Y-69293793D01*
X122407671Y-69293797D01*
X122539082Y-69342810D01*
X122595016Y-69384681D01*
X122619433Y-69450145D01*
X122604582Y-69518418D01*
X122583431Y-69546673D01*
X122469889Y-69660215D01*
X122344951Y-69832179D01*
X122248444Y-70021585D01*
X122182753Y-70223760D01*
X122161513Y-70357864D01*
X122149500Y-70433713D01*
X122149500Y-70646287D01*
X122159534Y-70709644D01*
X122182753Y-70856239D01*
X122182753Y-70856241D01*
X122182754Y-70856243D01*
X122222451Y-70978418D01*
X122248444Y-71058414D01*
X122344951Y-71247820D01*
X122469890Y-71419786D01*
X122620213Y-71570109D01*
X122792182Y-71695050D01*
X122800946Y-71699516D01*
X122851742Y-71747491D01*
X122868536Y-71815312D01*
X122845998Y-71881447D01*
X122800946Y-71920484D01*
X122792182Y-71924949D01*
X122620213Y-72049890D01*
X122469890Y-72200213D01*
X122344951Y-72372179D01*
X122248444Y-72561585D01*
X122182753Y-72763760D01*
X122149500Y-72973713D01*
X122149500Y-73186287D01*
X122159534Y-73249644D01*
X122180965Y-73384951D01*
X122182754Y-73396243D01*
X122223480Y-73521585D01*
X122248444Y-73598414D01*
X122344951Y-73787820D01*
X122469890Y-73959786D01*
X122620213Y-74110109D01*
X122792182Y-74235050D01*
X122800946Y-74239516D01*
X122851742Y-74287491D01*
X122868536Y-74355312D01*
X122845998Y-74421447D01*
X122800946Y-74460484D01*
X122792182Y-74464949D01*
X122620213Y-74589890D01*
X122469890Y-74740213D01*
X122344951Y-74912179D01*
X122248444Y-75101585D01*
X122182753Y-75303760D01*
X122149500Y-75513713D01*
X122149500Y-75726286D01*
X122182753Y-75936239D01*
X122248444Y-76138414D01*
X122344951Y-76327820D01*
X122469890Y-76499786D01*
X122620213Y-76650109D01*
X122792182Y-76775050D01*
X122800946Y-76779516D01*
X122851742Y-76827491D01*
X122868536Y-76895312D01*
X122845998Y-76961447D01*
X122800946Y-77000484D01*
X122792182Y-77004949D01*
X122620213Y-77129890D01*
X122469890Y-77280213D01*
X122344951Y-77452179D01*
X122248444Y-77641585D01*
X122182753Y-77843760D01*
X122155392Y-78016510D01*
X122149500Y-78053713D01*
X122149500Y-78266287D01*
X122182754Y-78476243D01*
X122185108Y-78483489D01*
X122248444Y-78678414D01*
X122344951Y-78867820D01*
X122469890Y-79039786D01*
X122620213Y-79190109D01*
X122792182Y-79315050D01*
X122800946Y-79319516D01*
X122851742Y-79367491D01*
X122868536Y-79435312D01*
X122845998Y-79501447D01*
X122800946Y-79540484D01*
X122792182Y-79544949D01*
X122620213Y-79669890D01*
X122469890Y-79820213D01*
X122344951Y-79992179D01*
X122248444Y-80181585D01*
X122182753Y-80383760D01*
X122149500Y-80593713D01*
X122149500Y-80806286D01*
X122176816Y-80978757D01*
X122182754Y-81016243D01*
X122238793Y-81188713D01*
X122248444Y-81218414D01*
X122344951Y-81407820D01*
X122469890Y-81579786D01*
X122620213Y-81730109D01*
X122792182Y-81855050D01*
X122800946Y-81859516D01*
X122851742Y-81907491D01*
X122868536Y-81975312D01*
X122845998Y-82041447D01*
X122800946Y-82080484D01*
X122792182Y-82084949D01*
X122620213Y-82209890D01*
X122469890Y-82360213D01*
X122344951Y-82532179D01*
X122248444Y-82721585D01*
X122182753Y-82923760D01*
X122149500Y-83133713D01*
X122149500Y-83346286D01*
X122176816Y-83518757D01*
X122182754Y-83556243D01*
X122238793Y-83728713D01*
X122248444Y-83758414D01*
X122344951Y-83947820D01*
X122469890Y-84119786D01*
X122620213Y-84270109D01*
X122792182Y-84395050D01*
X122800946Y-84399516D01*
X122851742Y-84447491D01*
X122868536Y-84515312D01*
X122845998Y-84581447D01*
X122800946Y-84620484D01*
X122792182Y-84624949D01*
X122620213Y-84749890D01*
X122469890Y-84900213D01*
X122344951Y-85072179D01*
X122248444Y-85261585D01*
X122182753Y-85463760D01*
X122149500Y-85673713D01*
X122149500Y-85886286D01*
X122176816Y-86058757D01*
X122182754Y-86096243D01*
X122238793Y-86268713D01*
X122248444Y-86298414D01*
X122344951Y-86487820D01*
X122469890Y-86659786D01*
X122620213Y-86810109D01*
X122792182Y-86935050D01*
X122800946Y-86939516D01*
X122851742Y-86987491D01*
X122868536Y-87055312D01*
X122845998Y-87121447D01*
X122800946Y-87160484D01*
X122792182Y-87164949D01*
X122620213Y-87289890D01*
X122469890Y-87440213D01*
X122344951Y-87612179D01*
X122248444Y-87801585D01*
X122182753Y-88003760D01*
X122149500Y-88213713D01*
X122149500Y-88426286D01*
X122176816Y-88598757D01*
X122182754Y-88636243D01*
X122238793Y-88808713D01*
X122248444Y-88838414D01*
X122344951Y-89027820D01*
X122469890Y-89199786D01*
X122620213Y-89350109D01*
X122792182Y-89475050D01*
X122800946Y-89479516D01*
X122851742Y-89527491D01*
X122868536Y-89595312D01*
X122845998Y-89661447D01*
X122800946Y-89700484D01*
X122792182Y-89704949D01*
X122620213Y-89829890D01*
X122469890Y-89980213D01*
X122344951Y-90152179D01*
X122248444Y-90341585D01*
X122182753Y-90543760D01*
X122149500Y-90753713D01*
X122149500Y-90966286D01*
X122176816Y-91138757D01*
X122182754Y-91176243D01*
X122238793Y-91348713D01*
X122248444Y-91378414D01*
X122344951Y-91567820D01*
X122469890Y-91739786D01*
X122620213Y-91890109D01*
X122792182Y-92015050D01*
X122800946Y-92019516D01*
X122851742Y-92067491D01*
X122868536Y-92135312D01*
X122845998Y-92201447D01*
X122800946Y-92240484D01*
X122792182Y-92244949D01*
X122620213Y-92369890D01*
X122469890Y-92520213D01*
X122344951Y-92692179D01*
X122248444Y-92881585D01*
X122182753Y-93083760D01*
X122149500Y-93293713D01*
X122149500Y-93506287D01*
X122159534Y-93569644D01*
X122182753Y-93716239D01*
X122248444Y-93918414D01*
X122344951Y-94107820D01*
X122469890Y-94279786D01*
X122620213Y-94430109D01*
X122792182Y-94555050D01*
X122800946Y-94559516D01*
X122851742Y-94607491D01*
X122868536Y-94675312D01*
X122845998Y-94741447D01*
X122800946Y-94780484D01*
X122792182Y-94784949D01*
X122620213Y-94909890D01*
X122469890Y-95060213D01*
X122344951Y-95232179D01*
X122248444Y-95421585D01*
X122182753Y-95623760D01*
X122149500Y-95833713D01*
X122149500Y-96046286D01*
X122172124Y-96189132D01*
X122182754Y-96256243D01*
X122225148Y-96386719D01*
X122248444Y-96458414D01*
X122344951Y-96647820D01*
X122469890Y-96819786D01*
X122620213Y-96970109D01*
X122792182Y-97095050D01*
X122800946Y-97099516D01*
X122851742Y-97147491D01*
X122868536Y-97215312D01*
X122845998Y-97281447D01*
X122800946Y-97320484D01*
X122792182Y-97324949D01*
X122620213Y-97449890D01*
X122469890Y-97600213D01*
X122344951Y-97772179D01*
X122248444Y-97961585D01*
X122182753Y-98163760D01*
X122149500Y-98373713D01*
X122149500Y-98586286D01*
X122182735Y-98796127D01*
X122182754Y-98796243D01*
X122189217Y-98816135D01*
X122248444Y-98998414D01*
X122344951Y-99187820D01*
X122469890Y-99359786D01*
X122620213Y-99510109D01*
X122792182Y-99635050D01*
X122800946Y-99639516D01*
X122851742Y-99687491D01*
X122868536Y-99755312D01*
X122845998Y-99821447D01*
X122800946Y-99860484D01*
X122792182Y-99864949D01*
X122620213Y-99989890D01*
X122620209Y-99989894D01*
X122469896Y-100140208D01*
X122469890Y-100140213D01*
X122344951Y-100312179D01*
X122248444Y-100501585D01*
X122182753Y-100703760D01*
X122149500Y-100913713D01*
X122149500Y-101126286D01*
X122182735Y-101336127D01*
X122182754Y-101336243D01*
X122244514Y-101526321D01*
X122248444Y-101538414D01*
X122344951Y-101727820D01*
X122469890Y-101899786D01*
X122620213Y-102050109D01*
X122792182Y-102175050D01*
X122800946Y-102179516D01*
X122851742Y-102227491D01*
X122868536Y-102295312D01*
X122845998Y-102361447D01*
X122800946Y-102400484D01*
X122792182Y-102404949D01*
X122620213Y-102529890D01*
X122469890Y-102680213D01*
X122344951Y-102852179D01*
X122248444Y-103041585D01*
X122182753Y-103243760D01*
X122149500Y-103453713D01*
X122149500Y-103666286D01*
X122176397Y-103836110D01*
X122182754Y-103876243D01*
X122220407Y-103992128D01*
X122248444Y-104078414D01*
X122344951Y-104267820D01*
X122469890Y-104439786D01*
X122620213Y-104590109D01*
X122792182Y-104715050D01*
X122800946Y-104719516D01*
X122851742Y-104767491D01*
X122868536Y-104835312D01*
X122845998Y-104901447D01*
X122800946Y-104940484D01*
X122792182Y-104944949D01*
X122620213Y-105069890D01*
X122469890Y-105220213D01*
X122344951Y-105392179D01*
X122248444Y-105581585D01*
X122182753Y-105783760D01*
X122149500Y-105993713D01*
X122149500Y-106206286D01*
X122182753Y-106416239D01*
X122248444Y-106618414D01*
X122344951Y-106807820D01*
X122469890Y-106979786D01*
X122620213Y-107130109D01*
X122792179Y-107255048D01*
X122792181Y-107255049D01*
X122792184Y-107255051D01*
X122981588Y-107351557D01*
X123183757Y-107417246D01*
X123393713Y-107450500D01*
X123393714Y-107450500D01*
X123606286Y-107450500D01*
X123606287Y-107450500D01*
X123816243Y-107417246D01*
X124018412Y-107351557D01*
X124207816Y-107255051D01*
X124230897Y-107238282D01*
X124379786Y-107130109D01*
X124379788Y-107130106D01*
X124379792Y-107130104D01*
X124530104Y-106979792D01*
X124530106Y-106979788D01*
X124530109Y-106979786D01*
X124655048Y-106807820D01*
X124655047Y-106807820D01*
X124655051Y-106807816D01*
X124751557Y-106618412D01*
X124817246Y-106416243D01*
X124850500Y-106206287D01*
X124850500Y-105993713D01*
X124817246Y-105783757D01*
X124751557Y-105581588D01*
X124655051Y-105392184D01*
X124655049Y-105392181D01*
X124655048Y-105392179D01*
X124530109Y-105220213D01*
X124379786Y-105069890D01*
X124207820Y-104944951D01*
X124207115Y-104944591D01*
X124199054Y-104940485D01*
X124148259Y-104892512D01*
X124131463Y-104824692D01*
X124153999Y-104758556D01*
X124199054Y-104719515D01*
X124207816Y-104715051D01*
X124313124Y-104638541D01*
X124379786Y-104590109D01*
X124379788Y-104590106D01*
X124379792Y-104590104D01*
X124530104Y-104439792D01*
X124530106Y-104439788D01*
X124530109Y-104439786D01*
X124655048Y-104267820D01*
X124655047Y-104267820D01*
X124655051Y-104267816D01*
X124751557Y-104078412D01*
X124817246Y-103876243D01*
X124850500Y-103666287D01*
X124850500Y-103453713D01*
X124817246Y-103243757D01*
X124751557Y-103041588D01*
X124655051Y-102852184D01*
X124655049Y-102852181D01*
X124655048Y-102852179D01*
X124530109Y-102680213D01*
X124379786Y-102529890D01*
X124207820Y-102404951D01*
X124204495Y-102403257D01*
X124199054Y-102400485D01*
X124148259Y-102352512D01*
X124131463Y-102284692D01*
X124153999Y-102218556D01*
X124199054Y-102179515D01*
X124207816Y-102175051D01*
X124262572Y-102135269D01*
X124379786Y-102050109D01*
X124379788Y-102050106D01*
X124379792Y-102050104D01*
X124530104Y-101899792D01*
X124530106Y-101899788D01*
X124530109Y-101899786D01*
X124655048Y-101727820D01*
X124655047Y-101727820D01*
X124655051Y-101727816D01*
X124751557Y-101538412D01*
X124817246Y-101336243D01*
X124850500Y-101126287D01*
X124850500Y-100913713D01*
X124817246Y-100703757D01*
X124751557Y-100501588D01*
X124655051Y-100312184D01*
X124655049Y-100312181D01*
X124655048Y-100312179D01*
X124530109Y-100140213D01*
X124379786Y-99989890D01*
X124207820Y-99864951D01*
X124207115Y-99864591D01*
X124199054Y-99860485D01*
X124148259Y-99812512D01*
X124131463Y-99744692D01*
X124153999Y-99678556D01*
X124199054Y-99639515D01*
X124207816Y-99635051D01*
X124313124Y-99558541D01*
X124379786Y-99510109D01*
X124379788Y-99510106D01*
X124379792Y-99510104D01*
X124530104Y-99359792D01*
X124530106Y-99359788D01*
X124530109Y-99359786D01*
X124655048Y-99187820D01*
X124655047Y-99187820D01*
X124655051Y-99187816D01*
X124751557Y-98998412D01*
X124817246Y-98796243D01*
X124850500Y-98586287D01*
X124850500Y-98373713D01*
X124817246Y-98163757D01*
X124751557Y-97961588D01*
X124655051Y-97772184D01*
X124655049Y-97772181D01*
X124655048Y-97772179D01*
X124530109Y-97600213D01*
X124379786Y-97449890D01*
X124207820Y-97324951D01*
X124207115Y-97324591D01*
X124199054Y-97320485D01*
X124148259Y-97272512D01*
X124131463Y-97204692D01*
X124153999Y-97138556D01*
X124199054Y-97099515D01*
X124207816Y-97095051D01*
X124251393Y-97063391D01*
X124379786Y-96970109D01*
X124379788Y-96970106D01*
X124379792Y-96970104D01*
X124530104Y-96819792D01*
X124530106Y-96819788D01*
X124530109Y-96819786D01*
X124655048Y-96647820D01*
X124655047Y-96647820D01*
X124655051Y-96647816D01*
X124751557Y-96458412D01*
X124817246Y-96256243D01*
X124850500Y-96046287D01*
X124850500Y-95833713D01*
X124817246Y-95623757D01*
X124751557Y-95421588D01*
X124655051Y-95232184D01*
X124655049Y-95232181D01*
X124655048Y-95232179D01*
X124530109Y-95060213D01*
X124379786Y-94909890D01*
X124207820Y-94784951D01*
X124207115Y-94784591D01*
X124199054Y-94780485D01*
X124148259Y-94732512D01*
X124131463Y-94664692D01*
X124153999Y-94598556D01*
X124199054Y-94559515D01*
X124207816Y-94555051D01*
X124229789Y-94539086D01*
X124379786Y-94430109D01*
X124379788Y-94430106D01*
X124379792Y-94430104D01*
X124530104Y-94279792D01*
X124530106Y-94279788D01*
X124530109Y-94279786D01*
X124655048Y-94107820D01*
X124655047Y-94107820D01*
X124655051Y-94107816D01*
X124751557Y-93918412D01*
X124817246Y-93716243D01*
X124850500Y-93506287D01*
X124850500Y-93293713D01*
X124817246Y-93083757D01*
X124751557Y-92881588D01*
X124655051Y-92692184D01*
X124655049Y-92692181D01*
X124655048Y-92692179D01*
X124530109Y-92520213D01*
X124379786Y-92369890D01*
X124207820Y-92244951D01*
X124207115Y-92244591D01*
X124199054Y-92240485D01*
X124148259Y-92192512D01*
X124131463Y-92124692D01*
X124153999Y-92058556D01*
X124199054Y-92019515D01*
X124207816Y-92015051D01*
X124265128Y-91973412D01*
X124379786Y-91890109D01*
X124379788Y-91890106D01*
X124379792Y-91890104D01*
X124530104Y-91739792D01*
X124530106Y-91739788D01*
X124530109Y-91739786D01*
X124655048Y-91567820D01*
X124655047Y-91567820D01*
X124655051Y-91567816D01*
X124751557Y-91378412D01*
X124817246Y-91176243D01*
X124850500Y-90966287D01*
X124850500Y-90753713D01*
X124817246Y-90543757D01*
X124751557Y-90341588D01*
X124655051Y-90152184D01*
X124655049Y-90152181D01*
X124655048Y-90152179D01*
X124530109Y-89980213D01*
X124379786Y-89829890D01*
X124207820Y-89704951D01*
X124207115Y-89704591D01*
X124199054Y-89700485D01*
X124148259Y-89652512D01*
X124131463Y-89584692D01*
X124153999Y-89518556D01*
X124199054Y-89479515D01*
X124207816Y-89475051D01*
X124265128Y-89433412D01*
X124379786Y-89350109D01*
X124379788Y-89350106D01*
X124379792Y-89350104D01*
X124530104Y-89199792D01*
X124530106Y-89199788D01*
X124530109Y-89199786D01*
X124655048Y-89027820D01*
X124655047Y-89027820D01*
X124655051Y-89027816D01*
X124751557Y-88838412D01*
X124817246Y-88636243D01*
X124850500Y-88426287D01*
X124850500Y-88213713D01*
X124817246Y-88003757D01*
X124751557Y-87801588D01*
X124655051Y-87612184D01*
X124655049Y-87612181D01*
X124655048Y-87612179D01*
X124530109Y-87440213D01*
X124379786Y-87289890D01*
X124207820Y-87164951D01*
X124207115Y-87164591D01*
X124199054Y-87160485D01*
X124148259Y-87112512D01*
X124131463Y-87044692D01*
X124153999Y-86978556D01*
X124199054Y-86939515D01*
X124207816Y-86935051D01*
X124265128Y-86893412D01*
X124379786Y-86810109D01*
X124379788Y-86810106D01*
X124379792Y-86810104D01*
X124530104Y-86659792D01*
X124530106Y-86659788D01*
X124530109Y-86659786D01*
X124655048Y-86487820D01*
X124655047Y-86487820D01*
X124655051Y-86487816D01*
X124751557Y-86298412D01*
X124817246Y-86096243D01*
X124850500Y-85886287D01*
X124850500Y-85673713D01*
X124817246Y-85463757D01*
X124751557Y-85261588D01*
X124655051Y-85072184D01*
X124655049Y-85072181D01*
X124655048Y-85072179D01*
X124530109Y-84900213D01*
X124379786Y-84749890D01*
X124207820Y-84624951D01*
X124207115Y-84624591D01*
X124199054Y-84620485D01*
X124148259Y-84572512D01*
X124131463Y-84504692D01*
X124153999Y-84438556D01*
X124199054Y-84399515D01*
X124207816Y-84395051D01*
X124265128Y-84353412D01*
X124379786Y-84270109D01*
X124379788Y-84270106D01*
X124379792Y-84270104D01*
X124530104Y-84119792D01*
X124530106Y-84119788D01*
X124530109Y-84119786D01*
X124655048Y-83947820D01*
X124655047Y-83947820D01*
X124655051Y-83947816D01*
X124751557Y-83758412D01*
X124817246Y-83556243D01*
X124850500Y-83346287D01*
X124850500Y-83133713D01*
X124817246Y-82923757D01*
X124751557Y-82721588D01*
X124655051Y-82532184D01*
X124655049Y-82532181D01*
X124655048Y-82532179D01*
X124530109Y-82360213D01*
X124379786Y-82209890D01*
X124207820Y-82084951D01*
X124207115Y-82084591D01*
X124199054Y-82080485D01*
X124148259Y-82032512D01*
X124131463Y-81964692D01*
X124153999Y-81898556D01*
X124199054Y-81859515D01*
X124207816Y-81855051D01*
X124265128Y-81813412D01*
X124379786Y-81730109D01*
X124379788Y-81730106D01*
X124379792Y-81730104D01*
X124530104Y-81579792D01*
X124530106Y-81579788D01*
X124530109Y-81579786D01*
X124655048Y-81407820D01*
X124655047Y-81407820D01*
X124655051Y-81407816D01*
X124751557Y-81218412D01*
X124817246Y-81016243D01*
X124850500Y-80806287D01*
X124850500Y-80593713D01*
X124817246Y-80383757D01*
X124751557Y-80181588D01*
X124655051Y-79992184D01*
X124655049Y-79992181D01*
X124655048Y-79992179D01*
X124530109Y-79820213D01*
X124379786Y-79669890D01*
X124207820Y-79544951D01*
X124207115Y-79544591D01*
X124199054Y-79540485D01*
X124148259Y-79492512D01*
X124131463Y-79424692D01*
X124153999Y-79358556D01*
X124199054Y-79319515D01*
X124207816Y-79315051D01*
X124229789Y-79299086D01*
X124379786Y-79190109D01*
X124379788Y-79190106D01*
X124379792Y-79190104D01*
X124530104Y-79039792D01*
X124530106Y-79039788D01*
X124530109Y-79039786D01*
X124655048Y-78867820D01*
X124655047Y-78867820D01*
X124655051Y-78867816D01*
X124751557Y-78678412D01*
X124817246Y-78476243D01*
X124850500Y-78266287D01*
X124850500Y-78053713D01*
X124817246Y-77843757D01*
X124751557Y-77641588D01*
X124655051Y-77452184D01*
X124655049Y-77452181D01*
X124655048Y-77452179D01*
X124530109Y-77280213D01*
X124379786Y-77129890D01*
X124207820Y-77004951D01*
X124207115Y-77004591D01*
X124199054Y-77000485D01*
X124148259Y-76952512D01*
X124131463Y-76884692D01*
X124153999Y-76818556D01*
X124199054Y-76779515D01*
X124207816Y-76775051D01*
X124229789Y-76759086D01*
X124379786Y-76650109D01*
X124379788Y-76650106D01*
X124379792Y-76650104D01*
X124530104Y-76499792D01*
X124530106Y-76499788D01*
X124530109Y-76499786D01*
X124655048Y-76327820D01*
X124655047Y-76327820D01*
X124655051Y-76327816D01*
X124751557Y-76138412D01*
X124817246Y-75936243D01*
X124850500Y-75726287D01*
X124850500Y-75513713D01*
X124817246Y-75303757D01*
X124751557Y-75101588D01*
X124655051Y-74912184D01*
X124655049Y-74912181D01*
X124655048Y-74912179D01*
X124530109Y-74740213D01*
X124379786Y-74589890D01*
X124207820Y-74464951D01*
X124207115Y-74464591D01*
X124199054Y-74460485D01*
X124148259Y-74412512D01*
X124131463Y-74344692D01*
X124153999Y-74278556D01*
X124199054Y-74239515D01*
X124207816Y-74235051D01*
X124229789Y-74219086D01*
X124379786Y-74110109D01*
X124379788Y-74110106D01*
X124379792Y-74110104D01*
X124530104Y-73959792D01*
X124530106Y-73959788D01*
X124530109Y-73959786D01*
X124655048Y-73787820D01*
X124655047Y-73787820D01*
X124655051Y-73787816D01*
X124751557Y-73598412D01*
X124817246Y-73396243D01*
X124850500Y-73186287D01*
X124850500Y-72973713D01*
X124817246Y-72763757D01*
X124751557Y-72561588D01*
X124655051Y-72372184D01*
X124655049Y-72372181D01*
X124655048Y-72372179D01*
X124530109Y-72200213D01*
X124379786Y-72049890D01*
X124207820Y-71924951D01*
X124207115Y-71924591D01*
X124199054Y-71920485D01*
X124148259Y-71872512D01*
X124131463Y-71804692D01*
X124153999Y-71738556D01*
X124199054Y-71699515D01*
X124207816Y-71695051D01*
X124229789Y-71679086D01*
X124379786Y-71570109D01*
X124379788Y-71570106D01*
X124379792Y-71570104D01*
X124530104Y-71419792D01*
X124530106Y-71419788D01*
X124530109Y-71419786D01*
X124655048Y-71247820D01*
X124655047Y-71247820D01*
X124655051Y-71247816D01*
X124751557Y-71058412D01*
X124817246Y-70856243D01*
X124844481Y-70684284D01*
X124874410Y-70621152D01*
X124933721Y-70584220D01*
X125003584Y-70585218D01*
X125054635Y-70616003D01*
X128713181Y-74274548D01*
X128746666Y-74335871D01*
X128749500Y-74362229D01*
X128749500Y-99034578D01*
X128749500Y-99034580D01*
X128749499Y-99034580D01*
X128778340Y-99179567D01*
X128778343Y-99179577D01*
X128820423Y-99281166D01*
X128834916Y-99316155D01*
X128843059Y-99328342D01*
X128864072Y-99359791D01*
X128917049Y-99439078D01*
X128917052Y-99439081D01*
X129510920Y-100032948D01*
X129510924Y-100032951D01*
X129633838Y-100115080D01*
X129633851Y-100115087D01*
X129770422Y-100171656D01*
X129770427Y-100171658D01*
X129770431Y-100171658D01*
X129770432Y-100171659D01*
X129915419Y-100200500D01*
X129915422Y-100200500D01*
X130063257Y-100200500D01*
X142587770Y-100200500D01*
X142654809Y-100220185D01*
X142675451Y-100236819D01*
X144473181Y-102034548D01*
X144506666Y-102095871D01*
X144509500Y-102122229D01*
X144509500Y-106812779D01*
X144489815Y-106879818D01*
X144458385Y-106913097D01*
X144380211Y-106969893D01*
X144380205Y-106969898D01*
X144229890Y-107120213D01*
X144104949Y-107292182D01*
X144100484Y-107300946D01*
X144052509Y-107351742D01*
X143984688Y-107368536D01*
X143918553Y-107345998D01*
X143879516Y-107300946D01*
X143875050Y-107292182D01*
X143750109Y-107120213D01*
X143599786Y-106969890D01*
X143427820Y-106844951D01*
X143238414Y-106748444D01*
X143238413Y-106748443D01*
X143238412Y-106748443D01*
X143036243Y-106682754D01*
X143036241Y-106682753D01*
X143036240Y-106682753D01*
X142874957Y-106657208D01*
X142826287Y-106649500D01*
X142613713Y-106649500D01*
X142565042Y-106657208D01*
X142403760Y-106682753D01*
X142201585Y-106748444D01*
X142012179Y-106844951D01*
X141840213Y-106969890D01*
X141689890Y-107120213D01*
X141564949Y-107292182D01*
X141560484Y-107300946D01*
X141512509Y-107351742D01*
X141444688Y-107368536D01*
X141378553Y-107345998D01*
X141339516Y-107300946D01*
X141335050Y-107292182D01*
X141210109Y-107120213D01*
X141059786Y-106969890D01*
X140887820Y-106844951D01*
X140698414Y-106748444D01*
X140698413Y-106748443D01*
X140698412Y-106748443D01*
X140496243Y-106682754D01*
X140496241Y-106682753D01*
X140496240Y-106682753D01*
X140334957Y-106657208D01*
X140286287Y-106649500D01*
X140073713Y-106649500D01*
X140025042Y-106657208D01*
X139863760Y-106682753D01*
X139661585Y-106748444D01*
X139472179Y-106844951D01*
X139300213Y-106969890D01*
X139149890Y-107120213D01*
X139024949Y-107292182D01*
X139020484Y-107300946D01*
X138972509Y-107351742D01*
X138904688Y-107368536D01*
X138838553Y-107345998D01*
X138799516Y-107300946D01*
X138795050Y-107292182D01*
X138670109Y-107120213D01*
X138519786Y-106969890D01*
X138347820Y-106844951D01*
X138158414Y-106748444D01*
X138158413Y-106748443D01*
X138158412Y-106748443D01*
X137956243Y-106682754D01*
X137956241Y-106682753D01*
X137956240Y-106682753D01*
X137794957Y-106657208D01*
X137746287Y-106649500D01*
X137533713Y-106649500D01*
X137485042Y-106657208D01*
X137323760Y-106682753D01*
X137121585Y-106748444D01*
X136932179Y-106844951D01*
X136760213Y-106969890D01*
X136609890Y-107120213D01*
X136484949Y-107292182D01*
X136480484Y-107300946D01*
X136432509Y-107351742D01*
X136364688Y-107368536D01*
X136298553Y-107345998D01*
X136259516Y-107300946D01*
X136255050Y-107292182D01*
X136130109Y-107120213D01*
X135979786Y-106969890D01*
X135807820Y-106844951D01*
X135618414Y-106748444D01*
X135618413Y-106748443D01*
X135618412Y-106748443D01*
X135416243Y-106682754D01*
X135416241Y-106682753D01*
X135416240Y-106682753D01*
X135254957Y-106657208D01*
X135206287Y-106649500D01*
X134993713Y-106649500D01*
X134945042Y-106657208D01*
X134783760Y-106682753D01*
X134581585Y-106748444D01*
X134392179Y-106844951D01*
X134220213Y-106969890D01*
X134069890Y-107120213D01*
X133944949Y-107292182D01*
X133940484Y-107300946D01*
X133892509Y-107351742D01*
X133824688Y-107368536D01*
X133758553Y-107345998D01*
X133719516Y-107300946D01*
X133715050Y-107292182D01*
X133590109Y-107120213D01*
X133439786Y-106969890D01*
X133267820Y-106844951D01*
X133078414Y-106748444D01*
X133078413Y-106748443D01*
X133078412Y-106748443D01*
X132876243Y-106682754D01*
X132876241Y-106682753D01*
X132876240Y-106682753D01*
X132714957Y-106657208D01*
X132666287Y-106649500D01*
X132453713Y-106649500D01*
X132405042Y-106657208D01*
X132243760Y-106682753D01*
X132041585Y-106748444D01*
X131852179Y-106844951D01*
X131680213Y-106969890D01*
X131529890Y-107120213D01*
X131404949Y-107292182D01*
X131400484Y-107300946D01*
X131352509Y-107351742D01*
X131284688Y-107368536D01*
X131218553Y-107345998D01*
X131179516Y-107300946D01*
X131175050Y-107292182D01*
X131050109Y-107120213D01*
X130899786Y-106969890D01*
X130727820Y-106844951D01*
X130538414Y-106748444D01*
X130538413Y-106748443D01*
X130538412Y-106748443D01*
X130336243Y-106682754D01*
X130336241Y-106682753D01*
X130336240Y-106682753D01*
X130174957Y-106657208D01*
X130126287Y-106649500D01*
X129913713Y-106649500D01*
X129865042Y-106657208D01*
X129703760Y-106682753D01*
X129501585Y-106748444D01*
X129312179Y-106844951D01*
X129140215Y-106969889D01*
X129026285Y-107083819D01*
X128964962Y-107117303D01*
X128895270Y-107112319D01*
X128839337Y-107070447D01*
X128822422Y-107039470D01*
X128773354Y-106907913D01*
X128773350Y-106907906D01*
X128687190Y-106792812D01*
X128687187Y-106792809D01*
X128572093Y-106706649D01*
X128572086Y-106706645D01*
X128437379Y-106656403D01*
X128437372Y-106656401D01*
X128377844Y-106650000D01*
X127730000Y-106650000D01*
X127730000Y-107566988D01*
X127672993Y-107534075D01*
X127545826Y-107500000D01*
X127414174Y-107500000D01*
X127287007Y-107534075D01*
X127230000Y-107566988D01*
X127230000Y-106650000D01*
X126582155Y-106650000D01*
X126522627Y-106656401D01*
X126522620Y-106656403D01*
X126387913Y-106706645D01*
X126387906Y-106706649D01*
X126272812Y-106792809D01*
X126272809Y-106792812D01*
X126186649Y-106907906D01*
X126186645Y-106907913D01*
X126136403Y-107042620D01*
X126136401Y-107042627D01*
X126130000Y-107102155D01*
X126130000Y-107750000D01*
X127046988Y-107750000D01*
X127014075Y-107807007D01*
X126980000Y-107934174D01*
X126980000Y-108065826D01*
X127014075Y-108192993D01*
X127046988Y-108250000D01*
X126130000Y-108250000D01*
X126130000Y-108897844D01*
X126136401Y-108957372D01*
X126136403Y-108957379D01*
X126186645Y-109092086D01*
X126186649Y-109092093D01*
X126272809Y-109207187D01*
X126272812Y-109207190D01*
X126387906Y-109293350D01*
X126387913Y-109293354D01*
X126522620Y-109343596D01*
X126522627Y-109343598D01*
X126582155Y-109349999D01*
X126582172Y-109350000D01*
X127230000Y-109350000D01*
X127230000Y-108433012D01*
X127287007Y-108465925D01*
X127414174Y-108500000D01*
X127545826Y-108500000D01*
X127672993Y-108465925D01*
X127730000Y-108433012D01*
X127730000Y-109350000D01*
X128377828Y-109350000D01*
X128377844Y-109349999D01*
X128437372Y-109343598D01*
X128437379Y-109343596D01*
X128572086Y-109293354D01*
X128572093Y-109293350D01*
X128687187Y-109207190D01*
X128687190Y-109207187D01*
X128773350Y-109092093D01*
X128773354Y-109092086D01*
X128822422Y-108960529D01*
X128864293Y-108904595D01*
X128929757Y-108880178D01*
X128998030Y-108895030D01*
X129026285Y-108916181D01*
X129140213Y-109030109D01*
X129312179Y-109155048D01*
X129312181Y-109155049D01*
X129312184Y-109155051D01*
X129501588Y-109251557D01*
X129703757Y-109317246D01*
X129913713Y-109350500D01*
X129913714Y-109350500D01*
X130126286Y-109350500D01*
X130126287Y-109350500D01*
X130336243Y-109317246D01*
X130538412Y-109251557D01*
X130727816Y-109155051D01*
X130814471Y-109092093D01*
X130899786Y-109030109D01*
X130899788Y-109030106D01*
X130899792Y-109030104D01*
X131050104Y-108879792D01*
X131050106Y-108879788D01*
X131050109Y-108879786D01*
X131175048Y-108707820D01*
X131175047Y-108707820D01*
X131175051Y-108707816D01*
X131179514Y-108699054D01*
X131227488Y-108648259D01*
X131295308Y-108631463D01*
X131361444Y-108653999D01*
X131400486Y-108699056D01*
X131404951Y-108707820D01*
X131529890Y-108879786D01*
X131680213Y-109030109D01*
X131852179Y-109155048D01*
X131852181Y-109155049D01*
X131852184Y-109155051D01*
X132041588Y-109251557D01*
X132243757Y-109317246D01*
X132453713Y-109350500D01*
X132453714Y-109350500D01*
X132666286Y-109350500D01*
X132666287Y-109350500D01*
X132876243Y-109317246D01*
X133078412Y-109251557D01*
X133267816Y-109155051D01*
X133354471Y-109092093D01*
X133439786Y-109030109D01*
X133439788Y-109030106D01*
X133439792Y-109030104D01*
X133590104Y-108879792D01*
X133590106Y-108879788D01*
X133590109Y-108879786D01*
X133715048Y-108707820D01*
X133715047Y-108707820D01*
X133715051Y-108707816D01*
X133719514Y-108699054D01*
X133767488Y-108648259D01*
X133835308Y-108631463D01*
X133901444Y-108653999D01*
X133940486Y-108699056D01*
X133944951Y-108707820D01*
X134069890Y-108879786D01*
X134220213Y-109030109D01*
X134392179Y-109155048D01*
X134392181Y-109155049D01*
X134392184Y-109155051D01*
X134581588Y-109251557D01*
X134783757Y-109317246D01*
X134993713Y-109350500D01*
X134993714Y-109350500D01*
X135206286Y-109350500D01*
X135206287Y-109350500D01*
X135416243Y-109317246D01*
X135618412Y-109251557D01*
X135807816Y-109155051D01*
X135894471Y-109092093D01*
X135979786Y-109030109D01*
X135979788Y-109030106D01*
X135979792Y-109030104D01*
X136130104Y-108879792D01*
X136130106Y-108879788D01*
X136130109Y-108879786D01*
X136255048Y-108707820D01*
X136255047Y-108707820D01*
X136255051Y-108707816D01*
X136259514Y-108699054D01*
X136307488Y-108648259D01*
X136375308Y-108631463D01*
X136441444Y-108653999D01*
X136480486Y-108699056D01*
X136484951Y-108707820D01*
X136609890Y-108879786D01*
X136760213Y-109030109D01*
X136932179Y-109155048D01*
X136932181Y-109155049D01*
X136932184Y-109155051D01*
X137121588Y-109251557D01*
X137323757Y-109317246D01*
X137533713Y-109350500D01*
X137533714Y-109350500D01*
X137746286Y-109350500D01*
X137746287Y-109350500D01*
X137956243Y-109317246D01*
X138158412Y-109251557D01*
X138347816Y-109155051D01*
X138434471Y-109092093D01*
X138519786Y-109030109D01*
X138519788Y-109030106D01*
X138519792Y-109030104D01*
X138670104Y-108879792D01*
X138670106Y-108879788D01*
X138670109Y-108879786D01*
X138795048Y-108707820D01*
X138795047Y-108707820D01*
X138795051Y-108707816D01*
X138799514Y-108699054D01*
X138847488Y-108648259D01*
X138915308Y-108631463D01*
X138981444Y-108653999D01*
X139020486Y-108699056D01*
X139024951Y-108707820D01*
X139149890Y-108879786D01*
X139300213Y-109030109D01*
X139472179Y-109155048D01*
X139472181Y-109155049D01*
X139472184Y-109155051D01*
X139661588Y-109251557D01*
X139863757Y-109317246D01*
X140073713Y-109350500D01*
X140073714Y-109350500D01*
X140286286Y-109350500D01*
X140286287Y-109350500D01*
X140496243Y-109317246D01*
X140698412Y-109251557D01*
X140887816Y-109155051D01*
X140974471Y-109092093D01*
X141059786Y-109030109D01*
X141059788Y-109030106D01*
X141059792Y-109030104D01*
X141210104Y-108879792D01*
X141210106Y-108879788D01*
X141210109Y-108879786D01*
X141335048Y-108707820D01*
X141335047Y-108707820D01*
X141335051Y-108707816D01*
X141339514Y-108699054D01*
X141387488Y-108648259D01*
X141455308Y-108631463D01*
X141521444Y-108653999D01*
X141560486Y-108699056D01*
X141564951Y-108707820D01*
X141689890Y-108879786D01*
X141840213Y-109030109D01*
X142012179Y-109155048D01*
X142012181Y-109155049D01*
X142012184Y-109155051D01*
X142201588Y-109251557D01*
X142403757Y-109317246D01*
X142613713Y-109350500D01*
X142613714Y-109350500D01*
X142826286Y-109350500D01*
X142826287Y-109350500D01*
X143036243Y-109317246D01*
X143238412Y-109251557D01*
X143427816Y-109155051D01*
X143514471Y-109092093D01*
X143599786Y-109030109D01*
X143599788Y-109030106D01*
X143599792Y-109030104D01*
X143750104Y-108879792D01*
X143750106Y-108879788D01*
X143750109Y-108879786D01*
X143875048Y-108707820D01*
X143875047Y-108707820D01*
X143875051Y-108707816D01*
X143879514Y-108699054D01*
X143927488Y-108648259D01*
X143995308Y-108631463D01*
X144061444Y-108653999D01*
X144100486Y-108699056D01*
X144104951Y-108707820D01*
X144229890Y-108879786D01*
X144380213Y-109030109D01*
X144552179Y-109155048D01*
X144552181Y-109155049D01*
X144552184Y-109155051D01*
X144741588Y-109251557D01*
X144943757Y-109317246D01*
X145153713Y-109350500D01*
X145153714Y-109350500D01*
X145366286Y-109350500D01*
X145366287Y-109350500D01*
X145576243Y-109317246D01*
X145778412Y-109251557D01*
X145967816Y-109155051D01*
X146054471Y-109092093D01*
X146139786Y-109030109D01*
X146139788Y-109030106D01*
X146139792Y-109030104D01*
X146290104Y-108879792D01*
X146290106Y-108879788D01*
X146290109Y-108879786D01*
X146415048Y-108707820D01*
X146415047Y-108707820D01*
X146415051Y-108707816D01*
X146419514Y-108699054D01*
X146467488Y-108648259D01*
X146535308Y-108631463D01*
X146601444Y-108653999D01*
X146640486Y-108699056D01*
X146644951Y-108707820D01*
X146769890Y-108879786D01*
X146920213Y-109030109D01*
X147092179Y-109155048D01*
X147092181Y-109155049D01*
X147092184Y-109155051D01*
X147281588Y-109251557D01*
X147483757Y-109317246D01*
X147693713Y-109350500D01*
X147693714Y-109350500D01*
X147906286Y-109350500D01*
X147906287Y-109350500D01*
X148116243Y-109317246D01*
X148318412Y-109251557D01*
X148507816Y-109155051D01*
X148594471Y-109092093D01*
X148679786Y-109030109D01*
X148679788Y-109030106D01*
X148679792Y-109030104D01*
X148830104Y-108879792D01*
X148830106Y-108879788D01*
X148830109Y-108879786D01*
X148955048Y-108707820D01*
X148955047Y-108707820D01*
X148955051Y-108707816D01*
X148959514Y-108699054D01*
X149007488Y-108648259D01*
X149075308Y-108631463D01*
X149141444Y-108653999D01*
X149180486Y-108699056D01*
X149184951Y-108707820D01*
X149309890Y-108879786D01*
X149460213Y-109030109D01*
X149632179Y-109155048D01*
X149632181Y-109155049D01*
X149632184Y-109155051D01*
X149821588Y-109251557D01*
X150023757Y-109317246D01*
X150233713Y-109350500D01*
X150233714Y-109350500D01*
X150446286Y-109350500D01*
X150446287Y-109350500D01*
X150656243Y-109317246D01*
X150858412Y-109251557D01*
X151047816Y-109155051D01*
X151134471Y-109092093D01*
X151219786Y-109030109D01*
X151219788Y-109030106D01*
X151219792Y-109030104D01*
X151370104Y-108879792D01*
X151370106Y-108879788D01*
X151370109Y-108879786D01*
X151495048Y-108707820D01*
X151495047Y-108707820D01*
X151495051Y-108707816D01*
X151499514Y-108699054D01*
X151547488Y-108648259D01*
X151615308Y-108631463D01*
X151681444Y-108653999D01*
X151720486Y-108699056D01*
X151724951Y-108707820D01*
X151849890Y-108879786D01*
X152000213Y-109030109D01*
X152172179Y-109155048D01*
X152172181Y-109155049D01*
X152172184Y-109155051D01*
X152361588Y-109251557D01*
X152563757Y-109317246D01*
X152773713Y-109350500D01*
X152773714Y-109350500D01*
X152986286Y-109350500D01*
X152986287Y-109350500D01*
X153196243Y-109317246D01*
X153398412Y-109251557D01*
X153587816Y-109155051D01*
X153674471Y-109092093D01*
X153759786Y-109030109D01*
X153759788Y-109030106D01*
X153759792Y-109030104D01*
X153910104Y-108879792D01*
X153910106Y-108879788D01*
X153910109Y-108879786D01*
X154035048Y-108707820D01*
X154035047Y-108707820D01*
X154035051Y-108707816D01*
X154039514Y-108699054D01*
X154087488Y-108648259D01*
X154155308Y-108631463D01*
X154221444Y-108653999D01*
X154260486Y-108699056D01*
X154264951Y-108707820D01*
X154389890Y-108879786D01*
X154540213Y-109030109D01*
X154712179Y-109155048D01*
X154712181Y-109155049D01*
X154712184Y-109155051D01*
X154901588Y-109251557D01*
X155103757Y-109317246D01*
X155313713Y-109350500D01*
X155313714Y-109350500D01*
X155526286Y-109350500D01*
X155526287Y-109350500D01*
X155736243Y-109317246D01*
X155938412Y-109251557D01*
X156127816Y-109155051D01*
X156214471Y-109092093D01*
X156299786Y-109030109D01*
X156299788Y-109030106D01*
X156299792Y-109030104D01*
X156450104Y-108879792D01*
X156450106Y-108879788D01*
X156450109Y-108879786D01*
X156535890Y-108761717D01*
X156575051Y-108707816D01*
X156579793Y-108698508D01*
X156627763Y-108647711D01*
X156695583Y-108630911D01*
X156761719Y-108653445D01*
X156800763Y-108698500D01*
X156805373Y-108707547D01*
X156844728Y-108761716D01*
X157477037Y-108129408D01*
X157494075Y-108192993D01*
X157559901Y-108307007D01*
X157652993Y-108400099D01*
X157767007Y-108465925D01*
X157830590Y-108482962D01*
X157198282Y-109115269D01*
X157198282Y-109115270D01*
X157252449Y-109154624D01*
X157441782Y-109251095D01*
X157643870Y-109316757D01*
X157853754Y-109350000D01*
X158066246Y-109350000D01*
X158276127Y-109316757D01*
X158276130Y-109316757D01*
X158478217Y-109251095D01*
X158667554Y-109154622D01*
X158721716Y-109115270D01*
X158721717Y-109115270D01*
X158089408Y-108482962D01*
X158152993Y-108465925D01*
X158267007Y-108400099D01*
X158360099Y-108307007D01*
X158425925Y-108192993D01*
X158442962Y-108129408D01*
X159075270Y-108761717D01*
X159075270Y-108761716D01*
X159114622Y-108707554D01*
X159119514Y-108697954D01*
X159167488Y-108647157D01*
X159235308Y-108630361D01*
X159301444Y-108652897D01*
X159340486Y-108697954D01*
X159345375Y-108707550D01*
X159384728Y-108761716D01*
X160017037Y-108129408D01*
X160034075Y-108192993D01*
X160099901Y-108307007D01*
X160192993Y-108400099D01*
X160307007Y-108465925D01*
X160370590Y-108482962D01*
X159738282Y-109115269D01*
X159738282Y-109115270D01*
X159792449Y-109154624D01*
X159981782Y-109251095D01*
X160183870Y-109316757D01*
X160393754Y-109350000D01*
X160606246Y-109350000D01*
X160816127Y-109316757D01*
X160816130Y-109316757D01*
X161018217Y-109251095D01*
X161207554Y-109154622D01*
X161261716Y-109115270D01*
X161261717Y-109115270D01*
X160629408Y-108482962D01*
X160692993Y-108465925D01*
X160807007Y-108400099D01*
X160900099Y-108307007D01*
X160965925Y-108192993D01*
X160982962Y-108129409D01*
X161615270Y-108761717D01*
X161615270Y-108761716D01*
X161654622Y-108707554D01*
X161751095Y-108518217D01*
X161816757Y-108316130D01*
X161816757Y-108316127D01*
X161850000Y-108106246D01*
X161850000Y-107893753D01*
X161816757Y-107683872D01*
X161816757Y-107683869D01*
X161751095Y-107481782D01*
X161654624Y-107292449D01*
X161615270Y-107238282D01*
X161615269Y-107238282D01*
X160982962Y-107870590D01*
X160965925Y-107807007D01*
X160900099Y-107692993D01*
X160807007Y-107599901D01*
X160692993Y-107534075D01*
X160629409Y-107517037D01*
X161261716Y-106884728D01*
X161207550Y-106845375D01*
X161018217Y-106748904D01*
X160816129Y-106683242D01*
X160606246Y-106650000D01*
X160393754Y-106650000D01*
X160183872Y-106683242D01*
X160183869Y-106683242D01*
X159981782Y-106748904D01*
X159792439Y-106845380D01*
X159738282Y-106884727D01*
X159738282Y-106884728D01*
X160370591Y-107517037D01*
X160307007Y-107534075D01*
X160192993Y-107599901D01*
X160099901Y-107692993D01*
X160034075Y-107807007D01*
X160017037Y-107870591D01*
X159384728Y-107238282D01*
X159384727Y-107238282D01*
X159345380Y-107292440D01*
X159340483Y-107302051D01*
X159292506Y-107352845D01*
X159224684Y-107369638D01*
X159158550Y-107347098D01*
X159119516Y-107302048D01*
X159114626Y-107292452D01*
X159075270Y-107238282D01*
X159075269Y-107238282D01*
X158442962Y-107870590D01*
X158425925Y-107807007D01*
X158360099Y-107692993D01*
X158267007Y-107599901D01*
X158152993Y-107534075D01*
X158089409Y-107517037D01*
X158721716Y-106884728D01*
X158667550Y-106845375D01*
X158478217Y-106748904D01*
X158276129Y-106683242D01*
X158066246Y-106650000D01*
X157853754Y-106650000D01*
X157643872Y-106683242D01*
X157643869Y-106683242D01*
X157441782Y-106748904D01*
X157252439Y-106845380D01*
X157198282Y-106884727D01*
X157198282Y-106884728D01*
X157830591Y-107517037D01*
X157767007Y-107534075D01*
X157652993Y-107599901D01*
X157559901Y-107692993D01*
X157494075Y-107807007D01*
X157477037Y-107870591D01*
X156844728Y-107238282D01*
X156844727Y-107238282D01*
X156805380Y-107292440D01*
X156805376Y-107292446D01*
X156800760Y-107301505D01*
X156752781Y-107352297D01*
X156684959Y-107369087D01*
X156618826Y-107346543D01*
X156579794Y-107301493D01*
X156575051Y-107292184D01*
X156575049Y-107292181D01*
X156575048Y-107292179D01*
X156450109Y-107120213D01*
X156299786Y-106969890D01*
X156127820Y-106844951D01*
X155938414Y-106748444D01*
X155938413Y-106748443D01*
X155938412Y-106748443D01*
X155736243Y-106682754D01*
X155736241Y-106682753D01*
X155736240Y-106682753D01*
X155574957Y-106657208D01*
X155526287Y-106649500D01*
X155313713Y-106649500D01*
X155265042Y-106657208D01*
X155103760Y-106682753D01*
X154901585Y-106748444D01*
X154712179Y-106844951D01*
X154540213Y-106969890D01*
X154389890Y-107120213D01*
X154264949Y-107292182D01*
X154260484Y-107300946D01*
X154212509Y-107351742D01*
X154144688Y-107368536D01*
X154078553Y-107345998D01*
X154039516Y-107300946D01*
X154035050Y-107292182D01*
X153910109Y-107120213D01*
X153759786Y-106969890D01*
X153587820Y-106844951D01*
X153398414Y-106748444D01*
X153398413Y-106748443D01*
X153398412Y-106748443D01*
X153196243Y-106682754D01*
X153196241Y-106682753D01*
X153196240Y-106682753D01*
X153034957Y-106657208D01*
X152986287Y-106649500D01*
X152773713Y-106649500D01*
X152725042Y-106657208D01*
X152563760Y-106682753D01*
X152361585Y-106748444D01*
X152172179Y-106844951D01*
X152000213Y-106969890D01*
X151849890Y-107120213D01*
X151724949Y-107292182D01*
X151720484Y-107300946D01*
X151672509Y-107351742D01*
X151604688Y-107368536D01*
X151538553Y-107345998D01*
X151499516Y-107300946D01*
X151495050Y-107292182D01*
X151370109Y-107120213D01*
X151219786Y-106969890D01*
X151047820Y-106844951D01*
X150858414Y-106748444D01*
X150858413Y-106748443D01*
X150858412Y-106748443D01*
X150656243Y-106682754D01*
X150656241Y-106682753D01*
X150656240Y-106682753D01*
X150494957Y-106657208D01*
X150446287Y-106649500D01*
X150233713Y-106649500D01*
X150185042Y-106657208D01*
X150023760Y-106682753D01*
X149821585Y-106748444D01*
X149632179Y-106844951D01*
X149460213Y-106969890D01*
X149309890Y-107120213D01*
X149184949Y-107292182D01*
X149180484Y-107300946D01*
X149132509Y-107351742D01*
X149064688Y-107368536D01*
X148998553Y-107345998D01*
X148959516Y-107300946D01*
X148955050Y-107292182D01*
X148830109Y-107120213D01*
X148679786Y-106969890D01*
X148507820Y-106844951D01*
X148318414Y-106748444D01*
X148318413Y-106748443D01*
X148318412Y-106748443D01*
X148116243Y-106682754D01*
X148116241Y-106682753D01*
X148116240Y-106682753D01*
X147954957Y-106657208D01*
X147906287Y-106649500D01*
X147693713Y-106649500D01*
X147645042Y-106657208D01*
X147483760Y-106682753D01*
X147281585Y-106748444D01*
X147092179Y-106844951D01*
X146920213Y-106969890D01*
X146769890Y-107120213D01*
X146644949Y-107292182D01*
X146640484Y-107300946D01*
X146592509Y-107351742D01*
X146524688Y-107368536D01*
X146458553Y-107345998D01*
X146419516Y-107300946D01*
X146415050Y-107292182D01*
X146290109Y-107120213D01*
X146139794Y-106969898D01*
X146139788Y-106969893D01*
X146061615Y-106913097D01*
X146018949Y-106857767D01*
X146010500Y-106812779D01*
X146010500Y-102102230D01*
X146030185Y-102035191D01*
X146046819Y-102014549D01*
X147224549Y-100836819D01*
X147285872Y-100803334D01*
X147312230Y-100800500D01*
X156463920Y-100800500D01*
X156530460Y-100787264D01*
X156580904Y-100777229D01*
X156608913Y-100771658D01*
X156745495Y-100715084D01*
X156794729Y-100682186D01*
X156868416Y-100632952D01*
X158945806Y-98555561D01*
X159007124Y-98522079D01*
X159076815Y-98527063D01*
X159132749Y-98568935D01*
X159155955Y-98623847D01*
X159183242Y-98796127D01*
X159183242Y-98796130D01*
X159248904Y-98998217D01*
X159345375Y-99187550D01*
X159384728Y-99241716D01*
X160017037Y-98609408D01*
X160034075Y-98672993D01*
X160099901Y-98787007D01*
X160192993Y-98880099D01*
X160307007Y-98945925D01*
X160370591Y-98962962D01*
X159769971Y-99563581D01*
X159848711Y-99680895D01*
X159849920Y-99684729D01*
X159852844Y-99687491D01*
X159860343Y-99717778D01*
X159869727Y-99747529D01*
X159868671Y-99751408D01*
X159869638Y-99755312D01*
X159859573Y-99784844D01*
X159851383Y-99814947D01*
X159848397Y-99817640D01*
X159847100Y-99821447D01*
X159802051Y-99860483D01*
X159792440Y-99865380D01*
X159738282Y-99904727D01*
X159738282Y-99904728D01*
X160370591Y-100537037D01*
X160307007Y-100554075D01*
X160192993Y-100619901D01*
X160099901Y-100712993D01*
X160034075Y-100827007D01*
X160017037Y-100890591D01*
X159384728Y-100258282D01*
X159384727Y-100258282D01*
X159345380Y-100312439D01*
X159248904Y-100501782D01*
X159183242Y-100703869D01*
X159183242Y-100703872D01*
X159150000Y-100913753D01*
X159150000Y-101126246D01*
X159183242Y-101336127D01*
X159183242Y-101336130D01*
X159248904Y-101538217D01*
X159345375Y-101727550D01*
X159384728Y-101781716D01*
X160017037Y-101149408D01*
X160034075Y-101212993D01*
X160099901Y-101327007D01*
X160192993Y-101420099D01*
X160307007Y-101485925D01*
X160370590Y-101502962D01*
X159738282Y-102135269D01*
X159738282Y-102135270D01*
X159792452Y-102174626D01*
X159792451Y-102174626D01*
X159801495Y-102179234D01*
X159852292Y-102227208D01*
X159869087Y-102295029D01*
X159846550Y-102361164D01*
X159801499Y-102400202D01*
X159792182Y-102404949D01*
X159620213Y-102529890D01*
X159469890Y-102680213D01*
X159344951Y-102852179D01*
X159248444Y-103041585D01*
X159182753Y-103243760D01*
X159149500Y-103453713D01*
X159149500Y-103666286D01*
X159176397Y-103836110D01*
X159182754Y-103876243D01*
X159220407Y-103992128D01*
X159248444Y-104078414D01*
X159344951Y-104267820D01*
X159469890Y-104439786D01*
X159620213Y-104590109D01*
X159792179Y-104715048D01*
X159792181Y-104715049D01*
X159792184Y-104715051D01*
X159981588Y-104811557D01*
X160183757Y-104877246D01*
X160393713Y-104910500D01*
X160393714Y-104910500D01*
X160606286Y-104910500D01*
X160606287Y-104910500D01*
X160816243Y-104877246D01*
X161018412Y-104811557D01*
X161207816Y-104715051D01*
X161313124Y-104638541D01*
X161379786Y-104590109D01*
X161379788Y-104590106D01*
X161379792Y-104590104D01*
X161530104Y-104439792D01*
X161530106Y-104439788D01*
X161530109Y-104439786D01*
X161655048Y-104267820D01*
X161655047Y-104267820D01*
X161655051Y-104267816D01*
X161751557Y-104078412D01*
X161817246Y-103876243D01*
X161850500Y-103666287D01*
X161850500Y-103453713D01*
X161817246Y-103243757D01*
X161751557Y-103041588D01*
X161655051Y-102852184D01*
X161655049Y-102852181D01*
X161655048Y-102852179D01*
X161530109Y-102680213D01*
X161379786Y-102529890D01*
X161207817Y-102404949D01*
X161198504Y-102400204D01*
X161147707Y-102352230D01*
X161130912Y-102284409D01*
X161153449Y-102218274D01*
X161198507Y-102179232D01*
X161207555Y-102174622D01*
X161261716Y-102135270D01*
X161261717Y-102135270D01*
X160629408Y-101502962D01*
X160692993Y-101485925D01*
X160807007Y-101420099D01*
X160900099Y-101327007D01*
X160965925Y-101212993D01*
X160982962Y-101149409D01*
X161615270Y-101781717D01*
X161615270Y-101781716D01*
X161654622Y-101727554D01*
X161751095Y-101538217D01*
X161816757Y-101336130D01*
X161816757Y-101336127D01*
X161850000Y-101126246D01*
X161850000Y-100913753D01*
X161816757Y-100703872D01*
X161816757Y-100703869D01*
X161751095Y-100501782D01*
X161654624Y-100312449D01*
X161615270Y-100258282D01*
X161615269Y-100258282D01*
X160982962Y-100890590D01*
X160965925Y-100827007D01*
X160900099Y-100712993D01*
X160807007Y-100619901D01*
X160692993Y-100554075D01*
X160629409Y-100537037D01*
X161261716Y-99904728D01*
X161207550Y-99865375D01*
X161197954Y-99860486D01*
X161147157Y-99812512D01*
X161130361Y-99744692D01*
X161152897Y-99678556D01*
X161197954Y-99639514D01*
X161207554Y-99634622D01*
X161261716Y-99595270D01*
X161261717Y-99595270D01*
X160629408Y-98962962D01*
X160692993Y-98945925D01*
X160807007Y-98880099D01*
X160900099Y-98787007D01*
X160965925Y-98672993D01*
X160982962Y-98609409D01*
X161615270Y-99241717D01*
X161615270Y-99241716D01*
X161654622Y-99187554D01*
X161751095Y-98998217D01*
X161816757Y-98796130D01*
X161816757Y-98796127D01*
X161850000Y-98586246D01*
X161850000Y-98373754D01*
X161822683Y-98201285D01*
X161831637Y-98131992D01*
X161876633Y-98078540D01*
X161943385Y-98057900D01*
X162010699Y-98076625D01*
X162032837Y-98094206D01*
X163877049Y-99938416D01*
X163981584Y-100042951D01*
X163981587Y-100042953D01*
X163981588Y-100042954D01*
X164104494Y-100125077D01*
X164104498Y-100125079D01*
X164104505Y-100125084D01*
X164141018Y-100140208D01*
X164241088Y-100181659D01*
X164352274Y-100203775D01*
X164381643Y-100209617D01*
X164386081Y-100210500D01*
X164386082Y-100210500D01*
X164386083Y-100210500D01*
X164533918Y-100210500D01*
X170676672Y-100210500D01*
X170743711Y-100230185D01*
X170789466Y-100282989D01*
X170799410Y-100352147D01*
X170791233Y-100381953D01*
X170767949Y-100438164D01*
X170767947Y-100438170D01*
X170729500Y-100631456D01*
X170729500Y-100631459D01*
X170729500Y-100828541D01*
X170729500Y-100828543D01*
X170729499Y-100828543D01*
X170767947Y-101021829D01*
X170767950Y-101021839D01*
X170811214Y-101126287D01*
X170843368Y-101203914D01*
X170887352Y-101269740D01*
X170904971Y-101296110D01*
X170925848Y-101362787D01*
X170907363Y-101430167D01*
X170904971Y-101433890D01*
X170843366Y-101526089D01*
X170767950Y-101708160D01*
X170767947Y-101708170D01*
X170729500Y-101901456D01*
X170729500Y-101901459D01*
X170729500Y-102098541D01*
X170729500Y-102098543D01*
X170729499Y-102098543D01*
X170767947Y-102291829D01*
X170767950Y-102291839D01*
X170841217Y-102468721D01*
X170843368Y-102473914D01*
X170880770Y-102529890D01*
X170904971Y-102566110D01*
X170925848Y-102632787D01*
X170907363Y-102700167D01*
X170904971Y-102703890D01*
X170843366Y-102796089D01*
X170767950Y-102978160D01*
X170767947Y-102978170D01*
X170729500Y-103171456D01*
X170729500Y-103171459D01*
X170729500Y-103368541D01*
X170729500Y-103368543D01*
X170729499Y-103368543D01*
X170767947Y-103561829D01*
X170767950Y-103561839D01*
X170833446Y-103719961D01*
X170843368Y-103743914D01*
X170871105Y-103785425D01*
X170904971Y-103836110D01*
X170925848Y-103902787D01*
X170907363Y-103970167D01*
X170904971Y-103973890D01*
X170843366Y-104066089D01*
X170767950Y-104248160D01*
X170767947Y-104248170D01*
X170729500Y-104441456D01*
X170729500Y-104441459D01*
X170729500Y-104638541D01*
X170729500Y-104638543D01*
X170729499Y-104638543D01*
X170767947Y-104831829D01*
X170767950Y-104831839D01*
X170843364Y-105013907D01*
X170843371Y-105013920D01*
X170952860Y-105177781D01*
X170952863Y-105177785D01*
X171092214Y-105317136D01*
X171092218Y-105317139D01*
X171256079Y-105426628D01*
X171256092Y-105426635D01*
X171438160Y-105502049D01*
X171438165Y-105502051D01*
X171438169Y-105502051D01*
X171438170Y-105502052D01*
X171631456Y-105540500D01*
X171631459Y-105540500D01*
X171828543Y-105540500D01*
X171958582Y-105514632D01*
X172021835Y-105502051D01*
X172124126Y-105459680D01*
X172193590Y-105452212D01*
X172245887Y-105474976D01*
X172257668Y-105483795D01*
X172257671Y-105483797D01*
X172392517Y-105534091D01*
X172392516Y-105534091D01*
X172399444Y-105534835D01*
X172452127Y-105540500D01*
X173547872Y-105540499D01*
X173607483Y-105534091D01*
X173742331Y-105483796D01*
X173857546Y-105397546D01*
X173943796Y-105282331D01*
X173994091Y-105147483D01*
X174000500Y-105087873D01*
X174000499Y-103992128D01*
X173994091Y-103932517D01*
X173983002Y-103902787D01*
X173943797Y-103797671D01*
X173943796Y-103797669D01*
X173934627Y-103785421D01*
X173910210Y-103719961D01*
X173919333Y-103663657D01*
X173961571Y-103561685D01*
X173961572Y-103561681D01*
X173999999Y-103368495D01*
X174000000Y-103368492D01*
X174000000Y-103171508D01*
X173999999Y-103171504D01*
X173961572Y-102978318D01*
X173961569Y-102978306D01*
X173886192Y-102796328D01*
X173862571Y-102760978D01*
X173325000Y-103298551D01*
X173325000Y-103227213D01*
X173302851Y-103144555D01*
X173260064Y-103070446D01*
X173199554Y-103009936D01*
X173125445Y-102967149D01*
X173042787Y-102945000D01*
X172957213Y-102945000D01*
X172874555Y-102967149D01*
X172800446Y-103009936D01*
X172739936Y-103070446D01*
X172717973Y-103108485D01*
X172692052Y-102978170D01*
X172692051Y-102978169D01*
X172692051Y-102978165D01*
X172669216Y-102923037D01*
X172661748Y-102853571D01*
X172693023Y-102791092D01*
X172753112Y-102755439D01*
X172822937Y-102757932D01*
X172871459Y-102787905D01*
X173000000Y-102916446D01*
X173281446Y-102635001D01*
X173281446Y-102634999D01*
X173000001Y-102353553D01*
X172871460Y-102482093D01*
X172810137Y-102515577D01*
X172740445Y-102510593D01*
X172684512Y-102468721D01*
X172660095Y-102403257D01*
X172669218Y-102346958D01*
X172692051Y-102291835D01*
X172714449Y-102179234D01*
X172717973Y-102161514D01*
X172739936Y-102199554D01*
X172800446Y-102260064D01*
X172874555Y-102302851D01*
X172957213Y-102325000D01*
X173042787Y-102325000D01*
X173125445Y-102302851D01*
X173199554Y-102260064D01*
X173260064Y-102199554D01*
X173302851Y-102125445D01*
X173325000Y-102042787D01*
X173325000Y-101971447D01*
X173862571Y-102509019D01*
X173862573Y-102509019D01*
X173886187Y-102473680D01*
X173886190Y-102473676D01*
X173961569Y-102291693D01*
X173961572Y-102291681D01*
X173999999Y-102098495D01*
X174000000Y-102098492D01*
X174000000Y-101901508D01*
X173999999Y-101901504D01*
X173961572Y-101708318D01*
X173961569Y-101708306D01*
X173886192Y-101526328D01*
X173886188Y-101526321D01*
X173824728Y-101434341D01*
X173803850Y-101367663D01*
X173822334Y-101300283D01*
X173824704Y-101296595D01*
X173886632Y-101203914D01*
X173962051Y-101021835D01*
X173983558Y-100913713D01*
X174000500Y-100828543D01*
X174000500Y-100631456D01*
X173962052Y-100438170D01*
X173962051Y-100438169D01*
X173962051Y-100438165D01*
X173962049Y-100438160D01*
X173886635Y-100256092D01*
X173886633Y-100256088D01*
X173886632Y-100256086D01*
X173825029Y-100163891D01*
X173804151Y-100097214D01*
X173822635Y-100029834D01*
X173825029Y-100026109D01*
X173849230Y-99989890D01*
X173886632Y-99933914D01*
X173962051Y-99751835D01*
X173985282Y-99635048D01*
X174000500Y-99558543D01*
X174000500Y-99361456D01*
X173962052Y-99168170D01*
X173962051Y-99168169D01*
X173962051Y-99168165D01*
X173957780Y-99157853D01*
X173886635Y-98986092D01*
X173886628Y-98986079D01*
X173773755Y-98817153D01*
X173775278Y-98816135D01*
X173751331Y-98759723D01*
X173750500Y-98745389D01*
X173750500Y-97426079D01*
X173721659Y-97281092D01*
X173721658Y-97281091D01*
X173721658Y-97281087D01*
X173721430Y-97280536D01*
X173665087Y-97144511D01*
X173665085Y-97144507D01*
X173665084Y-97144505D01*
X173623955Y-97082951D01*
X173582952Y-97021584D01*
X168786819Y-92225451D01*
X168753334Y-92164128D01*
X168750500Y-92137770D01*
X168750500Y-86679604D01*
X168759939Y-86632151D01*
X168769737Y-86608497D01*
X168800500Y-86453842D01*
X168800500Y-86296158D01*
X168800500Y-86296155D01*
X168800499Y-86296153D01*
X168769738Y-86141510D01*
X168769737Y-86141503D01*
X168735463Y-86058757D01*
X168709397Y-85995827D01*
X168709390Y-85995814D01*
X168621789Y-85864711D01*
X168621786Y-85864707D01*
X168510292Y-85753213D01*
X168510288Y-85753210D01*
X168379185Y-85665609D01*
X168379172Y-85665602D01*
X168233501Y-85605264D01*
X168233489Y-85605261D01*
X168078845Y-85574500D01*
X168078842Y-85574500D01*
X167921158Y-85574500D01*
X167921155Y-85574500D01*
X167766510Y-85605261D01*
X167766498Y-85605264D01*
X167620827Y-85665602D01*
X167620814Y-85665609D01*
X167489711Y-85753210D01*
X167489707Y-85753213D01*
X167378213Y-85864707D01*
X167378210Y-85864711D01*
X167290609Y-85995814D01*
X167290602Y-85995827D01*
X167230264Y-86141498D01*
X167230261Y-86141510D01*
X167199500Y-86296153D01*
X167199500Y-86453846D01*
X167230261Y-86608489D01*
X167230263Y-86608497D01*
X167240061Y-86632151D01*
X167249500Y-86679604D01*
X167249500Y-90537351D01*
X167229815Y-90604390D01*
X167177011Y-90650145D01*
X167107853Y-90660089D01*
X167101310Y-90658969D01*
X167078842Y-90654500D01*
X166921158Y-90654500D01*
X166898690Y-90658969D01*
X166829099Y-90652740D01*
X166773922Y-90609877D01*
X166750678Y-90543987D01*
X166750500Y-90537351D01*
X166750500Y-87804604D01*
X166759939Y-87757151D01*
X166760629Y-87755486D01*
X166769737Y-87733497D01*
X166800500Y-87578842D01*
X166800500Y-87421158D01*
X166800500Y-87421155D01*
X166800499Y-87421153D01*
X166769738Y-87266510D01*
X166769737Y-87266503D01*
X166727673Y-87164951D01*
X166709397Y-87120827D01*
X166709390Y-87120814D01*
X166621789Y-86989711D01*
X166621786Y-86989707D01*
X166510292Y-86878213D01*
X166510288Y-86878210D01*
X166379185Y-86790609D01*
X166379172Y-86790602D01*
X166233501Y-86730264D01*
X166233489Y-86730261D01*
X166078845Y-86699500D01*
X166078842Y-86699500D01*
X165921158Y-86699500D01*
X165898690Y-86703969D01*
X165829099Y-86697740D01*
X165773922Y-86654877D01*
X165750678Y-86588987D01*
X165750500Y-86582351D01*
X165750500Y-82964604D01*
X165759939Y-82917151D01*
X165769737Y-82893497D01*
X165800500Y-82738842D01*
X165800500Y-82581158D01*
X165800500Y-82581155D01*
X165800499Y-82581153D01*
X165784863Y-82502546D01*
X165769737Y-82426503D01*
X165727739Y-82325109D01*
X165709397Y-82280827D01*
X165709390Y-82280814D01*
X165621789Y-82149711D01*
X165621786Y-82149707D01*
X165510292Y-82038213D01*
X165510288Y-82038210D01*
X165379185Y-81950609D01*
X165379172Y-81950602D01*
X165233501Y-81890264D01*
X165233489Y-81890261D01*
X165078845Y-81859500D01*
X165078842Y-81859500D01*
X164921158Y-81859500D01*
X164921155Y-81859500D01*
X164766510Y-81890261D01*
X164766507Y-81890261D01*
X164671952Y-81929427D01*
X164602482Y-81936895D01*
X164540003Y-81905619D01*
X164504351Y-81845530D01*
X164500500Y-81814865D01*
X164500500Y-80397135D01*
X169109500Y-80397135D01*
X169109500Y-82192870D01*
X169109501Y-82192876D01*
X169115908Y-82252483D01*
X169166202Y-82387328D01*
X169166206Y-82387335D01*
X169252452Y-82502544D01*
X169252455Y-82502547D01*
X169367664Y-82588793D01*
X169367671Y-82588797D01*
X169499082Y-82637810D01*
X169555016Y-82679681D01*
X169579433Y-82745145D01*
X169564582Y-82813418D01*
X169543431Y-82841673D01*
X169429889Y-82955215D01*
X169304951Y-83127179D01*
X169208444Y-83316585D01*
X169208443Y-83316587D01*
X169208443Y-83316588D01*
X169198793Y-83346287D01*
X169142753Y-83518760D01*
X169109500Y-83728713D01*
X169109500Y-83941286D01*
X169137772Y-84119792D01*
X169142754Y-84151243D01*
X169181374Y-84270104D01*
X169208444Y-84353414D01*
X169304951Y-84542820D01*
X169429890Y-84714786D01*
X169580213Y-84865109D01*
X169752182Y-84990050D01*
X169760946Y-84994516D01*
X169811742Y-85042491D01*
X169828536Y-85110312D01*
X169805998Y-85176447D01*
X169760946Y-85215484D01*
X169752182Y-85219949D01*
X169580213Y-85344890D01*
X169429890Y-85495213D01*
X169304951Y-85667179D01*
X169208444Y-85856585D01*
X169208443Y-85856587D01*
X169208443Y-85856588D01*
X169198793Y-85886287D01*
X169142753Y-86058760D01*
X169109500Y-86268713D01*
X169109500Y-86481286D01*
X169140910Y-86679604D01*
X169142754Y-86691243D01*
X169181374Y-86810104D01*
X169208444Y-86893414D01*
X169304951Y-87082820D01*
X169429890Y-87254786D01*
X169580213Y-87405109D01*
X169752182Y-87530050D01*
X169760946Y-87534516D01*
X169811742Y-87582491D01*
X169828536Y-87650312D01*
X169805998Y-87716447D01*
X169760946Y-87755484D01*
X169752182Y-87759949D01*
X169580213Y-87884890D01*
X169429890Y-88035213D01*
X169304951Y-88207179D01*
X169208444Y-88396585D01*
X169208443Y-88396587D01*
X169208443Y-88396588D01*
X169198793Y-88426287D01*
X169142753Y-88598760D01*
X169109500Y-88808713D01*
X169109500Y-89021286D01*
X169137772Y-89199792D01*
X169142754Y-89231243D01*
X169181374Y-89350104D01*
X169208444Y-89433414D01*
X169304951Y-89622820D01*
X169429890Y-89794786D01*
X169580213Y-89945109D01*
X169752182Y-90070050D01*
X169760946Y-90074516D01*
X169811742Y-90122491D01*
X169828536Y-90190312D01*
X169805998Y-90256447D01*
X169760946Y-90295484D01*
X169752182Y-90299949D01*
X169580213Y-90424890D01*
X169429890Y-90575213D01*
X169304951Y-90747179D01*
X169208444Y-90936585D01*
X169208443Y-90936587D01*
X169208443Y-90936588D01*
X169198793Y-90966287D01*
X169142753Y-91138760D01*
X169109500Y-91348713D01*
X169109500Y-91561286D01*
X169137772Y-91739792D01*
X169142754Y-91771243D01*
X169181374Y-91890104D01*
X169208444Y-91973414D01*
X169304951Y-92162820D01*
X169429890Y-92334786D01*
X169580213Y-92485109D01*
X169752179Y-92610048D01*
X169752181Y-92610049D01*
X169752184Y-92610051D01*
X169941588Y-92706557D01*
X170143757Y-92772246D01*
X170353713Y-92805500D01*
X170353714Y-92805500D01*
X170566286Y-92805500D01*
X170566287Y-92805500D01*
X170776243Y-92772246D01*
X170978412Y-92706557D01*
X171167816Y-92610051D01*
X171289675Y-92521516D01*
X171339786Y-92485109D01*
X171339788Y-92485106D01*
X171339792Y-92485104D01*
X171490104Y-92334792D01*
X171490106Y-92334788D01*
X171490109Y-92334786D01*
X171615048Y-92162820D01*
X171615047Y-92162820D01*
X171615051Y-92162816D01*
X171619514Y-92154054D01*
X171667488Y-92103259D01*
X171735308Y-92086463D01*
X171801444Y-92108999D01*
X171840486Y-92154056D01*
X171844951Y-92162820D01*
X171969890Y-92334786D01*
X172120213Y-92485109D01*
X172292179Y-92610048D01*
X172292181Y-92610049D01*
X172292184Y-92610051D01*
X172481588Y-92706557D01*
X172683757Y-92772246D01*
X172893713Y-92805500D01*
X172893714Y-92805500D01*
X173106286Y-92805500D01*
X173106287Y-92805500D01*
X173316243Y-92772246D01*
X173518412Y-92706557D01*
X173707816Y-92610051D01*
X173829675Y-92521516D01*
X173879786Y-92485109D01*
X173879788Y-92485106D01*
X173879792Y-92485104D01*
X174030104Y-92334792D01*
X174030106Y-92334788D01*
X174030109Y-92334786D01*
X174155048Y-92162820D01*
X174155047Y-92162820D01*
X174155051Y-92162816D01*
X174251557Y-91973412D01*
X174317246Y-91771243D01*
X174350500Y-91561287D01*
X174350500Y-91348713D01*
X174317246Y-91138757D01*
X174251557Y-90936588D01*
X174155051Y-90747184D01*
X174155049Y-90747181D01*
X174155048Y-90747179D01*
X174030109Y-90575213D01*
X173879786Y-90424890D01*
X173707820Y-90299951D01*
X173707115Y-90299591D01*
X173699054Y-90295485D01*
X173648259Y-90247512D01*
X173631463Y-90179692D01*
X173653999Y-90113556D01*
X173699054Y-90074515D01*
X173707816Y-90070051D01*
X173729789Y-90054086D01*
X173879786Y-89945109D01*
X173879788Y-89945106D01*
X173879792Y-89945104D01*
X174030104Y-89794792D01*
X174030106Y-89794788D01*
X174030109Y-89794786D01*
X174155048Y-89622820D01*
X174155047Y-89622820D01*
X174155051Y-89622816D01*
X174251557Y-89433412D01*
X174317246Y-89231243D01*
X174350500Y-89021287D01*
X174350500Y-88808713D01*
X174317246Y-88598757D01*
X174251557Y-88396588D01*
X174155051Y-88207184D01*
X174155049Y-88207181D01*
X174155048Y-88207179D01*
X174030109Y-88035213D01*
X173879786Y-87884890D01*
X173707820Y-87759951D01*
X173707115Y-87759591D01*
X173699054Y-87755485D01*
X173648259Y-87707512D01*
X173631463Y-87639692D01*
X173653999Y-87573556D01*
X173699054Y-87534515D01*
X173707816Y-87530051D01*
X173729789Y-87514086D01*
X173879786Y-87405109D01*
X173879788Y-87405106D01*
X173879792Y-87405104D01*
X174030104Y-87254792D01*
X174030106Y-87254788D01*
X174030109Y-87254786D01*
X174155048Y-87082820D01*
X174155047Y-87082820D01*
X174155051Y-87082816D01*
X174251557Y-86893412D01*
X174317246Y-86691243D01*
X174350500Y-86481287D01*
X174350500Y-86268713D01*
X174317246Y-86058757D01*
X174251557Y-85856588D01*
X174155051Y-85667184D01*
X174155049Y-85667181D01*
X174155048Y-85667179D01*
X174030109Y-85495213D01*
X173879786Y-85344890D01*
X173707820Y-85219951D01*
X173707115Y-85219591D01*
X173699054Y-85215485D01*
X173648259Y-85167512D01*
X173631463Y-85099692D01*
X173653999Y-85033556D01*
X173699054Y-84994515D01*
X173707816Y-84990051D01*
X173729789Y-84974086D01*
X173879786Y-84865109D01*
X173879788Y-84865106D01*
X173879792Y-84865104D01*
X174030104Y-84714792D01*
X174030106Y-84714788D01*
X174030109Y-84714786D01*
X174155048Y-84542820D01*
X174155047Y-84542820D01*
X174155051Y-84542816D01*
X174251557Y-84353412D01*
X174317246Y-84151243D01*
X174350500Y-83941287D01*
X174350500Y-83728713D01*
X174317246Y-83518757D01*
X174251557Y-83316588D01*
X174155051Y-83127184D01*
X174155049Y-83127181D01*
X174155048Y-83127179D01*
X174030109Y-82955213D01*
X173879786Y-82804890D01*
X173707820Y-82679951D01*
X173707115Y-82679591D01*
X173699054Y-82675485D01*
X173648259Y-82627512D01*
X173631463Y-82559692D01*
X173653999Y-82493556D01*
X173699054Y-82454515D01*
X173707816Y-82450051D01*
X173794138Y-82387335D01*
X173879786Y-82325109D01*
X173879788Y-82325106D01*
X173879792Y-82325104D01*
X174030104Y-82174792D01*
X174030106Y-82174788D01*
X174030109Y-82174786D01*
X174155048Y-82002820D01*
X174155047Y-82002820D01*
X174155051Y-82002816D01*
X174251557Y-81813412D01*
X174317246Y-81611243D01*
X174350500Y-81401287D01*
X174350500Y-81188713D01*
X174317246Y-80978757D01*
X174251557Y-80776588D01*
X174155051Y-80587184D01*
X174155049Y-80587181D01*
X174155048Y-80587179D01*
X174030109Y-80415213D01*
X173879786Y-80264890D01*
X173707820Y-80139951D01*
X173518414Y-80043444D01*
X173518413Y-80043443D01*
X173518412Y-80043443D01*
X173316243Y-79977754D01*
X173316241Y-79977753D01*
X173316240Y-79977753D01*
X173154957Y-79952208D01*
X173106287Y-79944500D01*
X172893713Y-79944500D01*
X172845042Y-79952208D01*
X172683760Y-79977753D01*
X172481585Y-80043444D01*
X172292179Y-80139951D01*
X172120215Y-80264889D01*
X172006673Y-80378431D01*
X171945350Y-80411915D01*
X171875658Y-80406931D01*
X171819725Y-80365059D01*
X171802810Y-80334082D01*
X171753797Y-80202671D01*
X171753793Y-80202664D01*
X171667547Y-80087455D01*
X171667544Y-80087452D01*
X171552335Y-80001206D01*
X171552328Y-80001202D01*
X171417482Y-79950908D01*
X171417483Y-79950908D01*
X171357883Y-79944501D01*
X171357881Y-79944500D01*
X171357873Y-79944500D01*
X171357864Y-79944500D01*
X169562129Y-79944500D01*
X169562123Y-79944501D01*
X169502516Y-79950908D01*
X169367671Y-80001202D01*
X169367664Y-80001206D01*
X169252455Y-80087452D01*
X169252452Y-80087455D01*
X169166206Y-80202664D01*
X169166202Y-80202671D01*
X169115908Y-80337517D01*
X169109501Y-80397116D01*
X169109500Y-80397135D01*
X164500500Y-80397135D01*
X164500500Y-78554604D01*
X164509939Y-78507151D01*
X164519737Y-78483497D01*
X164550500Y-78328842D01*
X164550500Y-78171158D01*
X164550500Y-78171155D01*
X164550499Y-78171153D01*
X164519737Y-78016503D01*
X164519735Y-78016498D01*
X164459397Y-77870827D01*
X164459390Y-77870814D01*
X164371789Y-77739711D01*
X164371786Y-77739707D01*
X164260292Y-77628213D01*
X164260288Y-77628210D01*
X164129185Y-77540609D01*
X164129172Y-77540602D01*
X163983501Y-77480264D01*
X163983489Y-77480261D01*
X163828845Y-77449500D01*
X163828842Y-77449500D01*
X163671158Y-77449500D01*
X163671155Y-77449500D01*
X163516510Y-77480261D01*
X163516498Y-77480264D01*
X163370827Y-77540602D01*
X163370814Y-77540609D01*
X163239711Y-77628210D01*
X163239707Y-77628213D01*
X163128213Y-77739707D01*
X163128210Y-77739711D01*
X163040609Y-77870814D01*
X163040602Y-77870827D01*
X162980264Y-78016498D01*
X162980261Y-78016510D01*
X162949500Y-78171153D01*
X162949500Y-78328846D01*
X162980261Y-78483489D01*
X162980263Y-78483497D01*
X162990061Y-78507151D01*
X162999500Y-78554604D01*
X162999500Y-89458771D01*
X162979815Y-89525810D01*
X162927011Y-89571565D01*
X162857853Y-89581509D01*
X162794297Y-89552484D01*
X162787819Y-89546452D01*
X161870174Y-88628807D01*
X161836689Y-88567484D01*
X161835382Y-88521733D01*
X161850500Y-88426287D01*
X161850500Y-88213713D01*
X161817246Y-88003757D01*
X161751557Y-87801588D01*
X161655051Y-87612184D01*
X161655049Y-87612181D01*
X161655048Y-87612179D01*
X161530109Y-87440213D01*
X161379786Y-87289890D01*
X161207820Y-87164951D01*
X161207115Y-87164591D01*
X161199054Y-87160485D01*
X161148259Y-87112512D01*
X161131463Y-87044692D01*
X161153999Y-86978556D01*
X161199054Y-86939515D01*
X161207816Y-86935051D01*
X161265128Y-86893412D01*
X161379786Y-86810109D01*
X161379788Y-86810106D01*
X161379792Y-86810104D01*
X161530104Y-86659792D01*
X161530106Y-86659788D01*
X161530109Y-86659786D01*
X161655048Y-86487820D01*
X161655047Y-86487820D01*
X161655051Y-86487816D01*
X161751557Y-86298412D01*
X161817246Y-86096243D01*
X161850500Y-85886287D01*
X161850500Y-85673713D01*
X161817246Y-85463757D01*
X161751557Y-85261588D01*
X161655051Y-85072184D01*
X161655049Y-85072181D01*
X161655048Y-85072179D01*
X161530109Y-84900213D01*
X161379786Y-84749890D01*
X161207820Y-84624951D01*
X161207115Y-84624591D01*
X161199054Y-84620485D01*
X161148259Y-84572512D01*
X161131463Y-84504692D01*
X161153999Y-84438556D01*
X161199054Y-84399515D01*
X161207816Y-84395051D01*
X161265128Y-84353412D01*
X161379786Y-84270109D01*
X161379788Y-84270106D01*
X161379792Y-84270104D01*
X161530104Y-84119792D01*
X161530106Y-84119788D01*
X161530109Y-84119786D01*
X161655048Y-83947820D01*
X161655047Y-83947820D01*
X161655051Y-83947816D01*
X161751557Y-83758412D01*
X161817246Y-83556243D01*
X161850500Y-83346287D01*
X161850500Y-83133713D01*
X161817246Y-82923757D01*
X161785197Y-82825123D01*
X161783203Y-82755283D01*
X161819283Y-82695450D01*
X161881984Y-82664622D01*
X161903129Y-82662806D01*
X162500000Y-82662806D01*
X162500000Y-68562135D01*
X169149500Y-68562135D01*
X169149500Y-70357870D01*
X169149501Y-70357876D01*
X169155908Y-70417483D01*
X169206202Y-70552328D01*
X169206206Y-70552335D01*
X169292452Y-70667544D01*
X169292455Y-70667547D01*
X169407664Y-70753793D01*
X169407671Y-70753797D01*
X169539082Y-70802810D01*
X169595016Y-70844681D01*
X169619433Y-70910145D01*
X169604582Y-70978418D01*
X169583431Y-71006673D01*
X169469889Y-71120215D01*
X169344951Y-71292179D01*
X169248444Y-71481585D01*
X169182753Y-71683760D01*
X169149500Y-71893713D01*
X169149500Y-72106286D01*
X169164376Y-72200213D01*
X169182754Y-72316243D01*
X169200930Y-72372184D01*
X169248444Y-72518414D01*
X169344951Y-72707820D01*
X169469890Y-72879786D01*
X169620213Y-73030109D01*
X169792182Y-73155050D01*
X169800946Y-73159516D01*
X169851742Y-73207491D01*
X169868536Y-73275312D01*
X169845998Y-73341447D01*
X169800946Y-73380484D01*
X169792182Y-73384949D01*
X169620213Y-73509890D01*
X169469890Y-73660213D01*
X169344951Y-73832179D01*
X169248444Y-74021585D01*
X169182753Y-74223760D01*
X169149500Y-74433713D01*
X169149500Y-74646286D01*
X169164376Y-74740213D01*
X169182754Y-74856243D01*
X169200930Y-74912184D01*
X169248444Y-75058414D01*
X169344951Y-75247820D01*
X169469890Y-75419786D01*
X169620213Y-75570109D01*
X169792179Y-75695048D01*
X169792181Y-75695049D01*
X169792184Y-75695051D01*
X169981588Y-75791557D01*
X170183757Y-75857246D01*
X170393713Y-75890500D01*
X170393714Y-75890500D01*
X170606286Y-75890500D01*
X170606287Y-75890500D01*
X170816243Y-75857246D01*
X171018412Y-75791557D01*
X171207816Y-75695051D01*
X171234726Y-75675500D01*
X171379786Y-75570109D01*
X171379788Y-75570106D01*
X171379792Y-75570104D01*
X171530104Y-75419792D01*
X171530106Y-75419788D01*
X171530109Y-75419786D01*
X171655048Y-75247820D01*
X171655047Y-75247820D01*
X171655051Y-75247816D01*
X171751557Y-75058412D01*
X171817246Y-74856243D01*
X171850500Y-74646287D01*
X171850500Y-74433713D01*
X171817246Y-74223757D01*
X171751557Y-74021588D01*
X171655051Y-73832184D01*
X171655049Y-73832181D01*
X171655048Y-73832179D01*
X171530109Y-73660213D01*
X171379786Y-73509890D01*
X171207820Y-73384951D01*
X171207115Y-73384591D01*
X171199054Y-73380485D01*
X171148259Y-73332512D01*
X171131463Y-73264692D01*
X171153999Y-73198556D01*
X171199054Y-73159515D01*
X171207816Y-73155051D01*
X171229789Y-73139086D01*
X171379786Y-73030109D01*
X171379788Y-73030106D01*
X171379792Y-73030104D01*
X171530104Y-72879792D01*
X171530106Y-72879788D01*
X171530109Y-72879786D01*
X171655048Y-72707820D01*
X171655047Y-72707820D01*
X171655051Y-72707816D01*
X171751557Y-72518412D01*
X171817246Y-72316243D01*
X171850500Y-72106287D01*
X171850500Y-71893713D01*
X171817246Y-71683757D01*
X171751557Y-71481588D01*
X171655051Y-71292184D01*
X171655049Y-71292181D01*
X171655048Y-71292179D01*
X171530109Y-71120213D01*
X171416569Y-71006673D01*
X171383084Y-70945350D01*
X171388068Y-70875658D01*
X171429940Y-70819725D01*
X171460915Y-70802810D01*
X171592331Y-70753796D01*
X171707546Y-70667546D01*
X171793796Y-70552331D01*
X171844091Y-70417483D01*
X171850500Y-70357873D01*
X171850499Y-68562128D01*
X171844091Y-68502517D01*
X171843152Y-68500000D01*
X171793797Y-68367671D01*
X171793793Y-68367664D01*
X171707547Y-68252455D01*
X171707544Y-68252452D01*
X171592335Y-68166206D01*
X171592328Y-68166202D01*
X171457482Y-68115908D01*
X171457483Y-68115908D01*
X171397883Y-68109501D01*
X171397881Y-68109500D01*
X171397873Y-68109500D01*
X171397864Y-68109500D01*
X169602129Y-68109500D01*
X169602123Y-68109501D01*
X169542516Y-68115908D01*
X169407671Y-68166202D01*
X169407664Y-68166206D01*
X169292455Y-68252452D01*
X169292452Y-68252455D01*
X169206206Y-68367664D01*
X169206202Y-68367671D01*
X169155908Y-68502517D01*
X169149501Y-68562116D01*
X169149501Y-68562123D01*
X169149500Y-68562135D01*
X162500000Y-68562135D01*
X162500000Y-66662806D01*
X161496918Y-66662806D01*
X161465191Y-66657081D01*
X161464930Y-66658187D01*
X161457372Y-66656401D01*
X161397844Y-66650000D01*
X160730452Y-66650000D01*
X160712190Y-66659972D01*
X160685832Y-66662806D01*
X160314168Y-66662806D01*
X160270556Y-66650000D01*
X159602155Y-66650000D01*
X159542627Y-66656401D01*
X159535070Y-66658187D01*
X159534808Y-66657081D01*
X159503082Y-66662806D01*
X156100054Y-66662806D01*
X156080656Y-66661279D01*
X156054151Y-66657081D01*
X156006287Y-66649500D01*
X155793713Y-66649500D01*
X155745849Y-66657081D01*
X155719344Y-66661279D01*
X155699946Y-66662806D01*
X153560054Y-66662806D01*
X153540656Y-66661279D01*
X153514151Y-66657081D01*
X153466287Y-66649500D01*
X153253713Y-66649500D01*
X153205849Y-66657081D01*
X153179344Y-66661279D01*
X153159946Y-66662806D01*
X151020054Y-66662806D01*
X151000656Y-66661279D01*
X150974151Y-66657081D01*
X150926287Y-66649500D01*
X150713713Y-66649500D01*
X150665849Y-66657081D01*
X150639344Y-66661279D01*
X150619946Y-66662806D01*
X148480054Y-66662806D01*
X148460656Y-66661279D01*
X148434151Y-66657081D01*
X148386287Y-66649500D01*
X148173713Y-66649500D01*
X148125849Y-66657081D01*
X148099344Y-66661279D01*
X148079946Y-66662806D01*
X146500000Y-66662806D01*
X146500000Y-66669188D01*
X146480315Y-66736227D01*
X146427511Y-66781982D01*
X146358353Y-66791926D01*
X146319705Y-66779673D01*
X146258414Y-66748444D01*
X146258413Y-66748443D01*
X146258412Y-66748443D01*
X146056243Y-66682754D01*
X146056241Y-66682753D01*
X146056240Y-66682753D01*
X145889858Y-66656401D01*
X145846287Y-66649500D01*
X145633713Y-66649500D01*
X145590142Y-66656401D01*
X145423760Y-66682753D01*
X145221585Y-66748444D01*
X145032179Y-66844951D01*
X144860213Y-66969890D01*
X144709890Y-67120213D01*
X144584949Y-67292182D01*
X144580484Y-67300946D01*
X144532509Y-67351742D01*
X144464688Y-67368536D01*
X144398553Y-67345998D01*
X144359516Y-67300946D01*
X144355050Y-67292182D01*
X144230109Y-67120213D01*
X144079786Y-66969890D01*
X143907820Y-66844951D01*
X143718414Y-66748444D01*
X143718413Y-66748443D01*
X143718412Y-66748443D01*
X143516243Y-66682754D01*
X143516241Y-66682753D01*
X143516240Y-66682753D01*
X143349858Y-66656401D01*
X143306287Y-66649500D01*
X143093713Y-66649500D01*
X143050142Y-66656401D01*
X142883760Y-66682753D01*
X142681585Y-66748444D01*
X142492179Y-66844951D01*
X142320213Y-66969890D01*
X142169890Y-67120213D01*
X142044949Y-67292182D01*
X142040484Y-67300946D01*
X141992509Y-67351742D01*
X141924688Y-67368536D01*
X141858553Y-67345998D01*
X141819516Y-67300946D01*
X141815050Y-67292182D01*
X141690109Y-67120213D01*
X141539786Y-66969890D01*
X141367820Y-66844951D01*
X141178414Y-66748444D01*
X141178413Y-66748443D01*
X141178412Y-66748443D01*
X140976243Y-66682754D01*
X140976241Y-66682753D01*
X140976240Y-66682753D01*
X140809858Y-66656401D01*
X140766287Y-66649500D01*
X140553713Y-66649500D01*
X140510142Y-66656401D01*
X140343760Y-66682753D01*
X140141585Y-66748444D01*
X139952179Y-66844951D01*
X139780213Y-66969890D01*
X139629890Y-67120213D01*
X139504949Y-67292182D01*
X139500484Y-67300946D01*
X139452509Y-67351742D01*
X139384688Y-67368536D01*
X139318553Y-67345998D01*
X139279516Y-67300946D01*
X139275050Y-67292182D01*
X139150109Y-67120213D01*
X138999786Y-66969890D01*
X138827820Y-66844951D01*
X138638414Y-66748444D01*
X138638413Y-66748443D01*
X138638412Y-66748443D01*
X138436243Y-66682754D01*
X138436241Y-66682753D01*
X138436240Y-66682753D01*
X138269858Y-66656401D01*
X138226287Y-66649500D01*
X138013713Y-66649500D01*
X137970142Y-66656401D01*
X137803760Y-66682753D01*
X137601585Y-66748444D01*
X137412179Y-66844951D01*
X137240213Y-66969890D01*
X137089890Y-67120213D01*
X136964949Y-67292182D01*
X136960484Y-67300946D01*
X136912509Y-67351742D01*
X136844688Y-67368536D01*
X136778553Y-67345998D01*
X136739516Y-67300946D01*
X136735050Y-67292182D01*
X136610109Y-67120213D01*
X136459786Y-66969890D01*
X136287820Y-66844951D01*
X136098414Y-66748444D01*
X136098413Y-66748443D01*
X136098412Y-66748443D01*
X135896243Y-66682754D01*
X135896241Y-66682753D01*
X135896240Y-66682753D01*
X135729858Y-66656401D01*
X135686287Y-66649500D01*
X135473713Y-66649500D01*
X135430142Y-66656401D01*
X135263760Y-66682753D01*
X135061585Y-66748444D01*
X134872179Y-66844951D01*
X134700213Y-66969890D01*
X134549890Y-67120213D01*
X134424949Y-67292182D01*
X134420484Y-67300946D01*
X134372509Y-67351742D01*
X134304688Y-67368536D01*
X134238553Y-67345998D01*
X134199516Y-67300946D01*
X134195050Y-67292182D01*
X134070109Y-67120213D01*
X133919786Y-66969890D01*
X133747820Y-66844951D01*
X133558414Y-66748444D01*
X133558413Y-66748443D01*
X133558412Y-66748443D01*
X133356243Y-66682754D01*
X133356241Y-66682753D01*
X133356240Y-66682753D01*
X133189858Y-66656401D01*
X133146287Y-66649500D01*
X132933713Y-66649500D01*
X132890142Y-66656401D01*
X132723760Y-66682753D01*
X132521585Y-66748444D01*
X132332179Y-66844951D01*
X132160213Y-66969890D01*
X132009890Y-67120213D01*
X131884949Y-67292182D01*
X131880484Y-67300946D01*
X131832509Y-67351742D01*
X131764688Y-67368536D01*
X131698553Y-67345998D01*
X131659516Y-67300946D01*
X131655050Y-67292182D01*
X131530109Y-67120213D01*
X131379786Y-66969890D01*
X131207820Y-66844951D01*
X131018414Y-66748444D01*
X131018413Y-66748443D01*
X131018412Y-66748443D01*
X130816243Y-66682754D01*
X130816241Y-66682753D01*
X130816240Y-66682753D01*
X130649858Y-66656401D01*
X130606287Y-66649500D01*
X130393713Y-66649500D01*
X130350142Y-66656401D01*
X130183760Y-66682753D01*
X129981585Y-66748444D01*
X129792179Y-66844951D01*
X129620215Y-66969889D01*
X129506673Y-67083431D01*
X129445350Y-67116915D01*
X129375658Y-67111931D01*
X129319725Y-67070059D01*
X129302810Y-67039082D01*
X129253797Y-66907671D01*
X129253793Y-66907664D01*
X129167547Y-66792455D01*
X129167544Y-66792452D01*
X129052335Y-66706206D01*
X129052328Y-66706202D01*
X128917482Y-66655908D01*
X128917483Y-66655908D01*
X128857883Y-66649501D01*
X128857881Y-66649500D01*
X128857873Y-66649500D01*
X128857864Y-66649500D01*
X127062129Y-66649500D01*
X127062123Y-66649501D01*
X127002516Y-66655908D01*
X126867671Y-66706202D01*
X126867664Y-66706206D01*
X126752455Y-66792452D01*
X126752452Y-66792455D01*
X126666206Y-66907664D01*
X126666202Y-66907671D01*
X126615908Y-67042517D01*
X126611510Y-67083431D01*
X126609501Y-67102123D01*
X126609500Y-67102135D01*
X126609500Y-68897870D01*
X126609501Y-68897876D01*
X126615908Y-68957483D01*
X126666202Y-69092328D01*
X126666206Y-69092335D01*
X126752452Y-69207544D01*
X126752455Y-69207547D01*
X126867664Y-69293793D01*
X126867671Y-69293797D01*
X127002517Y-69344091D01*
X127002516Y-69344091D01*
X127009444Y-69344835D01*
X127062127Y-69350500D01*
X128857872Y-69350499D01*
X128917483Y-69344091D01*
X129052331Y-69293796D01*
X129167546Y-69207546D01*
X129253796Y-69092331D01*
X129302810Y-68960916D01*
X129344681Y-68904984D01*
X129410145Y-68880566D01*
X129478418Y-68895417D01*
X129506673Y-68916569D01*
X129620213Y-69030109D01*
X129792179Y-69155048D01*
X129792181Y-69155049D01*
X129792184Y-69155051D01*
X129981588Y-69251557D01*
X130183757Y-69317246D01*
X130393713Y-69350500D01*
X130393714Y-69350500D01*
X130606286Y-69350500D01*
X130606287Y-69350500D01*
X130816243Y-69317246D01*
X131018412Y-69251557D01*
X131207816Y-69155051D01*
X131294138Y-69092335D01*
X131379786Y-69030109D01*
X131379788Y-69030106D01*
X131379792Y-69030104D01*
X131530104Y-68879792D01*
X131530106Y-68879788D01*
X131530109Y-68879786D01*
X131655048Y-68707820D01*
X131655047Y-68707820D01*
X131655051Y-68707816D01*
X131659514Y-68699054D01*
X131707488Y-68648259D01*
X131775308Y-68631463D01*
X131841444Y-68653999D01*
X131880486Y-68699056D01*
X131884951Y-68707820D01*
X132009890Y-68879786D01*
X132160213Y-69030109D01*
X132332179Y-69155048D01*
X132332181Y-69155049D01*
X132332184Y-69155051D01*
X132521588Y-69251557D01*
X132723757Y-69317246D01*
X132933713Y-69350500D01*
X132933714Y-69350500D01*
X133146286Y-69350500D01*
X133146287Y-69350500D01*
X133356243Y-69317246D01*
X133558412Y-69251557D01*
X133747816Y-69155051D01*
X133834138Y-69092335D01*
X133919786Y-69030109D01*
X133919788Y-69030106D01*
X133919792Y-69030104D01*
X134070104Y-68879792D01*
X134070106Y-68879788D01*
X134070109Y-68879786D01*
X134195048Y-68707820D01*
X134195047Y-68707820D01*
X134195051Y-68707816D01*
X134199514Y-68699054D01*
X134247488Y-68648259D01*
X134315308Y-68631463D01*
X134381444Y-68653999D01*
X134420486Y-68699056D01*
X134424951Y-68707820D01*
X134549890Y-68879786D01*
X134700213Y-69030109D01*
X134872179Y-69155048D01*
X134872181Y-69155049D01*
X134872184Y-69155051D01*
X135061588Y-69251557D01*
X135263757Y-69317246D01*
X135473713Y-69350500D01*
X135473714Y-69350500D01*
X135686286Y-69350500D01*
X135686287Y-69350500D01*
X135896243Y-69317246D01*
X136098412Y-69251557D01*
X136287816Y-69155051D01*
X136374138Y-69092335D01*
X136459786Y-69030109D01*
X136459788Y-69030106D01*
X136459792Y-69030104D01*
X136610104Y-68879792D01*
X136610106Y-68879788D01*
X136610109Y-68879786D01*
X136735048Y-68707820D01*
X136735047Y-68707820D01*
X136735051Y-68707816D01*
X136739514Y-68699054D01*
X136787488Y-68648259D01*
X136855308Y-68631463D01*
X136921444Y-68653999D01*
X136960486Y-68699056D01*
X136964951Y-68707820D01*
X137089890Y-68879786D01*
X137240213Y-69030109D01*
X137412179Y-69155048D01*
X137412181Y-69155049D01*
X137412184Y-69155051D01*
X137601588Y-69251557D01*
X137803757Y-69317246D01*
X138013713Y-69350500D01*
X138013714Y-69350500D01*
X138226286Y-69350500D01*
X138226287Y-69350500D01*
X138436243Y-69317246D01*
X138638412Y-69251557D01*
X138827816Y-69155051D01*
X138914138Y-69092335D01*
X138999786Y-69030109D01*
X138999788Y-69030106D01*
X138999792Y-69030104D01*
X139150104Y-68879792D01*
X139150106Y-68879788D01*
X139150109Y-68879786D01*
X139275048Y-68707820D01*
X139275047Y-68707820D01*
X139275051Y-68707816D01*
X139279514Y-68699054D01*
X139327488Y-68648259D01*
X139395308Y-68631463D01*
X139461444Y-68653999D01*
X139500486Y-68699056D01*
X139504951Y-68707820D01*
X139629890Y-68879786D01*
X139780213Y-69030109D01*
X139952179Y-69155048D01*
X139952181Y-69155049D01*
X139952184Y-69155051D01*
X140141588Y-69251557D01*
X140343757Y-69317246D01*
X140553713Y-69350500D01*
X140553714Y-69350500D01*
X140766286Y-69350500D01*
X140766287Y-69350500D01*
X140976243Y-69317246D01*
X141178412Y-69251557D01*
X141367816Y-69155051D01*
X141454138Y-69092335D01*
X141539786Y-69030109D01*
X141539788Y-69030106D01*
X141539792Y-69030104D01*
X141690104Y-68879792D01*
X141690106Y-68879788D01*
X141690109Y-68879786D01*
X141815048Y-68707820D01*
X141815047Y-68707820D01*
X141815051Y-68707816D01*
X141819514Y-68699054D01*
X141867488Y-68648259D01*
X141935308Y-68631463D01*
X142001444Y-68653999D01*
X142040486Y-68699056D01*
X142044951Y-68707820D01*
X142169890Y-68879786D01*
X142320213Y-69030109D01*
X142492179Y-69155048D01*
X142492181Y-69155049D01*
X142492184Y-69155051D01*
X142681588Y-69251557D01*
X142883757Y-69317246D01*
X143093713Y-69350500D01*
X143093714Y-69350500D01*
X143306286Y-69350500D01*
X143306287Y-69350500D01*
X143516243Y-69317246D01*
X143718412Y-69251557D01*
X143907816Y-69155051D01*
X143994138Y-69092335D01*
X144079786Y-69030109D01*
X144079788Y-69030106D01*
X144079792Y-69030104D01*
X144230104Y-68879792D01*
X144230106Y-68879788D01*
X144230109Y-68879786D01*
X144355048Y-68707820D01*
X144355047Y-68707820D01*
X144355051Y-68707816D01*
X144359514Y-68699054D01*
X144407488Y-68648259D01*
X144475308Y-68631463D01*
X144541444Y-68653999D01*
X144580486Y-68699056D01*
X144584951Y-68707820D01*
X144709890Y-68879786D01*
X144860213Y-69030109D01*
X145032179Y-69155048D01*
X145032181Y-69155049D01*
X145032184Y-69155051D01*
X145221588Y-69251557D01*
X145423757Y-69317246D01*
X145633713Y-69350500D01*
X145633714Y-69350500D01*
X145846286Y-69350500D01*
X145846287Y-69350500D01*
X146056243Y-69317246D01*
X146258412Y-69251557D01*
X146319704Y-69220326D01*
X146388373Y-69207430D01*
X146453114Y-69233706D01*
X146493371Y-69290812D01*
X146500000Y-69330811D01*
X146500000Y-75675500D01*
X146480315Y-75742539D01*
X146427511Y-75788294D01*
X146376000Y-75799500D01*
X130374500Y-75799500D01*
X130307461Y-75779815D01*
X130261706Y-75727011D01*
X130250500Y-75675500D01*
X130250500Y-73926079D01*
X130221659Y-73781092D01*
X130221658Y-73781091D01*
X130221658Y-73781087D01*
X130221656Y-73781082D01*
X130165087Y-73644511D01*
X130165080Y-73644498D01*
X130082952Y-73521585D01*
X130071257Y-73509890D01*
X129978416Y-73417049D01*
X127437025Y-70875658D01*
X124886818Y-68325450D01*
X124853333Y-68264127D01*
X124850499Y-68237769D01*
X124850499Y-67102129D01*
X124850498Y-67102123D01*
X124850497Y-67102116D01*
X124844091Y-67042517D01*
X124793796Y-66907669D01*
X124793795Y-66907668D01*
X124793793Y-66907664D01*
X124707547Y-66792455D01*
X124707544Y-66792452D01*
X124592335Y-66706206D01*
X124592328Y-66706202D01*
X124457482Y-66655908D01*
X124457483Y-66655908D01*
X124397883Y-66649501D01*
X124397881Y-66649500D01*
X124397873Y-66649500D01*
X124397864Y-66649500D01*
X122602129Y-66649500D01*
X122602123Y-66649501D01*
X122542516Y-66655908D01*
X122407671Y-66706202D01*
X122407664Y-66706206D01*
X122292455Y-66792452D01*
X122292452Y-66792455D01*
X122206206Y-66907664D01*
X122206202Y-66907671D01*
X122155908Y-67042517D01*
X122151510Y-67083431D01*
X122149501Y-67102123D01*
X122149500Y-67102135D01*
X116500000Y-67102135D01*
X116500000Y-62551362D01*
X116519685Y-62484323D01*
X116536319Y-62463681D01*
X116549148Y-62450852D01*
X119463683Y-59536316D01*
X119525004Y-59502833D01*
X119551352Y-59499999D01*
X175953857Y-59499999D01*
X176020896Y-59519684D01*
G37*
G04 #@! TD.AperFunction*
M02*
