G04 #@! TF.GenerationSoftware,KiCad,Pcbnew,10.0.3*
G04 #@! TF.CreationDate,2026-06-22T12:30:59+02:00*
G04 #@! TF.ProjectId,vocore2-breakout,766f636f-7265-4322-9d62-7265616b6f75,rev?*
G04 #@! TF.SameCoordinates,Original*
G04 #@! TF.FileFunction,Legend,Bot*
G04 #@! TF.FilePolarity,Positive*
%FSLAX46Y46*%
G04 Gerber Fmt 4.6, Leading zero omitted, Abs format (unit mm)*
G04 Created by KiCad (PCBNEW 10.0.3) date 2026-06-22 12:30:59*
%MOMM*%
%LPD*%
G01*
G04 APERTURE LIST*
%ADD10C,0.150000*%
%ADD11R,1.700000X1.700000*%
%ADD12C,1.700000*%
%ADD13C,5.600000*%
%ADD14R,1.000000X1.000000*%
%ADD15C,1.000000*%
G04 APERTURE END LIST*
D10*
X162306077Y-60344875D02*
X161972744Y-61344875D01*
X161972744Y-61344875D02*
X161639411Y-60344875D01*
X161163220Y-61344875D02*
X161258458Y-61297256D01*
X161258458Y-61297256D02*
X161306077Y-61249636D01*
X161306077Y-61249636D02*
X161353696Y-61154398D01*
X161353696Y-61154398D02*
X161353696Y-60868684D01*
X161353696Y-60868684D02*
X161306077Y-60773446D01*
X161306077Y-60773446D02*
X161258458Y-60725827D01*
X161258458Y-60725827D02*
X161163220Y-60678208D01*
X161163220Y-60678208D02*
X161020363Y-60678208D01*
X161020363Y-60678208D02*
X160925125Y-60725827D01*
X160925125Y-60725827D02*
X160877506Y-60773446D01*
X160877506Y-60773446D02*
X160829887Y-60868684D01*
X160829887Y-60868684D02*
X160829887Y-61154398D01*
X160829887Y-61154398D02*
X160877506Y-61249636D01*
X160877506Y-61249636D02*
X160925125Y-61297256D01*
X160925125Y-61297256D02*
X161020363Y-61344875D01*
X161020363Y-61344875D02*
X161163220Y-61344875D01*
X159829887Y-61249636D02*
X159877506Y-61297256D01*
X159877506Y-61297256D02*
X160020363Y-61344875D01*
X160020363Y-61344875D02*
X160115601Y-61344875D01*
X160115601Y-61344875D02*
X160258458Y-61297256D01*
X160258458Y-61297256D02*
X160353696Y-61202017D01*
X160353696Y-61202017D02*
X160401315Y-61106779D01*
X160401315Y-61106779D02*
X160448934Y-60916303D01*
X160448934Y-60916303D02*
X160448934Y-60773446D01*
X160448934Y-60773446D02*
X160401315Y-60582970D01*
X160401315Y-60582970D02*
X160353696Y-60487732D01*
X160353696Y-60487732D02*
X160258458Y-60392494D01*
X160258458Y-60392494D02*
X160115601Y-60344875D01*
X160115601Y-60344875D02*
X160020363Y-60344875D01*
X160020363Y-60344875D02*
X159877506Y-60392494D01*
X159877506Y-60392494D02*
X159829887Y-60440113D01*
X159258458Y-61344875D02*
X159353696Y-61297256D01*
X159353696Y-61297256D02*
X159401315Y-61249636D01*
X159401315Y-61249636D02*
X159448934Y-61154398D01*
X159448934Y-61154398D02*
X159448934Y-60868684D01*
X159448934Y-60868684D02*
X159401315Y-60773446D01*
X159401315Y-60773446D02*
X159353696Y-60725827D01*
X159353696Y-60725827D02*
X159258458Y-60678208D01*
X159258458Y-60678208D02*
X159115601Y-60678208D01*
X159115601Y-60678208D02*
X159020363Y-60725827D01*
X159020363Y-60725827D02*
X158972744Y-60773446D01*
X158972744Y-60773446D02*
X158925125Y-60868684D01*
X158925125Y-60868684D02*
X158925125Y-61154398D01*
X158925125Y-61154398D02*
X158972744Y-61249636D01*
X158972744Y-61249636D02*
X159020363Y-61297256D01*
X159020363Y-61297256D02*
X159115601Y-61344875D01*
X159115601Y-61344875D02*
X159258458Y-61344875D01*
X158496553Y-61344875D02*
X158496553Y-60678208D01*
X158496553Y-60868684D02*
X158448934Y-60773446D01*
X158448934Y-60773446D02*
X158401315Y-60725827D01*
X158401315Y-60725827D02*
X158306077Y-60678208D01*
X158306077Y-60678208D02*
X158210839Y-60678208D01*
X157496553Y-61297256D02*
X157591791Y-61344875D01*
X157591791Y-61344875D02*
X157782267Y-61344875D01*
X157782267Y-61344875D02*
X157877505Y-61297256D01*
X157877505Y-61297256D02*
X157925124Y-61202017D01*
X157925124Y-61202017D02*
X157925124Y-60821065D01*
X157925124Y-60821065D02*
X157877505Y-60725827D01*
X157877505Y-60725827D02*
X157782267Y-60678208D01*
X157782267Y-60678208D02*
X157591791Y-60678208D01*
X157591791Y-60678208D02*
X157496553Y-60725827D01*
X157496553Y-60725827D02*
X157448934Y-60821065D01*
X157448934Y-60821065D02*
X157448934Y-60916303D01*
X157448934Y-60916303D02*
X157925124Y-61011541D01*
X156306076Y-60440113D02*
X156258457Y-60392494D01*
X156258457Y-60392494D02*
X156163219Y-60344875D01*
X156163219Y-60344875D02*
X155925124Y-60344875D01*
X155925124Y-60344875D02*
X155829886Y-60392494D01*
X155829886Y-60392494D02*
X155782267Y-60440113D01*
X155782267Y-60440113D02*
X155734648Y-60535351D01*
X155734648Y-60535351D02*
X155734648Y-60630589D01*
X155734648Y-60630589D02*
X155782267Y-60773446D01*
X155782267Y-60773446D02*
X156353695Y-61344875D01*
X156353695Y-61344875D02*
X155734648Y-61344875D01*
X154210838Y-60821065D02*
X154067981Y-60868684D01*
X154067981Y-60868684D02*
X154020362Y-60916303D01*
X154020362Y-60916303D02*
X153972743Y-61011541D01*
X153972743Y-61011541D02*
X153972743Y-61154398D01*
X153972743Y-61154398D02*
X154020362Y-61249636D01*
X154020362Y-61249636D02*
X154067981Y-61297256D01*
X154067981Y-61297256D02*
X154163219Y-61344875D01*
X154163219Y-61344875D02*
X154544171Y-61344875D01*
X154544171Y-61344875D02*
X154544171Y-60344875D01*
X154544171Y-60344875D02*
X154210838Y-60344875D01*
X154210838Y-60344875D02*
X154115600Y-60392494D01*
X154115600Y-60392494D02*
X154067981Y-60440113D01*
X154067981Y-60440113D02*
X154020362Y-60535351D01*
X154020362Y-60535351D02*
X154020362Y-60630589D01*
X154020362Y-60630589D02*
X154067981Y-60725827D01*
X154067981Y-60725827D02*
X154115600Y-60773446D01*
X154115600Y-60773446D02*
X154210838Y-60821065D01*
X154210838Y-60821065D02*
X154544171Y-60821065D01*
X153544171Y-61344875D02*
X153544171Y-60678208D01*
X153544171Y-60868684D02*
X153496552Y-60773446D01*
X153496552Y-60773446D02*
X153448933Y-60725827D01*
X153448933Y-60725827D02*
X153353695Y-60678208D01*
X153353695Y-60678208D02*
X153258457Y-60678208D01*
X152544171Y-61297256D02*
X152639409Y-61344875D01*
X152639409Y-61344875D02*
X152829885Y-61344875D01*
X152829885Y-61344875D02*
X152925123Y-61297256D01*
X152925123Y-61297256D02*
X152972742Y-61202017D01*
X152972742Y-61202017D02*
X152972742Y-60821065D01*
X152972742Y-60821065D02*
X152925123Y-60725827D01*
X152925123Y-60725827D02*
X152829885Y-60678208D01*
X152829885Y-60678208D02*
X152639409Y-60678208D01*
X152639409Y-60678208D02*
X152544171Y-60725827D01*
X152544171Y-60725827D02*
X152496552Y-60821065D01*
X152496552Y-60821065D02*
X152496552Y-60916303D01*
X152496552Y-60916303D02*
X152972742Y-61011541D01*
X151639409Y-61344875D02*
X151639409Y-60821065D01*
X151639409Y-60821065D02*
X151687028Y-60725827D01*
X151687028Y-60725827D02*
X151782266Y-60678208D01*
X151782266Y-60678208D02*
X151972742Y-60678208D01*
X151972742Y-60678208D02*
X152067980Y-60725827D01*
X151639409Y-61297256D02*
X151734647Y-61344875D01*
X151734647Y-61344875D02*
X151972742Y-61344875D01*
X151972742Y-61344875D02*
X152067980Y-61297256D01*
X152067980Y-61297256D02*
X152115599Y-61202017D01*
X152115599Y-61202017D02*
X152115599Y-61106779D01*
X152115599Y-61106779D02*
X152067980Y-61011541D01*
X152067980Y-61011541D02*
X151972742Y-60963922D01*
X151972742Y-60963922D02*
X151734647Y-60963922D01*
X151734647Y-60963922D02*
X151639409Y-60916303D01*
X151163218Y-61344875D02*
X151163218Y-60344875D01*
X151067980Y-60963922D02*
X150782266Y-61344875D01*
X150782266Y-60678208D02*
X151163218Y-61059160D01*
X150210837Y-61344875D02*
X150306075Y-61297256D01*
X150306075Y-61297256D02*
X150353694Y-61249636D01*
X150353694Y-61249636D02*
X150401313Y-61154398D01*
X150401313Y-61154398D02*
X150401313Y-60868684D01*
X150401313Y-60868684D02*
X150353694Y-60773446D01*
X150353694Y-60773446D02*
X150306075Y-60725827D01*
X150306075Y-60725827D02*
X150210837Y-60678208D01*
X150210837Y-60678208D02*
X150067980Y-60678208D01*
X150067980Y-60678208D02*
X149972742Y-60725827D01*
X149972742Y-60725827D02*
X149925123Y-60773446D01*
X149925123Y-60773446D02*
X149877504Y-60868684D01*
X149877504Y-60868684D02*
X149877504Y-61154398D01*
X149877504Y-61154398D02*
X149925123Y-61249636D01*
X149925123Y-61249636D02*
X149972742Y-61297256D01*
X149972742Y-61297256D02*
X150067980Y-61344875D01*
X150067980Y-61344875D02*
X150210837Y-61344875D01*
X149020361Y-60678208D02*
X149020361Y-61344875D01*
X149448932Y-60678208D02*
X149448932Y-61202017D01*
X149448932Y-61202017D02*
X149401313Y-61297256D01*
X149401313Y-61297256D02*
X149306075Y-61344875D01*
X149306075Y-61344875D02*
X149163218Y-61344875D01*
X149163218Y-61344875D02*
X149067980Y-61297256D01*
X149067980Y-61297256D02*
X149020361Y-61249636D01*
X148687027Y-60678208D02*
X148306075Y-60678208D01*
X148544170Y-60344875D02*
X148544170Y-61202017D01*
X148544170Y-61202017D02*
X148496551Y-61297256D01*
X148496551Y-61297256D02*
X148401313Y-61344875D01*
X148401313Y-61344875D02*
X148306075Y-61344875D01*
X146877503Y-60821065D02*
X146734646Y-60868684D01*
X146734646Y-60868684D02*
X146687027Y-60916303D01*
X146687027Y-60916303D02*
X146639408Y-61011541D01*
X146639408Y-61011541D02*
X146639408Y-61154398D01*
X146639408Y-61154398D02*
X146687027Y-61249636D01*
X146687027Y-61249636D02*
X146734646Y-61297256D01*
X146734646Y-61297256D02*
X146829884Y-61344875D01*
X146829884Y-61344875D02*
X147210836Y-61344875D01*
X147210836Y-61344875D02*
X147210836Y-60344875D01*
X147210836Y-60344875D02*
X146877503Y-60344875D01*
X146877503Y-60344875D02*
X146782265Y-60392494D01*
X146782265Y-60392494D02*
X146734646Y-60440113D01*
X146734646Y-60440113D02*
X146687027Y-60535351D01*
X146687027Y-60535351D02*
X146687027Y-60630589D01*
X146687027Y-60630589D02*
X146734646Y-60725827D01*
X146734646Y-60725827D02*
X146782265Y-60773446D01*
X146782265Y-60773446D02*
X146877503Y-60821065D01*
X146877503Y-60821065D02*
X147210836Y-60821065D01*
X146067979Y-61344875D02*
X146163217Y-61297256D01*
X146163217Y-61297256D02*
X146210836Y-61249636D01*
X146210836Y-61249636D02*
X146258455Y-61154398D01*
X146258455Y-61154398D02*
X146258455Y-60868684D01*
X146258455Y-60868684D02*
X146210836Y-60773446D01*
X146210836Y-60773446D02*
X146163217Y-60725827D01*
X146163217Y-60725827D02*
X146067979Y-60678208D01*
X146067979Y-60678208D02*
X145925122Y-60678208D01*
X145925122Y-60678208D02*
X145829884Y-60725827D01*
X145829884Y-60725827D02*
X145782265Y-60773446D01*
X145782265Y-60773446D02*
X145734646Y-60868684D01*
X145734646Y-60868684D02*
X145734646Y-61154398D01*
X145734646Y-61154398D02*
X145782265Y-61249636D01*
X145782265Y-61249636D02*
X145829884Y-61297256D01*
X145829884Y-61297256D02*
X145925122Y-61344875D01*
X145925122Y-61344875D02*
X146067979Y-61344875D01*
X144877503Y-61344875D02*
X144877503Y-60821065D01*
X144877503Y-60821065D02*
X144925122Y-60725827D01*
X144925122Y-60725827D02*
X145020360Y-60678208D01*
X145020360Y-60678208D02*
X145210836Y-60678208D01*
X145210836Y-60678208D02*
X145306074Y-60725827D01*
X144877503Y-61297256D02*
X144972741Y-61344875D01*
X144972741Y-61344875D02*
X145210836Y-61344875D01*
X145210836Y-61344875D02*
X145306074Y-61297256D01*
X145306074Y-61297256D02*
X145353693Y-61202017D01*
X145353693Y-61202017D02*
X145353693Y-61106779D01*
X145353693Y-61106779D02*
X145306074Y-61011541D01*
X145306074Y-61011541D02*
X145210836Y-60963922D01*
X145210836Y-60963922D02*
X144972741Y-60963922D01*
X144972741Y-60963922D02*
X144877503Y-60916303D01*
X144401312Y-61344875D02*
X144401312Y-60678208D01*
X144401312Y-60868684D02*
X144353693Y-60773446D01*
X144353693Y-60773446D02*
X144306074Y-60725827D01*
X144306074Y-60725827D02*
X144210836Y-60678208D01*
X144210836Y-60678208D02*
X144115598Y-60678208D01*
X143353693Y-61344875D02*
X143353693Y-60344875D01*
X143353693Y-61297256D02*
X143448931Y-61344875D01*
X143448931Y-61344875D02*
X143639407Y-61344875D01*
X143639407Y-61344875D02*
X143734645Y-61297256D01*
X143734645Y-61297256D02*
X143782264Y-61249636D01*
X143782264Y-61249636D02*
X143829883Y-61154398D01*
X143829883Y-61154398D02*
X143829883Y-60868684D01*
X143829883Y-60868684D02*
X143782264Y-60773446D01*
X143782264Y-60773446D02*
X143734645Y-60725827D01*
X143734645Y-60725827D02*
X143639407Y-60678208D01*
X143639407Y-60678208D02*
X143448931Y-60678208D01*
X143448931Y-60678208D02*
X143353693Y-60725827D01*
X161734649Y-62907200D02*
X161829887Y-62954819D01*
X161829887Y-62954819D02*
X162020363Y-62954819D01*
X162020363Y-62954819D02*
X162115601Y-62907200D01*
X162115601Y-62907200D02*
X162163220Y-62859580D01*
X162163220Y-62859580D02*
X162210839Y-62764342D01*
X162210839Y-62764342D02*
X162210839Y-62478628D01*
X162210839Y-62478628D02*
X162163220Y-62383390D01*
X162163220Y-62383390D02*
X162115601Y-62335771D01*
X162115601Y-62335771D02*
X162020363Y-62288152D01*
X162020363Y-62288152D02*
X161829887Y-62288152D01*
X161829887Y-62288152D02*
X161734649Y-62335771D01*
X161306077Y-62954819D02*
X161306077Y-61954819D01*
X160877506Y-62954819D02*
X160877506Y-62431009D01*
X160877506Y-62431009D02*
X160925125Y-62335771D01*
X160925125Y-62335771D02*
X161020363Y-62288152D01*
X161020363Y-62288152D02*
X161163220Y-62288152D01*
X161163220Y-62288152D02*
X161258458Y-62335771D01*
X161258458Y-62335771D02*
X161306077Y-62383390D01*
X160401315Y-62954819D02*
X160401315Y-62288152D01*
X160401315Y-62478628D02*
X160353696Y-62383390D01*
X160353696Y-62383390D02*
X160306077Y-62335771D01*
X160306077Y-62335771D02*
X160210839Y-62288152D01*
X160210839Y-62288152D02*
X160115601Y-62288152D01*
X159877505Y-62288152D02*
X159353696Y-62288152D01*
X159353696Y-62288152D02*
X159877505Y-62954819D01*
X159877505Y-62954819D02*
X159353696Y-62954819D01*
X158210838Y-62573866D02*
X157448934Y-62573866D01*
X156353695Y-61954819D02*
X156020362Y-62954819D01*
X156020362Y-62954819D02*
X155687029Y-61954819D01*
X154829886Y-62954819D02*
X155401314Y-62954819D01*
X155115600Y-62954819D02*
X155115600Y-61954819D01*
X155115600Y-61954819D02*
X155210838Y-62097676D01*
X155210838Y-62097676D02*
X155306076Y-62192914D01*
X155306076Y-62192914D02*
X155401314Y-62240533D01*
X153639409Y-62573866D02*
X152877505Y-62573866D01*
X151448933Y-61954819D02*
X151353695Y-61954819D01*
X151353695Y-61954819D02*
X151258457Y-62002438D01*
X151258457Y-62002438D02*
X151210838Y-62050057D01*
X151210838Y-62050057D02*
X151163219Y-62145295D01*
X151163219Y-62145295D02*
X151115600Y-62335771D01*
X151115600Y-62335771D02*
X151115600Y-62573866D01*
X151115600Y-62573866D02*
X151163219Y-62764342D01*
X151163219Y-62764342D02*
X151210838Y-62859580D01*
X151210838Y-62859580D02*
X151258457Y-62907200D01*
X151258457Y-62907200D02*
X151353695Y-62954819D01*
X151353695Y-62954819D02*
X151448933Y-62954819D01*
X151448933Y-62954819D02*
X151544171Y-62907200D01*
X151544171Y-62907200D02*
X151591790Y-62859580D01*
X151591790Y-62859580D02*
X151639409Y-62764342D01*
X151639409Y-62764342D02*
X151687028Y-62573866D01*
X151687028Y-62573866D02*
X151687028Y-62335771D01*
X151687028Y-62335771D02*
X151639409Y-62145295D01*
X151639409Y-62145295D02*
X151591790Y-62050057D01*
X151591790Y-62050057D02*
X151544171Y-62002438D01*
X151544171Y-62002438D02*
X151448933Y-61954819D01*
X150258457Y-61954819D02*
X150448933Y-61954819D01*
X150448933Y-61954819D02*
X150544171Y-62002438D01*
X150544171Y-62002438D02*
X150591790Y-62050057D01*
X150591790Y-62050057D02*
X150687028Y-62192914D01*
X150687028Y-62192914D02*
X150734647Y-62383390D01*
X150734647Y-62383390D02*
X150734647Y-62764342D01*
X150734647Y-62764342D02*
X150687028Y-62859580D01*
X150687028Y-62859580D02*
X150639409Y-62907200D01*
X150639409Y-62907200D02*
X150544171Y-62954819D01*
X150544171Y-62954819D02*
X150353695Y-62954819D01*
X150353695Y-62954819D02*
X150258457Y-62907200D01*
X150258457Y-62907200D02*
X150210838Y-62859580D01*
X150210838Y-62859580D02*
X150163219Y-62764342D01*
X150163219Y-62764342D02*
X150163219Y-62526247D01*
X150163219Y-62526247D02*
X150210838Y-62431009D01*
X150210838Y-62431009D02*
X150258457Y-62383390D01*
X150258457Y-62383390D02*
X150353695Y-62335771D01*
X150353695Y-62335771D02*
X150544171Y-62335771D01*
X150544171Y-62335771D02*
X150639409Y-62383390D01*
X150639409Y-62383390D02*
X150687028Y-62431009D01*
X150687028Y-62431009D02*
X150734647Y-62526247D01*
X148258457Y-61907200D02*
X149115599Y-63192914D01*
X147210837Y-62050057D02*
X147163218Y-62002438D01*
X147163218Y-62002438D02*
X147067980Y-61954819D01*
X147067980Y-61954819D02*
X146829885Y-61954819D01*
X146829885Y-61954819D02*
X146734647Y-62002438D01*
X146734647Y-62002438D02*
X146687028Y-62050057D01*
X146687028Y-62050057D02*
X146639409Y-62145295D01*
X146639409Y-62145295D02*
X146639409Y-62240533D01*
X146639409Y-62240533D02*
X146687028Y-62383390D01*
X146687028Y-62383390D02*
X147258456Y-62954819D01*
X147258456Y-62954819D02*
X146639409Y-62954819D01*
X146020361Y-61954819D02*
X145925123Y-61954819D01*
X145925123Y-61954819D02*
X145829885Y-62002438D01*
X145829885Y-62002438D02*
X145782266Y-62050057D01*
X145782266Y-62050057D02*
X145734647Y-62145295D01*
X145734647Y-62145295D02*
X145687028Y-62335771D01*
X145687028Y-62335771D02*
X145687028Y-62573866D01*
X145687028Y-62573866D02*
X145734647Y-62764342D01*
X145734647Y-62764342D02*
X145782266Y-62859580D01*
X145782266Y-62859580D02*
X145829885Y-62907200D01*
X145829885Y-62907200D02*
X145925123Y-62954819D01*
X145925123Y-62954819D02*
X146020361Y-62954819D01*
X146020361Y-62954819D02*
X146115599Y-62907200D01*
X146115599Y-62907200D02*
X146163218Y-62859580D01*
X146163218Y-62859580D02*
X146210837Y-62764342D01*
X146210837Y-62764342D02*
X146258456Y-62573866D01*
X146258456Y-62573866D02*
X146258456Y-62335771D01*
X146258456Y-62335771D02*
X146210837Y-62145295D01*
X146210837Y-62145295D02*
X146163218Y-62050057D01*
X146163218Y-62050057D02*
X146115599Y-62002438D01*
X146115599Y-62002438D02*
X146020361Y-61954819D01*
X145306075Y-62050057D02*
X145258456Y-62002438D01*
X145258456Y-62002438D02*
X145163218Y-61954819D01*
X145163218Y-61954819D02*
X144925123Y-61954819D01*
X144925123Y-61954819D02*
X144829885Y-62002438D01*
X144829885Y-62002438D02*
X144782266Y-62050057D01*
X144782266Y-62050057D02*
X144734647Y-62145295D01*
X144734647Y-62145295D02*
X144734647Y-62240533D01*
X144734647Y-62240533D02*
X144782266Y-62383390D01*
X144782266Y-62383390D02*
X145353694Y-62954819D01*
X145353694Y-62954819D02*
X144734647Y-62954819D01*
X143877504Y-61954819D02*
X144067980Y-61954819D01*
X144067980Y-61954819D02*
X144163218Y-62002438D01*
X144163218Y-62002438D02*
X144210837Y-62050057D01*
X144210837Y-62050057D02*
X144306075Y-62192914D01*
X144306075Y-62192914D02*
X144353694Y-62383390D01*
X144353694Y-62383390D02*
X144353694Y-62764342D01*
X144353694Y-62764342D02*
X144306075Y-62859580D01*
X144306075Y-62859580D02*
X144258456Y-62907200D01*
X144258456Y-62907200D02*
X144163218Y-62954819D01*
X144163218Y-62954819D02*
X143972742Y-62954819D01*
X143972742Y-62954819D02*
X143877504Y-62907200D01*
X143877504Y-62907200D02*
X143829885Y-62859580D01*
X143829885Y-62859580D02*
X143782266Y-62764342D01*
X143782266Y-62764342D02*
X143782266Y-62526247D01*
X143782266Y-62526247D02*
X143829885Y-62431009D01*
X143829885Y-62431009D02*
X143877504Y-62383390D01*
X143877504Y-62383390D02*
X143972742Y-62335771D01*
X143972742Y-62335771D02*
X144163218Y-62335771D01*
X144163218Y-62335771D02*
X144258456Y-62383390D01*
X144258456Y-62383390D02*
X144306075Y-62431009D01*
X144306075Y-62431009D02*
X144353694Y-62526247D01*
X162163220Y-64564763D02*
X162163220Y-63564763D01*
X161734649Y-64564763D02*
X161734649Y-64040953D01*
X161734649Y-64040953D02*
X161782268Y-63945715D01*
X161782268Y-63945715D02*
X161877506Y-63898096D01*
X161877506Y-63898096D02*
X162020363Y-63898096D01*
X162020363Y-63898096D02*
X162115601Y-63945715D01*
X162115601Y-63945715D02*
X162163220Y-63993334D01*
X161401315Y-63898096D02*
X161020363Y-63898096D01*
X161258458Y-63564763D02*
X161258458Y-64421905D01*
X161258458Y-64421905D02*
X161210839Y-64517144D01*
X161210839Y-64517144D02*
X161115601Y-64564763D01*
X161115601Y-64564763D02*
X161020363Y-64564763D01*
X160829886Y-63898096D02*
X160448934Y-63898096D01*
X160687029Y-63564763D02*
X160687029Y-64421905D01*
X160687029Y-64421905D02*
X160639410Y-64517144D01*
X160639410Y-64517144D02*
X160544172Y-64564763D01*
X160544172Y-64564763D02*
X160448934Y-64564763D01*
X160115600Y-63898096D02*
X160115600Y-64898096D01*
X160115600Y-63945715D02*
X160020362Y-63898096D01*
X160020362Y-63898096D02*
X159829886Y-63898096D01*
X159829886Y-63898096D02*
X159734648Y-63945715D01*
X159734648Y-63945715D02*
X159687029Y-63993334D01*
X159687029Y-63993334D02*
X159639410Y-64088572D01*
X159639410Y-64088572D02*
X159639410Y-64374286D01*
X159639410Y-64374286D02*
X159687029Y-64469524D01*
X159687029Y-64469524D02*
X159734648Y-64517144D01*
X159734648Y-64517144D02*
X159829886Y-64564763D01*
X159829886Y-64564763D02*
X160020362Y-64564763D01*
X160020362Y-64564763D02*
X160115600Y-64517144D01*
X159258457Y-64517144D02*
X159163219Y-64564763D01*
X159163219Y-64564763D02*
X158972743Y-64564763D01*
X158972743Y-64564763D02*
X158877505Y-64517144D01*
X158877505Y-64517144D02*
X158829886Y-64421905D01*
X158829886Y-64421905D02*
X158829886Y-64374286D01*
X158829886Y-64374286D02*
X158877505Y-64279048D01*
X158877505Y-64279048D02*
X158972743Y-64231429D01*
X158972743Y-64231429D02*
X159115600Y-64231429D01*
X159115600Y-64231429D02*
X159210838Y-64183810D01*
X159210838Y-64183810D02*
X159258457Y-64088572D01*
X159258457Y-64088572D02*
X159258457Y-64040953D01*
X159258457Y-64040953D02*
X159210838Y-63945715D01*
X159210838Y-63945715D02*
X159115600Y-63898096D01*
X159115600Y-63898096D02*
X158972743Y-63898096D01*
X158972743Y-63898096D02*
X158877505Y-63945715D01*
X158401314Y-64469524D02*
X158353695Y-64517144D01*
X158353695Y-64517144D02*
X158401314Y-64564763D01*
X158401314Y-64564763D02*
X158448933Y-64517144D01*
X158448933Y-64517144D02*
X158401314Y-64469524D01*
X158401314Y-64469524D02*
X158401314Y-64564763D01*
X158401314Y-63945715D02*
X158353695Y-63993334D01*
X158353695Y-63993334D02*
X158401314Y-64040953D01*
X158401314Y-64040953D02*
X158448933Y-63993334D01*
X158448933Y-63993334D02*
X158401314Y-63945715D01*
X158401314Y-63945715D02*
X158401314Y-64040953D01*
X157210839Y-63517144D02*
X158067981Y-64802858D01*
X156163220Y-63517144D02*
X157020362Y-64802858D01*
X155401315Y-63898096D02*
X155401315Y-64707620D01*
X155401315Y-64707620D02*
X155448934Y-64802858D01*
X155448934Y-64802858D02*
X155496553Y-64850477D01*
X155496553Y-64850477D02*
X155591791Y-64898096D01*
X155591791Y-64898096D02*
X155734648Y-64898096D01*
X155734648Y-64898096D02*
X155829886Y-64850477D01*
X155401315Y-64517144D02*
X155496553Y-64564763D01*
X155496553Y-64564763D02*
X155687029Y-64564763D01*
X155687029Y-64564763D02*
X155782267Y-64517144D01*
X155782267Y-64517144D02*
X155829886Y-64469524D01*
X155829886Y-64469524D02*
X155877505Y-64374286D01*
X155877505Y-64374286D02*
X155877505Y-64088572D01*
X155877505Y-64088572D02*
X155829886Y-63993334D01*
X155829886Y-63993334D02*
X155782267Y-63945715D01*
X155782267Y-63945715D02*
X155687029Y-63898096D01*
X155687029Y-63898096D02*
X155496553Y-63898096D01*
X155496553Y-63898096D02*
X155401315Y-63945715D01*
X154925124Y-64564763D02*
X154925124Y-63898096D01*
X154925124Y-63564763D02*
X154972743Y-63612382D01*
X154972743Y-63612382D02*
X154925124Y-63660001D01*
X154925124Y-63660001D02*
X154877505Y-63612382D01*
X154877505Y-63612382D02*
X154925124Y-63564763D01*
X154925124Y-63564763D02*
X154925124Y-63660001D01*
X154591791Y-63898096D02*
X154210839Y-63898096D01*
X154448934Y-63564763D02*
X154448934Y-64421905D01*
X154448934Y-64421905D02*
X154401315Y-64517144D01*
X154401315Y-64517144D02*
X154306077Y-64564763D01*
X154306077Y-64564763D02*
X154210839Y-64564763D01*
X153877505Y-64564763D02*
X153877505Y-63564763D01*
X153448934Y-64564763D02*
X153448934Y-64040953D01*
X153448934Y-64040953D02*
X153496553Y-63945715D01*
X153496553Y-63945715D02*
X153591791Y-63898096D01*
X153591791Y-63898096D02*
X153734648Y-63898096D01*
X153734648Y-63898096D02*
X153829886Y-63945715D01*
X153829886Y-63945715D02*
X153877505Y-63993334D01*
X152544172Y-63898096D02*
X152544172Y-64564763D01*
X152972743Y-63898096D02*
X152972743Y-64421905D01*
X152972743Y-64421905D02*
X152925124Y-64517144D01*
X152925124Y-64517144D02*
X152829886Y-64564763D01*
X152829886Y-64564763D02*
X152687029Y-64564763D01*
X152687029Y-64564763D02*
X152591791Y-64517144D01*
X152591791Y-64517144D02*
X152544172Y-64469524D01*
X152067981Y-64564763D02*
X152067981Y-63564763D01*
X152067981Y-63945715D02*
X151972743Y-63898096D01*
X151972743Y-63898096D02*
X151782267Y-63898096D01*
X151782267Y-63898096D02*
X151687029Y-63945715D01*
X151687029Y-63945715D02*
X151639410Y-63993334D01*
X151639410Y-63993334D02*
X151591791Y-64088572D01*
X151591791Y-64088572D02*
X151591791Y-64374286D01*
X151591791Y-64374286D02*
X151639410Y-64469524D01*
X151639410Y-64469524D02*
X151687029Y-64517144D01*
X151687029Y-64517144D02*
X151782267Y-64564763D01*
X151782267Y-64564763D02*
X151972743Y-64564763D01*
X151972743Y-64564763D02*
X152067981Y-64517144D01*
X151163219Y-64469524D02*
X151115600Y-64517144D01*
X151115600Y-64517144D02*
X151163219Y-64564763D01*
X151163219Y-64564763D02*
X151210838Y-64517144D01*
X151210838Y-64517144D02*
X151163219Y-64469524D01*
X151163219Y-64469524D02*
X151163219Y-64564763D01*
X150258458Y-64517144D02*
X150353696Y-64564763D01*
X150353696Y-64564763D02*
X150544172Y-64564763D01*
X150544172Y-64564763D02*
X150639410Y-64517144D01*
X150639410Y-64517144D02*
X150687029Y-64469524D01*
X150687029Y-64469524D02*
X150734648Y-64374286D01*
X150734648Y-64374286D02*
X150734648Y-64088572D01*
X150734648Y-64088572D02*
X150687029Y-63993334D01*
X150687029Y-63993334D02*
X150639410Y-63945715D01*
X150639410Y-63945715D02*
X150544172Y-63898096D01*
X150544172Y-63898096D02*
X150353696Y-63898096D01*
X150353696Y-63898096D02*
X150258458Y-63945715D01*
X149687029Y-64564763D02*
X149782267Y-64517144D01*
X149782267Y-64517144D02*
X149829886Y-64469524D01*
X149829886Y-64469524D02*
X149877505Y-64374286D01*
X149877505Y-64374286D02*
X149877505Y-64088572D01*
X149877505Y-64088572D02*
X149829886Y-63993334D01*
X149829886Y-63993334D02*
X149782267Y-63945715D01*
X149782267Y-63945715D02*
X149687029Y-63898096D01*
X149687029Y-63898096D02*
X149544172Y-63898096D01*
X149544172Y-63898096D02*
X149448934Y-63945715D01*
X149448934Y-63945715D02*
X149401315Y-63993334D01*
X149401315Y-63993334D02*
X149353696Y-64088572D01*
X149353696Y-64088572D02*
X149353696Y-64374286D01*
X149353696Y-64374286D02*
X149401315Y-64469524D01*
X149401315Y-64469524D02*
X149448934Y-64517144D01*
X149448934Y-64517144D02*
X149544172Y-64564763D01*
X149544172Y-64564763D02*
X149687029Y-64564763D01*
X148925124Y-64564763D02*
X148925124Y-63898096D01*
X148925124Y-63993334D02*
X148877505Y-63945715D01*
X148877505Y-63945715D02*
X148782267Y-63898096D01*
X148782267Y-63898096D02*
X148639410Y-63898096D01*
X148639410Y-63898096D02*
X148544172Y-63945715D01*
X148544172Y-63945715D02*
X148496553Y-64040953D01*
X148496553Y-64040953D02*
X148496553Y-64564763D01*
X148496553Y-64040953D02*
X148448934Y-63945715D01*
X148448934Y-63945715D02*
X148353696Y-63898096D01*
X148353696Y-63898096D02*
X148210839Y-63898096D01*
X148210839Y-63898096D02*
X148115600Y-63945715D01*
X148115600Y-63945715D02*
X148067981Y-64040953D01*
X148067981Y-64040953D02*
X148067981Y-64564763D01*
X146877506Y-63517144D02*
X147734648Y-64802858D01*
X146591791Y-64517144D02*
X146448934Y-64564763D01*
X146448934Y-64564763D02*
X146210839Y-64564763D01*
X146210839Y-64564763D02*
X146115601Y-64517144D01*
X146115601Y-64517144D02*
X146067982Y-64469524D01*
X146067982Y-64469524D02*
X146020363Y-64374286D01*
X146020363Y-64374286D02*
X146020363Y-64279048D01*
X146020363Y-64279048D02*
X146067982Y-64183810D01*
X146067982Y-64183810D02*
X146115601Y-64136191D01*
X146115601Y-64136191D02*
X146210839Y-64088572D01*
X146210839Y-64088572D02*
X146401315Y-64040953D01*
X146401315Y-64040953D02*
X146496553Y-63993334D01*
X146496553Y-63993334D02*
X146544172Y-63945715D01*
X146544172Y-63945715D02*
X146591791Y-63850477D01*
X146591791Y-63850477D02*
X146591791Y-63755239D01*
X146591791Y-63755239D02*
X146544172Y-63660001D01*
X146544172Y-63660001D02*
X146496553Y-63612382D01*
X146496553Y-63612382D02*
X146401315Y-63564763D01*
X146401315Y-63564763D02*
X146163220Y-63564763D01*
X146163220Y-63564763D02*
X146020363Y-63612382D01*
X145734648Y-63898096D02*
X145353696Y-63898096D01*
X145591791Y-63564763D02*
X145591791Y-64421905D01*
X145591791Y-64421905D02*
X145544172Y-64517144D01*
X145544172Y-64517144D02*
X145448934Y-64564763D01*
X145448934Y-64564763D02*
X145353696Y-64564763D01*
X144591791Y-64564763D02*
X144591791Y-64040953D01*
X144591791Y-64040953D02*
X144639410Y-63945715D01*
X144639410Y-63945715D02*
X144734648Y-63898096D01*
X144734648Y-63898096D02*
X144925124Y-63898096D01*
X144925124Y-63898096D02*
X145020362Y-63945715D01*
X144591791Y-64517144D02*
X144687029Y-64564763D01*
X144687029Y-64564763D02*
X144925124Y-64564763D01*
X144925124Y-64564763D02*
X145020362Y-64517144D01*
X145020362Y-64517144D02*
X145067981Y-64421905D01*
X145067981Y-64421905D02*
X145067981Y-64326667D01*
X145067981Y-64326667D02*
X145020362Y-64231429D01*
X145020362Y-64231429D02*
X144925124Y-64183810D01*
X144925124Y-64183810D02*
X144687029Y-64183810D01*
X144687029Y-64183810D02*
X144591791Y-64136191D01*
X144115600Y-64564763D02*
X144115600Y-63898096D01*
X144115600Y-64088572D02*
X144067981Y-63993334D01*
X144067981Y-63993334D02*
X144020362Y-63945715D01*
X144020362Y-63945715D02*
X143925124Y-63898096D01*
X143925124Y-63898096D02*
X143829886Y-63898096D01*
X142972743Y-63612382D02*
X143067981Y-63564763D01*
X143067981Y-63564763D02*
X143210838Y-63564763D01*
X143210838Y-63564763D02*
X143353695Y-63612382D01*
X143353695Y-63612382D02*
X143448933Y-63707620D01*
X143448933Y-63707620D02*
X143496552Y-63802858D01*
X143496552Y-63802858D02*
X143544171Y-63993334D01*
X143544171Y-63993334D02*
X143544171Y-64136191D01*
X143544171Y-64136191D02*
X143496552Y-64326667D01*
X143496552Y-64326667D02*
X143448933Y-64421905D01*
X143448933Y-64421905D02*
X143353695Y-64517144D01*
X143353695Y-64517144D02*
X143210838Y-64564763D01*
X143210838Y-64564763D02*
X143115600Y-64564763D01*
X143115600Y-64564763D02*
X142972743Y-64517144D01*
X142972743Y-64517144D02*
X142925124Y-64469524D01*
X142925124Y-64469524D02*
X142925124Y-64136191D01*
X142925124Y-64136191D02*
X143115600Y-64136191D01*
X142067981Y-64564763D02*
X142067981Y-64040953D01*
X142067981Y-64040953D02*
X142115600Y-63945715D01*
X142115600Y-63945715D02*
X142210838Y-63898096D01*
X142210838Y-63898096D02*
X142401314Y-63898096D01*
X142401314Y-63898096D02*
X142496552Y-63945715D01*
X142067981Y-64517144D02*
X142163219Y-64564763D01*
X142163219Y-64564763D02*
X142401314Y-64564763D01*
X142401314Y-64564763D02*
X142496552Y-64517144D01*
X142496552Y-64517144D02*
X142544171Y-64421905D01*
X142544171Y-64421905D02*
X142544171Y-64326667D01*
X142544171Y-64326667D02*
X142496552Y-64231429D01*
X142496552Y-64231429D02*
X142401314Y-64183810D01*
X142401314Y-64183810D02*
X142163219Y-64183810D01*
X142163219Y-64183810D02*
X142067981Y-64136191D01*
X141734647Y-63898096D02*
X141353695Y-63898096D01*
X141591790Y-63564763D02*
X141591790Y-64421905D01*
X141591790Y-64421905D02*
X141544171Y-64517144D01*
X141544171Y-64517144D02*
X141448933Y-64564763D01*
X141448933Y-64564763D02*
X141353695Y-64564763D01*
X140639409Y-64517144D02*
X140734647Y-64564763D01*
X140734647Y-64564763D02*
X140925123Y-64564763D01*
X140925123Y-64564763D02*
X141020361Y-64517144D01*
X141020361Y-64517144D02*
X141067980Y-64421905D01*
X141067980Y-64421905D02*
X141067980Y-64040953D01*
X141067980Y-64040953D02*
X141020361Y-63945715D01*
X141020361Y-63945715D02*
X140925123Y-63898096D01*
X140925123Y-63898096D02*
X140734647Y-63898096D01*
X140734647Y-63898096D02*
X140639409Y-63945715D01*
X140639409Y-63945715D02*
X140591790Y-64040953D01*
X140591790Y-64040953D02*
X140591790Y-64136191D01*
X140591790Y-64136191D02*
X141067980Y-64231429D01*
X139972742Y-63564763D02*
X139877504Y-63564763D01*
X139877504Y-63564763D02*
X139782266Y-63612382D01*
X139782266Y-63612382D02*
X139734647Y-63660001D01*
X139734647Y-63660001D02*
X139687028Y-63755239D01*
X139687028Y-63755239D02*
X139639409Y-63945715D01*
X139639409Y-63945715D02*
X139639409Y-64183810D01*
X139639409Y-64183810D02*
X139687028Y-64374286D01*
X139687028Y-64374286D02*
X139734647Y-64469524D01*
X139734647Y-64469524D02*
X139782266Y-64517144D01*
X139782266Y-64517144D02*
X139877504Y-64564763D01*
X139877504Y-64564763D02*
X139972742Y-64564763D01*
X139972742Y-64564763D02*
X140067980Y-64517144D01*
X140067980Y-64517144D02*
X140115599Y-64469524D01*
X140115599Y-64469524D02*
X140163218Y-64374286D01*
X140163218Y-64374286D02*
X140210837Y-64183810D01*
X140210837Y-64183810D02*
X140210837Y-63945715D01*
X140210837Y-63945715D02*
X140163218Y-63755239D01*
X140163218Y-63755239D02*
X140115599Y-63660001D01*
X140115599Y-63660001D02*
X140067980Y-63612382D01*
X140067980Y-63612382D02*
X139972742Y-63564763D01*
X138687028Y-64564763D02*
X139258456Y-64564763D01*
X138972742Y-64564763D02*
X138972742Y-63564763D01*
X138972742Y-63564763D02*
X139067980Y-63707620D01*
X139067980Y-63707620D02*
X139163218Y-63802858D01*
X139163218Y-63802858D02*
X139258456Y-63850477D01*
X137544171Y-63517144D02*
X138401313Y-64802858D01*
X137306075Y-63898096D02*
X137067980Y-64564763D01*
X137067980Y-64564763D02*
X136829885Y-63898096D01*
X136306075Y-64564763D02*
X136401313Y-64517144D01*
X136401313Y-64517144D02*
X136448932Y-64469524D01*
X136448932Y-64469524D02*
X136496551Y-64374286D01*
X136496551Y-64374286D02*
X136496551Y-64088572D01*
X136496551Y-64088572D02*
X136448932Y-63993334D01*
X136448932Y-63993334D02*
X136401313Y-63945715D01*
X136401313Y-63945715D02*
X136306075Y-63898096D01*
X136306075Y-63898096D02*
X136163218Y-63898096D01*
X136163218Y-63898096D02*
X136067980Y-63945715D01*
X136067980Y-63945715D02*
X136020361Y-63993334D01*
X136020361Y-63993334D02*
X135972742Y-64088572D01*
X135972742Y-64088572D02*
X135972742Y-64374286D01*
X135972742Y-64374286D02*
X136020361Y-64469524D01*
X136020361Y-64469524D02*
X136067980Y-64517144D01*
X136067980Y-64517144D02*
X136163218Y-64564763D01*
X136163218Y-64564763D02*
X136306075Y-64564763D01*
X135115599Y-64517144D02*
X135210837Y-64564763D01*
X135210837Y-64564763D02*
X135401313Y-64564763D01*
X135401313Y-64564763D02*
X135496551Y-64517144D01*
X135496551Y-64517144D02*
X135544170Y-64469524D01*
X135544170Y-64469524D02*
X135591789Y-64374286D01*
X135591789Y-64374286D02*
X135591789Y-64088572D01*
X135591789Y-64088572D02*
X135544170Y-63993334D01*
X135544170Y-63993334D02*
X135496551Y-63945715D01*
X135496551Y-63945715D02*
X135401313Y-63898096D01*
X135401313Y-63898096D02*
X135210837Y-63898096D01*
X135210837Y-63898096D02*
X135115599Y-63945715D01*
X134544170Y-64564763D02*
X134639408Y-64517144D01*
X134639408Y-64517144D02*
X134687027Y-64469524D01*
X134687027Y-64469524D02*
X134734646Y-64374286D01*
X134734646Y-64374286D02*
X134734646Y-64088572D01*
X134734646Y-64088572D02*
X134687027Y-63993334D01*
X134687027Y-63993334D02*
X134639408Y-63945715D01*
X134639408Y-63945715D02*
X134544170Y-63898096D01*
X134544170Y-63898096D02*
X134401313Y-63898096D01*
X134401313Y-63898096D02*
X134306075Y-63945715D01*
X134306075Y-63945715D02*
X134258456Y-63993334D01*
X134258456Y-63993334D02*
X134210837Y-64088572D01*
X134210837Y-64088572D02*
X134210837Y-64374286D01*
X134210837Y-64374286D02*
X134258456Y-64469524D01*
X134258456Y-64469524D02*
X134306075Y-64517144D01*
X134306075Y-64517144D02*
X134401313Y-64564763D01*
X134401313Y-64564763D02*
X134544170Y-64564763D01*
X133782265Y-64564763D02*
X133782265Y-63898096D01*
X133782265Y-64088572D02*
X133734646Y-63993334D01*
X133734646Y-63993334D02*
X133687027Y-63945715D01*
X133687027Y-63945715D02*
X133591789Y-63898096D01*
X133591789Y-63898096D02*
X133496551Y-63898096D01*
X132782265Y-64517144D02*
X132877503Y-64564763D01*
X132877503Y-64564763D02*
X133067979Y-64564763D01*
X133067979Y-64564763D02*
X133163217Y-64517144D01*
X133163217Y-64517144D02*
X133210836Y-64421905D01*
X133210836Y-64421905D02*
X133210836Y-64040953D01*
X133210836Y-64040953D02*
X133163217Y-63945715D01*
X133163217Y-63945715D02*
X133067979Y-63898096D01*
X133067979Y-63898096D02*
X132877503Y-63898096D01*
X132877503Y-63898096D02*
X132782265Y-63945715D01*
X132782265Y-63945715D02*
X132734646Y-64040953D01*
X132734646Y-64040953D02*
X132734646Y-64136191D01*
X132734646Y-64136191D02*
X133210836Y-64231429D01*
X132353693Y-63660001D02*
X132306074Y-63612382D01*
X132306074Y-63612382D02*
X132210836Y-63564763D01*
X132210836Y-63564763D02*
X131972741Y-63564763D01*
X131972741Y-63564763D02*
X131877503Y-63612382D01*
X131877503Y-63612382D02*
X131829884Y-63660001D01*
X131829884Y-63660001D02*
X131782265Y-63755239D01*
X131782265Y-63755239D02*
X131782265Y-63850477D01*
X131782265Y-63850477D02*
X131829884Y-63993334D01*
X131829884Y-63993334D02*
X132401312Y-64564763D01*
X132401312Y-64564763D02*
X131782265Y-64564763D01*
X131353693Y-64183810D02*
X130591789Y-64183810D01*
X130115598Y-64564763D02*
X130115598Y-63564763D01*
X130115598Y-63945715D02*
X130020360Y-63898096D01*
X130020360Y-63898096D02*
X129829884Y-63898096D01*
X129829884Y-63898096D02*
X129734646Y-63945715D01*
X129734646Y-63945715D02*
X129687027Y-63993334D01*
X129687027Y-63993334D02*
X129639408Y-64088572D01*
X129639408Y-64088572D02*
X129639408Y-64374286D01*
X129639408Y-64374286D02*
X129687027Y-64469524D01*
X129687027Y-64469524D02*
X129734646Y-64517144D01*
X129734646Y-64517144D02*
X129829884Y-64564763D01*
X129829884Y-64564763D02*
X130020360Y-64564763D01*
X130020360Y-64564763D02*
X130115598Y-64517144D01*
X129210836Y-64564763D02*
X129210836Y-63898096D01*
X129210836Y-64088572D02*
X129163217Y-63993334D01*
X129163217Y-63993334D02*
X129115598Y-63945715D01*
X129115598Y-63945715D02*
X129020360Y-63898096D01*
X129020360Y-63898096D02*
X128925122Y-63898096D01*
X128210836Y-64517144D02*
X128306074Y-64564763D01*
X128306074Y-64564763D02*
X128496550Y-64564763D01*
X128496550Y-64564763D02*
X128591788Y-64517144D01*
X128591788Y-64517144D02*
X128639407Y-64421905D01*
X128639407Y-64421905D02*
X128639407Y-64040953D01*
X128639407Y-64040953D02*
X128591788Y-63945715D01*
X128591788Y-63945715D02*
X128496550Y-63898096D01*
X128496550Y-63898096D02*
X128306074Y-63898096D01*
X128306074Y-63898096D02*
X128210836Y-63945715D01*
X128210836Y-63945715D02*
X128163217Y-64040953D01*
X128163217Y-64040953D02*
X128163217Y-64136191D01*
X128163217Y-64136191D02*
X128639407Y-64231429D01*
X127306074Y-64564763D02*
X127306074Y-64040953D01*
X127306074Y-64040953D02*
X127353693Y-63945715D01*
X127353693Y-63945715D02*
X127448931Y-63898096D01*
X127448931Y-63898096D02*
X127639407Y-63898096D01*
X127639407Y-63898096D02*
X127734645Y-63945715D01*
X127306074Y-64517144D02*
X127401312Y-64564763D01*
X127401312Y-64564763D02*
X127639407Y-64564763D01*
X127639407Y-64564763D02*
X127734645Y-64517144D01*
X127734645Y-64517144D02*
X127782264Y-64421905D01*
X127782264Y-64421905D02*
X127782264Y-64326667D01*
X127782264Y-64326667D02*
X127734645Y-64231429D01*
X127734645Y-64231429D02*
X127639407Y-64183810D01*
X127639407Y-64183810D02*
X127401312Y-64183810D01*
X127401312Y-64183810D02*
X127306074Y-64136191D01*
X126829883Y-64564763D02*
X126829883Y-63564763D01*
X126734645Y-64183810D02*
X126448931Y-64564763D01*
X126448931Y-63898096D02*
X126829883Y-64279048D01*
X125877502Y-64564763D02*
X125972740Y-64517144D01*
X125972740Y-64517144D02*
X126020359Y-64469524D01*
X126020359Y-64469524D02*
X126067978Y-64374286D01*
X126067978Y-64374286D02*
X126067978Y-64088572D01*
X126067978Y-64088572D02*
X126020359Y-63993334D01*
X126020359Y-63993334D02*
X125972740Y-63945715D01*
X125972740Y-63945715D02*
X125877502Y-63898096D01*
X125877502Y-63898096D02*
X125734645Y-63898096D01*
X125734645Y-63898096D02*
X125639407Y-63945715D01*
X125639407Y-63945715D02*
X125591788Y-63993334D01*
X125591788Y-63993334D02*
X125544169Y-64088572D01*
X125544169Y-64088572D02*
X125544169Y-64374286D01*
X125544169Y-64374286D02*
X125591788Y-64469524D01*
X125591788Y-64469524D02*
X125639407Y-64517144D01*
X125639407Y-64517144D02*
X125734645Y-64564763D01*
X125734645Y-64564763D02*
X125877502Y-64564763D01*
X124687026Y-63898096D02*
X124687026Y-64564763D01*
X125115597Y-63898096D02*
X125115597Y-64421905D01*
X125115597Y-64421905D02*
X125067978Y-64517144D01*
X125067978Y-64517144D02*
X124972740Y-64564763D01*
X124972740Y-64564763D02*
X124829883Y-64564763D01*
X124829883Y-64564763D02*
X124734645Y-64517144D01*
X124734645Y-64517144D02*
X124687026Y-64469524D01*
X124353692Y-63898096D02*
X123972740Y-63898096D01*
X124210835Y-63564763D02*
X124210835Y-64421905D01*
X124210835Y-64421905D02*
X124163216Y-64517144D01*
X124163216Y-64517144D02*
X124067978Y-64564763D01*
X124067978Y-64564763D02*
X123972740Y-64564763D01*
%LPC*%
D11*
X170460000Y-81295000D03*
D12*
X173000000Y-81295000D03*
X170460000Y-83835000D03*
X173000000Y-83835000D03*
X170460000Y-86375000D03*
X173000000Y-86375000D03*
X170460000Y-88915000D03*
X173000000Y-88915000D03*
X170460000Y-91455000D03*
X173000000Y-91455000D03*
D11*
X123500000Y-68000000D03*
D12*
X123500000Y-70540000D03*
X123500000Y-73080000D03*
X123500000Y-75620000D03*
X123500000Y-78160000D03*
X123500000Y-80700000D03*
X123500000Y-83240000D03*
X123500000Y-85780000D03*
X123500000Y-88320000D03*
X123500000Y-90860000D03*
X123500000Y-93400000D03*
X123500000Y-95940000D03*
X123500000Y-98480000D03*
X123500000Y-101020000D03*
X123500000Y-103560000D03*
X123500000Y-106100000D03*
X155900000Y-68000000D03*
X153360000Y-68000000D03*
X150820000Y-68000000D03*
X148280000Y-68000000D03*
X145740000Y-68000000D03*
X143200000Y-68000000D03*
X140660000Y-68000000D03*
X138120000Y-68000000D03*
X135580000Y-68000000D03*
X133040000Y-68000000D03*
X130500000Y-68000000D03*
D11*
X127960000Y-68000000D03*
D13*
X176000000Y-112500000D03*
X119500000Y-112500000D03*
X176000000Y-62500000D03*
X119500000Y-62500000D03*
D12*
X160500000Y-103560000D03*
X160500000Y-101020000D03*
X160500000Y-98480000D03*
X160500000Y-95940000D03*
X160500000Y-93400000D03*
X160500000Y-90860000D03*
X160500000Y-88320000D03*
X160500000Y-85780000D03*
X160500000Y-83240000D03*
X160500000Y-80700000D03*
X160500000Y-78160000D03*
X160500000Y-75620000D03*
X160500000Y-73080000D03*
X160500000Y-70540000D03*
D11*
X160500000Y-68000000D03*
D12*
X170500000Y-74540000D03*
X170500000Y-72000000D03*
D11*
X170500000Y-69460000D03*
X127480000Y-108000000D03*
D12*
X130020000Y-108000000D03*
X132560000Y-108000000D03*
X135100000Y-108000000D03*
X137640000Y-108000000D03*
X140180000Y-108000000D03*
X142720000Y-108000000D03*
X145260000Y-108000000D03*
X147800000Y-108000000D03*
X150340000Y-108000000D03*
X152880000Y-108000000D03*
X155420000Y-108000000D03*
X157960000Y-108000000D03*
X160500000Y-108000000D03*
D14*
X173000000Y-104540000D03*
D15*
X171730000Y-104540000D03*
X173000000Y-103270000D03*
X171730000Y-103270000D03*
X173000000Y-102000000D03*
X171730000Y-102000000D03*
X173000000Y-100730000D03*
X171730000Y-100730000D03*
X173000000Y-99460000D03*
X171730000Y-99460000D03*
%LPD*%
M02*
