M48
; DRILL file KiCad 10.0.3 date 2026-06-22T12:32:07
; FORMAT={-:-/ absolute / inch / decimal}
; #@! TF.CreationDate,2026-06-22T12:32:07+02:00
; #@! TF.GenerationSoftware,Kicad,Pcbnew,10.0.3
; #@! TF.FileFunction,MixedPlating,1,2
FMAT,2
INCH
; #@! TA.AperFunction,Plated,PTH,ViaDrill
T1C0.0118
; #@! TA.AperFunction,Plated,PTH,ComponentDrill
T2C0.0256
; #@! TA.AperFunction,Plated,PTH,ComponentDrill
T3C0.0394
; #@! TA.AperFunction,Plated,PTH,ComponentDrill
T4C0.1260
%
G90
G05
T1
X4.6654Y-3.3268
X4.6654Y-3.4252
X4.7244Y-3.3268
X4.7244Y-3.4252
X5.0394Y-4.0551
X5.0394Y-4.1142
X5.0591Y-2.7953
X5.0984Y-4.0551
X5.0984Y-4.1142
X5.1181Y-2.8543
X6.1417Y-4.0551
X6.1417Y-4.1142
X6.2008Y-4.0551
X6.2008Y-4.1142
X6.4469Y-3.0807
X6.4764Y-2.9331
X6.4764Y-3.0315
X6.4764Y-4.1535
X6.4764Y-4.2323
X6.4961Y-3.2543
X6.4961Y-3.8583
X6.5157Y-2.7165
X6.5157Y-2.7953
X6.5354Y-3.4449
X6.5453Y-3.8484
X6.5551Y-2.9331
X6.5551Y-3.0315
X6.5551Y-4.1535
X6.5551Y-4.2323
X6.5748Y-3.6006
X6.5945Y-2.7165
X6.5945Y-2.7953
X6.602Y-3.8386
X6.6142Y-3.4006
X6.6732Y-3.8386
X6.7323Y-3.8386
X6.8504Y-2.9921
X6.8898Y-3.8583
X6.8898Y-3.8976
X6.8898Y-3.937
X6.8898Y-3.9764
X6.9094Y-2.9921
X6.9094Y-3.0512
T2
X6.761Y-3.9157
X6.761Y-3.9657
X6.761Y-4.0157
X6.761Y-4.0657
X6.761Y-4.1157
X6.811Y-3.9157
X6.811Y-3.9657
X6.811Y-4.0157
X6.811Y-4.0657
X6.811Y-4.1157
T3
X4.8622Y-2.6772
X4.8622Y-2.7772
X4.8622Y-2.8772
X4.8622Y-2.9772
X4.8622Y-3.0772
X4.8622Y-3.1772
X4.8622Y-3.2772
X4.8622Y-3.3772
X4.8622Y-3.4772
X4.8622Y-3.5772
X4.8622Y-3.6772
X4.8622Y-3.7772
X4.8622Y-3.8772
X4.8622Y-3.9772
X4.8622Y-4.0772
X4.8622Y-4.1772
X5.0189Y-4.252
X5.0378Y-2.6772
X5.1189Y-4.252
X5.1378Y-2.6772
X5.2189Y-4.252
X5.2378Y-2.6772
X5.3189Y-4.252
X5.3378Y-2.6772
X5.4189Y-4.252
X5.4378Y-2.6772
X5.5189Y-4.252
X5.5378Y-2.6772
X5.6189Y-4.252
X5.6378Y-2.6772
X5.7189Y-4.252
X5.7378Y-2.6772
X5.8189Y-4.252
X5.8378Y-2.6772
X5.9189Y-4.252
X5.9378Y-2.6772
X6.0189Y-4.252
X6.0378Y-2.6772
X6.1189Y-4.252
X6.1378Y-2.6772
X6.2189Y-4.252
X6.3189Y-2.6772
X6.3189Y-2.7772
X6.3189Y-2.8772
X6.3189Y-2.9772
X6.3189Y-3.0772
X6.3189Y-3.1772
X6.3189Y-3.2772
X6.3189Y-3.3772
X6.3189Y-3.4772
X6.3189Y-3.5772
X6.3189Y-3.6772
X6.3189Y-3.7772
X6.3189Y-3.8772
X6.3189Y-3.9772
X6.3189Y-4.0772
X6.3189Y-4.252
X6.711Y-3.2006
X6.711Y-3.3006
X6.711Y-3.4006
X6.711Y-3.5006
X6.711Y-3.6006
X6.7126Y-2.7346
X6.7126Y-2.8346
X6.7126Y-2.9346
X6.811Y-3.2006
X6.811Y-3.3006
X6.811Y-3.4006
X6.811Y-3.5006
X6.811Y-3.6006
T4
X4.7047Y-2.4606
X4.7047Y-4.4291
X6.9291Y-2.4606
X6.9291Y-4.4291
M30
