G04 #@! TF.GenerationSoftware,KiCad,Pcbnew,10.0.3*
G04 #@! TF.CreationDate,2026-06-22T12:30:59+02:00*
G04 #@! TF.ProjectId,vocore2-breakout,766f636f-7265-4322-9d62-7265616b6f75,rev?*
G04 #@! TF.SameCoordinates,Original*
G04 #@! TF.FileFunction,Copper,L1,Top*
G04 #@! TF.FilePolarity,Positive*
%FSLAX46Y46*%
G04 Gerber Fmt 4.6, Leading zero omitted, Abs format (unit mm)*
G04 Created by KiCad (PCBNEW 10.0.3) date 2026-06-22 12:30:59*
%MOMM*%
%LPD*%
G01*
G04 APERTURE LIST*
G04 Aperture macros list*
%AMRoundRect*
0 Rectangle with rounded corners*
0 $1 Rounding radius*
0 $2 $3 $4 $5 $6 $7 $8 $9 X,Y pos of 4 corners*
0 Add a 4 corners polygon primitive as box body*
4,1,4,$2,$3,$4,$5,$6,$7,$8,$9,$2,$3,0*
0 Add four circle primitives for the rounded corners*
1,1,$1+$1,$2,$3*
1,1,$1+$1,$4,$5*
1,1,$1+$1,$6,$7*
1,1,$1+$1,$8,$9*
0 Add four rect primitives between the rounded corners*
20,1,$1+$1,$2,$3,$4,$5,0*
20,1,$1+$1,$4,$5,$6,$7,0*
20,1,$1+$1,$6,$7,$8,$9,0*
20,1,$1+$1,$8,$9,$2,$3,0*%
G04 Aperture macros list end*
G04 #@! TA.AperFunction,ComponentPad*
%ADD10R,1.700000X1.700000*%
G04 #@! TD*
G04 #@! TA.AperFunction,ComponentPad*
%ADD11C,1.700000*%
G04 #@! TD*
G04 #@! TA.AperFunction,SMDPad,CuDef*
%ADD12O,0.800000X2.500000*%
G04 #@! TD*
G04 #@! TA.AperFunction,SMDPad,CuDef*
%ADD13O,2.500000X0.800000*%
G04 #@! TD*
G04 #@! TA.AperFunction,ComponentPad*
%ADD14C,5.600000*%
G04 #@! TD*
G04 #@! TA.AperFunction,ComponentPad*
%ADD15R,1.000000X1.000000*%
G04 #@! TD*
G04 #@! TA.AperFunction,ComponentPad*
%ADD16C,1.000000*%
G04 #@! TD*
G04 #@! TA.AperFunction,SMDPad,CuDef*
%ADD17RoundRect,0.250000X0.350000X0.450000X-0.350000X0.450000X-0.350000X-0.450000X0.350000X-0.450000X0*%
G04 #@! TD*
G04 #@! TA.AperFunction,SMDPad,CuDef*
%ADD18RoundRect,0.250000X-0.350000X-0.450000X0.350000X-0.450000X0.350000X0.450000X-0.350000X0.450000X0*%
G04 #@! TD*
G04 #@! TA.AperFunction,ViaPad*
%ADD19C,0.600000*%
G04 #@! TD*
G04 #@! TA.AperFunction,Conductor*
%ADD20C,0.500000*%
G04 #@! TD*
G04 #@! TA.AperFunction,Conductor*
%ADD21C,1.000000*%
G04 #@! TD*
G04 APERTURE END LIST*
D10*
X170460000Y-81295000D03*
D11*
X173000000Y-81295000D03*
X170460000Y-83835000D03*
X173000000Y-83835000D03*
X170460000Y-86375000D03*
X173000000Y-86375000D03*
X170460000Y-88915000D03*
X173000000Y-88915000D03*
X170460000Y-91455000D03*
X173000000Y-91455000D03*
D12*
X147826200Y-75000000D03*
X146556200Y-75000000D03*
X145286200Y-75000000D03*
X144016200Y-75000000D03*
X142746200Y-75000000D03*
X141476200Y-75000000D03*
X140206200Y-75000000D03*
X138936200Y-75000000D03*
X137666200Y-75000000D03*
X136396200Y-75000000D03*
X135126200Y-75000000D03*
X133856200Y-75000000D03*
D13*
X154000000Y-99207800D03*
X154000000Y-97937800D03*
X154000000Y-96667800D03*
X154000000Y-95397800D03*
X154000000Y-94127800D03*
X154000000Y-92857800D03*
X154000000Y-91587800D03*
X154000000Y-90317800D03*
X154000000Y-89047800D03*
X154000000Y-87777800D03*
X154000000Y-86507800D03*
X154000000Y-85237800D03*
X154000000Y-83967800D03*
X154000000Y-82697800D03*
X154000000Y-81427800D03*
X129000000Y-97302800D03*
X129000000Y-96032800D03*
X129000000Y-94762800D03*
X129000000Y-93492800D03*
X129000000Y-92222800D03*
X129000000Y-90952800D03*
X129000000Y-89682800D03*
X129000000Y-88412800D03*
X129000000Y-87142800D03*
X129000000Y-85872800D03*
X129000000Y-84602800D03*
X129000000Y-83332800D03*
X129000000Y-82062800D03*
X129000000Y-80792800D03*
X129000000Y-79522800D03*
X129000000Y-78252800D03*
D12*
X146251400Y-100000000D03*
X144981400Y-100000000D03*
X143711400Y-100000000D03*
X142441400Y-100000000D03*
X141171400Y-100000000D03*
X139901400Y-100000000D03*
X138631400Y-100000000D03*
X137361400Y-100000000D03*
X136091400Y-100000000D03*
X134821400Y-100000000D03*
X133551400Y-100000000D03*
X132281400Y-100000000D03*
X131011400Y-100000000D03*
X129741400Y-100000000D03*
D10*
X123500000Y-68000000D03*
D11*
X123500000Y-70540000D03*
X123500000Y-73080000D03*
X123500000Y-75620000D03*
X123500000Y-78160000D03*
X123500000Y-80700000D03*
X123500000Y-83240000D03*
X123500000Y-85780000D03*
X123500000Y-88320000D03*
X123500000Y-90860000D03*
X123500000Y-93400000D03*
X123500000Y-95940000D03*
X123500000Y-98480000D03*
X123500000Y-101020000D03*
X123500000Y-103560000D03*
X123500000Y-106100000D03*
X155900000Y-68000000D03*
X153360000Y-68000000D03*
X150820000Y-68000000D03*
X148280000Y-68000000D03*
X145740000Y-68000000D03*
X143200000Y-68000000D03*
X140660000Y-68000000D03*
X138120000Y-68000000D03*
X135580000Y-68000000D03*
X133040000Y-68000000D03*
X130500000Y-68000000D03*
D10*
X127960000Y-68000000D03*
D14*
X176000000Y-112500000D03*
X119500000Y-112500000D03*
X176000000Y-62500000D03*
X119500000Y-62500000D03*
D11*
X160500000Y-103560000D03*
X160500000Y-101020000D03*
X160500000Y-98480000D03*
X160500000Y-95940000D03*
X160500000Y-93400000D03*
X160500000Y-90860000D03*
X160500000Y-88320000D03*
X160500000Y-85780000D03*
X160500000Y-83240000D03*
X160500000Y-80700000D03*
X160500000Y-78160000D03*
X160500000Y-75620000D03*
X160500000Y-73080000D03*
X160500000Y-70540000D03*
D10*
X160500000Y-68000000D03*
D11*
X170500000Y-74540000D03*
X170500000Y-72000000D03*
D10*
X170500000Y-69460000D03*
X127480000Y-108000000D03*
D11*
X130020000Y-108000000D03*
X132560000Y-108000000D03*
X135100000Y-108000000D03*
X137640000Y-108000000D03*
X140180000Y-108000000D03*
X142720000Y-108000000D03*
X145260000Y-108000000D03*
X147800000Y-108000000D03*
X150340000Y-108000000D03*
X152880000Y-108000000D03*
X155420000Y-108000000D03*
X157960000Y-108000000D03*
X160500000Y-108000000D03*
D15*
X173000000Y-104540000D03*
D16*
X171730000Y-104540000D03*
X173000000Y-103270000D03*
X171730000Y-103270000D03*
X173000000Y-102000000D03*
X171730000Y-102000000D03*
X173000000Y-100730000D03*
X171730000Y-100730000D03*
X173000000Y-99460000D03*
X171730000Y-99460000D03*
D17*
X171500000Y-77500000D03*
X169500000Y-77500000D03*
X169500000Y-66500000D03*
X171500000Y-66500000D03*
D18*
X178000000Y-90500000D03*
X176000000Y-90500000D03*
X178000000Y-83000000D03*
X176000000Y-83000000D03*
X178000000Y-85500000D03*
X176000000Y-85500000D03*
X176000000Y-88000000D03*
X178000000Y-88000000D03*
X176000000Y-80500000D03*
X178000000Y-80500000D03*
D19*
X168000000Y-86375000D03*
X171000000Y-97500000D03*
X175500000Y-77500000D03*
X175000000Y-98000000D03*
X175000000Y-99000000D03*
X175000000Y-100000000D03*
X175000000Y-101000000D03*
X120000000Y-84500000D03*
X118500000Y-84500000D03*
X120000000Y-87000000D03*
X118500000Y-87000000D03*
X165500000Y-69000000D03*
X165500000Y-71000000D03*
X166500000Y-107500000D03*
X164500000Y-107500000D03*
X166500000Y-105500000D03*
X164500000Y-105500000D03*
X175500000Y-76000000D03*
X174000000Y-76000000D03*
X167500000Y-69000000D03*
X167500000Y-71000000D03*
X164500000Y-77000000D03*
X166500000Y-77000000D03*
X166500000Y-74500000D03*
X164500000Y-74500000D03*
X130000000Y-72500000D03*
X128500000Y-71000000D03*
X128000000Y-104500000D03*
X128000000Y-103000000D03*
X129500000Y-103000000D03*
X129500000Y-104500000D03*
X156000000Y-103000000D03*
X156000000Y-104500000D03*
X157500000Y-104500000D03*
X157500000Y-103000000D03*
X169500000Y-97500000D03*
X167000000Y-91455000D03*
X167690000Y-97500000D03*
X166000000Y-87500000D03*
X165000000Y-82660000D03*
X166250000Y-97750000D03*
X165000000Y-98000000D03*
X163750000Y-78250000D03*
D20*
X166175000Y-86375000D02*
X168000000Y-86375000D01*
X144981400Y-100981400D02*
X146500000Y-102500000D01*
X144981400Y-100000000D02*
X144981400Y-100981400D01*
X144981400Y-100000000D02*
X146251400Y-100000000D01*
X174730000Y-103270000D02*
X175000000Y-103000000D01*
X173000000Y-103270000D02*
X174730000Y-103270000D01*
X173000000Y-102000000D02*
X174500000Y-102000000D01*
X173000000Y-104540000D02*
X175960000Y-104540000D01*
X176500000Y-104000000D02*
X176500000Y-97380000D01*
X175960000Y-104540000D02*
X176500000Y-104000000D01*
X176500000Y-97380000D02*
X175060000Y-95940000D01*
X160500000Y-68000000D02*
X163500000Y-68000000D01*
X154000000Y-81427800D02*
X154500000Y-80927800D01*
X154500000Y-80927800D02*
X154500000Y-74500000D01*
X154500000Y-74500000D02*
X160500000Y-68500000D01*
X160500000Y-68500000D02*
X160500000Y-68000000D01*
X147826200Y-75000000D02*
X147950000Y-75000000D01*
X147950000Y-75000000D02*
X152450000Y-70500000D01*
X152450000Y-70500000D02*
X153500000Y-70500000D01*
X153500000Y-70500000D02*
X155900000Y-68100000D01*
X155900000Y-68100000D02*
X155900000Y-68000000D01*
X146556200Y-75000000D02*
X146556200Y-73443800D01*
X146556200Y-73443800D02*
X149500000Y-70500000D01*
X149500000Y-70500000D02*
X150500000Y-70500000D01*
X150500000Y-70500000D02*
X153000000Y-68000000D01*
X153000000Y-68000000D02*
X153360000Y-68000000D01*
X145286200Y-75000000D02*
X145286200Y-72873800D01*
X145286200Y-72873800D02*
X150160000Y-68000000D01*
X150160000Y-68000000D02*
X150820000Y-68000000D01*
X144016200Y-75000000D02*
X144016200Y-71983800D01*
X144016200Y-71983800D02*
X148000000Y-68000000D01*
X148000000Y-68000000D02*
X148280000Y-68000000D01*
X160500000Y-68000000D02*
X160500000Y-66000000D01*
X178000000Y-80500000D02*
X178000000Y-73000000D01*
X178000000Y-73000000D02*
X171500000Y-66500000D01*
D21*
X143711400Y-101729071D02*
X143711400Y-100000000D01*
X152880000Y-108000000D02*
X152500000Y-107620000D01*
X152500000Y-107620000D02*
X152500000Y-106000000D01*
X152500000Y-106000000D02*
X151500000Y-105000000D01*
X151500000Y-105000000D02*
X146982329Y-105000000D01*
X146982329Y-105000000D02*
X143711400Y-101729071D01*
X142441400Y-100000000D02*
X143711400Y-100000000D01*
D20*
X142441400Y-100941400D02*
X142441400Y-100000000D01*
X169500000Y-97500000D02*
X169500000Y-98573503D01*
X169500000Y-98573503D02*
X171656497Y-100730000D01*
X171656497Y-100730000D02*
X171730000Y-100730000D01*
X166250000Y-97750000D02*
X166250000Y-97863503D01*
X166250000Y-97863503D02*
X171656497Y-103270000D01*
X171656497Y-103270000D02*
X171730000Y-103270000D01*
X167690000Y-98033503D02*
X171656497Y-102000000D01*
X167690000Y-97500000D02*
X167690000Y-98033503D01*
X171656497Y-102000000D02*
X171730000Y-102000000D01*
X165000000Y-98000000D02*
X171540000Y-104540000D01*
X171540000Y-104540000D02*
X171730000Y-104540000D01*
X160500000Y-78160000D02*
X165000000Y-82660000D01*
X165000000Y-82660000D02*
X166175000Y-83835000D01*
X166175000Y-83835000D02*
X170500000Y-83835000D01*
X166175000Y-91455000D02*
X167000000Y-91455000D01*
X164760000Y-87500000D02*
X166000000Y-87500000D01*
X163750000Y-78250000D02*
X166795000Y-81295000D01*
X157000000Y-83019882D02*
X154782082Y-85237800D01*
X172210000Y-95940000D02*
X175000000Y-95940000D01*
X178000000Y-93000000D02*
X175060000Y-95940000D01*
X175060000Y-95940000D02*
X172210000Y-95940000D01*
X178000000Y-93000000D02*
X178000000Y-80500000D01*
X160500000Y-95940000D02*
X172210000Y-95940000D01*
X173040000Y-91455000D02*
X175045000Y-91455000D01*
X175045000Y-91455000D02*
X176000000Y-90500000D01*
X173040000Y-88915000D02*
X175085000Y-88915000D01*
X175085000Y-88915000D02*
X176000000Y-88000000D01*
X173040000Y-86375000D02*
X175125000Y-86375000D01*
X175125000Y-86375000D02*
X176000000Y-85500000D01*
X173040000Y-83835000D02*
X175165000Y-83835000D01*
X175165000Y-83835000D02*
X176000000Y-83000000D01*
X173040000Y-81295000D02*
X175205000Y-81295000D01*
X175205000Y-81295000D02*
X176000000Y-80500000D01*
X160500000Y-85780000D02*
X166175000Y-91455000D01*
X167000000Y-91455000D02*
X170500000Y-91455000D01*
X160500000Y-83240000D02*
X164760000Y-87500000D01*
X166000000Y-87500000D02*
X169085000Y-87500000D01*
X169085000Y-87500000D02*
X170500000Y-88915000D01*
X160500000Y-80700000D02*
X166175000Y-86375000D01*
X168000000Y-86375000D02*
X170500000Y-86375000D01*
X160500000Y-75620000D02*
X161120000Y-75620000D01*
X161120000Y-75620000D02*
X163750000Y-78250000D01*
X166795000Y-81295000D02*
X170500000Y-81295000D01*
X160500000Y-73080000D02*
X169420000Y-73080000D01*
X169420000Y-73080000D02*
X170500000Y-72000000D01*
X170500000Y-74540000D02*
X170500000Y-76500000D01*
X170500000Y-76500000D02*
X169500000Y-77500000D01*
X170500000Y-69460000D02*
X170500000Y-67500000D01*
X170500000Y-67500000D02*
X169500000Y-66500000D01*
X143711400Y-100000000D02*
X143711400Y-100950000D01*
X141171400Y-100000000D02*
X141171400Y-100950000D01*
X141171400Y-100950000D02*
X146921400Y-106700000D01*
X146921400Y-106700000D02*
X149040000Y-106700000D01*
X149040000Y-106700000D02*
X150340000Y-108000000D01*
X139901400Y-100000000D02*
X139901400Y-100782082D01*
X139901400Y-100782082D02*
X147119318Y-108000000D01*
X147119318Y-108000000D02*
X147800000Y-108000000D01*
X138631400Y-100000000D02*
X138631400Y-101371400D01*
X138631400Y-101371400D02*
X145260000Y-108000000D01*
X137361400Y-100000000D02*
X137361400Y-102641400D01*
X137361400Y-102641400D02*
X142720000Y-108000000D01*
X136091400Y-100000000D02*
X136091400Y-103911400D01*
X136091400Y-103911400D02*
X140180000Y-108000000D01*
X134821400Y-100000000D02*
X134821400Y-105181400D01*
X134821400Y-105181400D02*
X137640000Y-108000000D01*
X133551400Y-100000000D02*
X133551400Y-106451400D01*
X133551400Y-106451400D02*
X135100000Y-108000000D01*
X132281400Y-100000000D02*
X132281400Y-107721400D01*
X132281400Y-107721400D02*
X132560000Y-108000000D01*
X130020000Y-108000000D02*
X131011400Y-107008600D01*
X131011400Y-107008600D02*
X131011400Y-100000000D01*
X142746200Y-75000000D02*
X142746200Y-70993800D01*
X142746200Y-70993800D02*
X145740000Y-68000000D01*
X141476200Y-75000000D02*
X141476200Y-69723800D01*
X141476200Y-69723800D02*
X143200000Y-68000000D01*
X140206200Y-75000000D02*
X140206200Y-68453800D01*
X140206200Y-68453800D02*
X140660000Y-68000000D01*
X138936200Y-75000000D02*
X138936200Y-68816200D01*
X138936200Y-68816200D02*
X138120000Y-68000000D01*
X137666200Y-75000000D02*
X137666200Y-70086200D01*
X137666200Y-70086200D02*
X135580000Y-68000000D01*
X136396200Y-75000000D02*
X136396200Y-71356200D01*
X136396200Y-71356200D02*
X133040000Y-68000000D01*
X135126200Y-75000000D02*
X135126200Y-72626200D01*
X135126200Y-72626200D02*
X130500000Y-68000000D01*
X133856200Y-75000000D02*
X133856200Y-73896200D01*
X133856200Y-73896200D02*
X127960000Y-68000000D01*
X160500000Y-103560000D02*
X156147800Y-99207800D01*
X156147800Y-99207800D02*
X154000000Y-99207800D01*
X160500000Y-95940000D02*
X159957800Y-95397800D01*
X159957800Y-95397800D02*
X154000000Y-95397800D01*
X160500000Y-93400000D02*
X159772200Y-94127800D01*
X159772200Y-94127800D02*
X154000000Y-94127800D01*
X160500000Y-90860000D02*
X158502200Y-92857800D01*
X158502200Y-92857800D02*
X154000000Y-92857800D01*
X160500000Y-88320000D02*
X157232200Y-91587800D01*
X157232200Y-91587800D02*
X154000000Y-91587800D01*
X160500000Y-85780000D02*
X155962200Y-90317800D01*
X155962200Y-90317800D02*
X154000000Y-90317800D01*
X160500000Y-83240000D02*
X160500000Y-83397800D01*
X160500000Y-83397800D02*
X154850000Y-89047800D01*
X154850000Y-89047800D02*
X154000000Y-89047800D01*
X160500000Y-80700000D02*
X159300000Y-81900000D01*
X159300000Y-81900000D02*
X159300000Y-82699782D01*
X159300000Y-82699782D02*
X158200000Y-83799782D01*
X158200000Y-84359882D02*
X154782082Y-87777800D01*
X158200000Y-83799782D02*
X158200000Y-84359882D01*
X154782082Y-87777800D02*
X154000000Y-87777800D01*
X160500000Y-78160000D02*
X157800000Y-80860000D01*
X157800000Y-80860000D02*
X157800000Y-82997699D01*
X157800000Y-82997699D02*
X157700000Y-83097699D01*
X157700000Y-83097699D02*
X157700000Y-83309832D01*
X157700000Y-83309832D02*
X157500000Y-83509831D01*
X157500000Y-83509831D02*
X157500000Y-84000000D01*
X157500000Y-84000000D02*
X154992200Y-86507800D01*
X154992200Y-86507800D02*
X154000000Y-86507800D01*
X160500000Y-75620000D02*
X157100000Y-79020000D01*
X157100000Y-79020000D02*
X157100000Y-82707750D01*
X157100000Y-82707750D02*
X157000000Y-82807749D01*
X157000000Y-82807749D02*
X157000000Y-83019882D01*
X154782082Y-85237800D02*
X154000000Y-85237800D01*
X160500000Y-73080000D02*
X156400000Y-77180000D01*
X156400000Y-77180000D02*
X156400000Y-82417800D01*
X156400000Y-82417800D02*
X154850000Y-83967800D01*
X154850000Y-83967800D02*
X154000000Y-83967800D01*
X160500000Y-70540000D02*
X155700000Y-75340000D01*
X155700000Y-75340000D02*
X155700000Y-81779882D01*
X155700000Y-81779882D02*
X154782082Y-82697800D01*
X154782082Y-82697800D02*
X154000000Y-82697800D01*
X129000000Y-97302800D02*
X127000000Y-99302800D01*
X127000000Y-99302800D02*
X127000000Y-102600000D01*
X127000000Y-102600000D02*
X123500000Y-106100000D01*
X129000000Y-96032800D02*
X128150000Y-96032800D01*
X128150000Y-96032800D02*
X125700000Y-98482800D01*
X125700000Y-98482800D02*
X125700000Y-101360000D01*
X125700000Y-101360000D02*
X123500000Y-103560000D01*
X129000000Y-94762800D02*
X128150000Y-94762800D01*
X128150000Y-94762800D02*
X125000000Y-97912800D01*
X125000000Y-97912800D02*
X125000000Y-99520000D01*
X125000000Y-99520000D02*
X123500000Y-101020000D01*
X129000000Y-93492800D02*
X128150000Y-93492800D01*
X128150000Y-93492800D02*
X123500000Y-98142800D01*
X123500000Y-98142800D02*
X123500000Y-98480000D01*
X129000000Y-92222800D02*
X127217200Y-92222800D01*
X127217200Y-92222800D02*
X123500000Y-95940000D01*
X129000000Y-90952800D02*
X125947200Y-90952800D01*
X125947200Y-90952800D02*
X123500000Y-93400000D01*
X129000000Y-89682800D02*
X124677200Y-89682800D01*
X124677200Y-89682800D02*
X123500000Y-90860000D01*
X129000000Y-88412800D02*
X123592800Y-88412800D01*
X123592800Y-88412800D02*
X123500000Y-88320000D01*
X129000000Y-87142800D02*
X124862800Y-87142800D01*
X124862800Y-87142800D02*
X123500000Y-85780000D01*
X129000000Y-85872800D02*
X126132800Y-85872800D01*
X126132800Y-85872800D02*
X123500000Y-83240000D01*
X129000000Y-84602800D02*
X127402800Y-84602800D01*
X127402800Y-84602800D02*
X123500000Y-80700000D01*
X129000000Y-83332800D02*
X128150000Y-83332800D01*
X128150000Y-83332800D02*
X123500000Y-78682800D01*
X123500000Y-78682800D02*
X123500000Y-78160000D01*
X129000000Y-82062800D02*
X128150000Y-82062800D01*
X128150000Y-82062800D02*
X125500000Y-79412800D01*
X125500000Y-79412800D02*
X125500000Y-77620000D01*
X125500000Y-77620000D02*
X123500000Y-75620000D01*
X129000000Y-80792800D02*
X128150000Y-80792800D01*
X128150000Y-80792800D02*
X126500000Y-79142800D01*
X126500000Y-79142800D02*
X126500000Y-78862750D01*
X126500000Y-78862750D02*
X126300000Y-78662749D01*
X126300000Y-78662749D02*
X126300000Y-75880000D01*
X126300000Y-75880000D02*
X123500000Y-73080000D01*
X129000000Y-79522800D02*
X128150000Y-79522800D01*
X128150000Y-79522800D02*
X127000000Y-78372800D01*
X127000000Y-78372800D02*
X127000000Y-74040000D01*
X127000000Y-74040000D02*
X123500000Y-70540000D01*
X129000000Y-78252800D02*
X129000000Y-73500000D01*
X129000000Y-73500000D02*
X123500000Y-68000000D01*
D21*
X152880000Y-108000000D02*
X155420000Y-108000000D01*
G04 #@! TA.AperFunction,Conductor*
G36*
X176020896Y-59519684D02*
G01*
X176041695Y-59536475D01*
X178945678Y-62450852D01*
X178979053Y-62512234D01*
X178981837Y-62539263D01*
X178909787Y-72612775D01*
X178889623Y-72679672D01*
X178836493Y-72725048D01*
X178767266Y-72734497D01*
X178703919Y-72705018D01*
X178671228Y-72659339D01*
X178665084Y-72644505D01*
X178665080Y-72644498D01*
X178582952Y-72521585D01*
X178579779Y-72518412D01*
X178478416Y-72417049D01*
X175564616Y-69503249D01*
X172636818Y-66575450D01*
X172603333Y-66514127D01*
X172600499Y-66487769D01*
X172600499Y-65999998D01*
X172600498Y-65999981D01*
X172589999Y-65897203D01*
X172589998Y-65897200D01*
X172534814Y-65730666D01*
X172442712Y-65581344D01*
X172318656Y-65457288D01*
X172169334Y-65365186D01*
X172002797Y-65310001D01*
X172002795Y-65310000D01*
X171900010Y-65299500D01*
X171099998Y-65299500D01*
X171099980Y-65299501D01*
X170997203Y-65310000D01*
X170997200Y-65310001D01*
X170830668Y-65365185D01*
X170830663Y-65365187D01*
X170681342Y-65457289D01*
X170587681Y-65550951D01*
X170526358Y-65584436D01*
X170456666Y-65579452D01*
X170412319Y-65550951D01*
X170318657Y-65457289D01*
X170318656Y-65457288D01*
X170169334Y-65365186D01*
X170002797Y-65310001D01*
X170002795Y-65310000D01*
X169900010Y-65299500D01*
X169099998Y-65299500D01*
X169099980Y-65299501D01*
X168997203Y-65310000D01*
X168997200Y-65310001D01*
X168830668Y-65365185D01*
X168830663Y-65365187D01*
X168681342Y-65457289D01*
X168557289Y-65581342D01*
X168465187Y-65730663D01*
X168465186Y-65730666D01*
X168410001Y-65897203D01*
X168410001Y-65897204D01*
X168410000Y-65897204D01*
X168399500Y-65999983D01*
X168399500Y-67000001D01*
X168399501Y-67000019D01*
X168410000Y-67102796D01*
X168410001Y-67102799D01*
X168414679Y-67116915D01*
X168465186Y-67269334D01*
X168557288Y-67418656D01*
X168681344Y-67542712D01*
X168830666Y-67634814D01*
X168997203Y-67689999D01*
X169099991Y-67700500D01*
X169587768Y-67700499D01*
X169617212Y-67709144D01*
X169647193Y-67715666D01*
X169652207Y-67719419D01*
X169654807Y-67720183D01*
X169675448Y-67736817D01*
X169713180Y-67774548D01*
X169746666Y-67835870D01*
X169749500Y-67862230D01*
X169749500Y-67985500D01*
X169729815Y-68052539D01*
X169677011Y-68098294D01*
X169625505Y-68109500D01*
X169602132Y-68109500D01*
X169602123Y-68109501D01*
X169542516Y-68115908D01*
X169407671Y-68166202D01*
X169407664Y-68166206D01*
X169292455Y-68252452D01*
X169292452Y-68252455D01*
X169206206Y-68367664D01*
X169206202Y-68367671D01*
X169155908Y-68502517D01*
X169149501Y-68562116D01*
X169149501Y-68562123D01*
X169149500Y-68562135D01*
X169149500Y-70357870D01*
X169149501Y-70357876D01*
X169155908Y-70417483D01*
X169206202Y-70552328D01*
X169206206Y-70552335D01*
X169292452Y-70667544D01*
X169292455Y-70667547D01*
X169407664Y-70753793D01*
X169407671Y-70753797D01*
X169539082Y-70802810D01*
X169595016Y-70844681D01*
X169619433Y-70910145D01*
X169604582Y-70978418D01*
X169583431Y-71006673D01*
X169469889Y-71120215D01*
X169344951Y-71292179D01*
X169248444Y-71481585D01*
X169182753Y-71683760D01*
X169149500Y-71893713D01*
X169149500Y-72106292D01*
X169162141Y-72186102D01*
X169153187Y-72255395D01*
X169108191Y-72308847D01*
X169041439Y-72329487D01*
X169039668Y-72329500D01*
X162624000Y-72329500D01*
X162556961Y-72309815D01*
X162511206Y-72257011D01*
X162500000Y-72205500D01*
X162500000Y-66662806D01*
X161496918Y-66662806D01*
X161465191Y-66657081D01*
X161464930Y-66658187D01*
X161457372Y-66656401D01*
X161397844Y-66650000D01*
X160730452Y-66650000D01*
X160712190Y-66659972D01*
X160685832Y-66662806D01*
X160314168Y-66662806D01*
X160270556Y-66650000D01*
X159602155Y-66650000D01*
X159542627Y-66656401D01*
X159535070Y-66658187D01*
X159534808Y-66657081D01*
X159503082Y-66662806D01*
X156100054Y-66662806D01*
X156080656Y-66661279D01*
X156054151Y-66657081D01*
X156006287Y-66649500D01*
X155793713Y-66649500D01*
X155745849Y-66657081D01*
X155719344Y-66661279D01*
X155699946Y-66662806D01*
X153560054Y-66662806D01*
X153540656Y-66661279D01*
X153514151Y-66657081D01*
X153466287Y-66649500D01*
X153253713Y-66649500D01*
X153205849Y-66657081D01*
X153179344Y-66661279D01*
X153159946Y-66662806D01*
X151020054Y-66662806D01*
X151000656Y-66661279D01*
X150974151Y-66657081D01*
X150926287Y-66649500D01*
X150713713Y-66649500D01*
X150665849Y-66657081D01*
X150639344Y-66661279D01*
X150619946Y-66662806D01*
X148480054Y-66662806D01*
X148460656Y-66661279D01*
X148434151Y-66657081D01*
X148386287Y-66649500D01*
X148173713Y-66649500D01*
X148125849Y-66657081D01*
X148099344Y-66661279D01*
X148079946Y-66662806D01*
X146500000Y-66662806D01*
X146500000Y-66669188D01*
X146480315Y-66736227D01*
X146427511Y-66781982D01*
X146358353Y-66791926D01*
X146319705Y-66779673D01*
X146258414Y-66748444D01*
X146258413Y-66748443D01*
X146258412Y-66748443D01*
X146056243Y-66682754D01*
X146056241Y-66682753D01*
X146056240Y-66682753D01*
X145889858Y-66656401D01*
X145846287Y-66649500D01*
X145633713Y-66649500D01*
X145590142Y-66656401D01*
X145423760Y-66682753D01*
X145221585Y-66748444D01*
X145032179Y-66844951D01*
X144860213Y-66969890D01*
X144709890Y-67120213D01*
X144584949Y-67292182D01*
X144580484Y-67300946D01*
X144532509Y-67351742D01*
X144464688Y-67368536D01*
X144398553Y-67345998D01*
X144359516Y-67300946D01*
X144355050Y-67292182D01*
X144230109Y-67120213D01*
X144079786Y-66969890D01*
X143907820Y-66844951D01*
X143718414Y-66748444D01*
X143718413Y-66748443D01*
X143718412Y-66748443D01*
X143516243Y-66682754D01*
X143516241Y-66682753D01*
X143516240Y-66682753D01*
X143349858Y-66656401D01*
X143306287Y-66649500D01*
X143093713Y-66649500D01*
X143050142Y-66656401D01*
X142883760Y-66682753D01*
X142681585Y-66748444D01*
X142492179Y-66844951D01*
X142320213Y-66969890D01*
X142169890Y-67120213D01*
X142044949Y-67292182D01*
X142040484Y-67300946D01*
X141992509Y-67351742D01*
X141924688Y-67368536D01*
X141858553Y-67345998D01*
X141819516Y-67300946D01*
X141815050Y-67292182D01*
X141690109Y-67120213D01*
X141539786Y-66969890D01*
X141367820Y-66844951D01*
X141178414Y-66748444D01*
X141178413Y-66748443D01*
X141178412Y-66748443D01*
X140976243Y-66682754D01*
X140976241Y-66682753D01*
X140976240Y-66682753D01*
X140809858Y-66656401D01*
X140766287Y-66649500D01*
X140553713Y-66649500D01*
X140510142Y-66656401D01*
X140343760Y-66682753D01*
X140141585Y-66748444D01*
X139952179Y-66844951D01*
X139780213Y-66969890D01*
X139629890Y-67120213D01*
X139504949Y-67292182D01*
X139500484Y-67300946D01*
X139452509Y-67351742D01*
X139384688Y-67368536D01*
X139318553Y-67345998D01*
X139279516Y-67300946D01*
X139275050Y-67292182D01*
X139150109Y-67120213D01*
X138999786Y-66969890D01*
X138827820Y-66844951D01*
X138638414Y-66748444D01*
X138638413Y-66748443D01*
X138638412Y-66748443D01*
X138436243Y-66682754D01*
X138436241Y-66682753D01*
X138436240Y-66682753D01*
X138269858Y-66656401D01*
X138226287Y-66649500D01*
X138013713Y-66649500D01*
X137970142Y-66656401D01*
X137803760Y-66682753D01*
X137601585Y-66748444D01*
X137412179Y-66844951D01*
X137240213Y-66969890D01*
X137089890Y-67120213D01*
X136964949Y-67292182D01*
X136960484Y-67300946D01*
X136912509Y-67351742D01*
X136844688Y-67368536D01*
X136778553Y-67345998D01*
X136739516Y-67300946D01*
X136735050Y-67292182D01*
X136610109Y-67120213D01*
X136459786Y-66969890D01*
X136287820Y-66844951D01*
X136098414Y-66748444D01*
X136098413Y-66748443D01*
X136098412Y-66748443D01*
X135896243Y-66682754D01*
X135896241Y-66682753D01*
X135896240Y-66682753D01*
X135729858Y-66656401D01*
X135686287Y-66649500D01*
X135473713Y-66649500D01*
X135430142Y-66656401D01*
X135263760Y-66682753D01*
X135061585Y-66748444D01*
X134872179Y-66844951D01*
X134700213Y-66969890D01*
X134549890Y-67120213D01*
X134424949Y-67292182D01*
X134420484Y-67300946D01*
X134372509Y-67351742D01*
X134304688Y-67368536D01*
X134238553Y-67345998D01*
X134199516Y-67300946D01*
X134195050Y-67292182D01*
X134070109Y-67120213D01*
X133919786Y-66969890D01*
X133747820Y-66844951D01*
X133558414Y-66748444D01*
X133558413Y-66748443D01*
X133558412Y-66748443D01*
X133356243Y-66682754D01*
X133356241Y-66682753D01*
X133356240Y-66682753D01*
X133189858Y-66656401D01*
X133146287Y-66649500D01*
X132933713Y-66649500D01*
X132890142Y-66656401D01*
X132723760Y-66682753D01*
X132521585Y-66748444D01*
X132332179Y-66844951D01*
X132160213Y-66969890D01*
X132009890Y-67120213D01*
X131884949Y-67292182D01*
X131880484Y-67300946D01*
X131832509Y-67351742D01*
X131764688Y-67368536D01*
X131698553Y-67345998D01*
X131659516Y-67300946D01*
X131655050Y-67292182D01*
X131530109Y-67120213D01*
X131379786Y-66969890D01*
X131207820Y-66844951D01*
X131018414Y-66748444D01*
X131018413Y-66748443D01*
X131018412Y-66748443D01*
X130816243Y-66682754D01*
X130816241Y-66682753D01*
X130816240Y-66682753D01*
X130649858Y-66656401D01*
X130606287Y-66649500D01*
X130393713Y-66649500D01*
X130350142Y-66656401D01*
X130183760Y-66682753D01*
X129981585Y-66748444D01*
X129792179Y-66844951D01*
X129620215Y-66969889D01*
X129506673Y-67083431D01*
X129445350Y-67116915D01*
X129375658Y-67111931D01*
X129319725Y-67070059D01*
X129302810Y-67039082D01*
X129253797Y-66907671D01*
X129253793Y-66907664D01*
X129167547Y-66792455D01*
X129167544Y-66792452D01*
X129052335Y-66706206D01*
X129052328Y-66706202D01*
X128917482Y-66655908D01*
X128917483Y-66655908D01*
X128857883Y-66649501D01*
X128857881Y-66649500D01*
X128857873Y-66649500D01*
X128857864Y-66649500D01*
X127062129Y-66649500D01*
X127062123Y-66649501D01*
X127002516Y-66655908D01*
X126867671Y-66706202D01*
X126867664Y-66706206D01*
X126752455Y-66792452D01*
X126752452Y-66792455D01*
X126666206Y-66907664D01*
X126666202Y-66907671D01*
X126615908Y-67042517D01*
X126611510Y-67083431D01*
X126609501Y-67102123D01*
X126609500Y-67102135D01*
X126609500Y-68897870D01*
X126609501Y-68897876D01*
X126615908Y-68957483D01*
X126666202Y-69092328D01*
X126666206Y-69092335D01*
X126752452Y-69207544D01*
X126752455Y-69207547D01*
X126867664Y-69293793D01*
X126867671Y-69293797D01*
X127002517Y-69344091D01*
X127002516Y-69344091D01*
X127004814Y-69344338D01*
X127062127Y-69350500D01*
X128197769Y-69350499D01*
X128264808Y-69370184D01*
X128285450Y-69386818D01*
X132919381Y-74020749D01*
X132952866Y-74082072D01*
X132955700Y-74108430D01*
X132955700Y-75675500D01*
X132936015Y-75742539D01*
X132883211Y-75788294D01*
X132831700Y-75799500D01*
X130234108Y-75799500D01*
X130106812Y-75833608D01*
X129992686Y-75899500D01*
X129992683Y-75899502D01*
X129962181Y-75930005D01*
X129900858Y-75963490D01*
X129831166Y-75958506D01*
X129775233Y-75916634D01*
X129750816Y-75851170D01*
X129750500Y-75842324D01*
X129750500Y-73426082D01*
X129744564Y-73396243D01*
X129740322Y-73374916D01*
X129721659Y-73281088D01*
X129688518Y-73201080D01*
X129686084Y-73195204D01*
X129686083Y-73195200D01*
X129665085Y-73144506D01*
X129665083Y-73144503D01*
X129582954Y-73021588D01*
X129582953Y-73021587D01*
X129582951Y-73021584D01*
X129478416Y-72917049D01*
X127189131Y-70627764D01*
X124886818Y-68325450D01*
X124853333Y-68264127D01*
X124850499Y-68237769D01*
X124850499Y-67102129D01*
X124850498Y-67102123D01*
X124850497Y-67102116D01*
X124844091Y-67042517D01*
X124828240Y-67000019D01*
X124793797Y-66907671D01*
X124793793Y-66907664D01*
X124707547Y-66792455D01*
X124707544Y-66792452D01*
X124592335Y-66706206D01*
X124592328Y-66706202D01*
X124457482Y-66655908D01*
X124457483Y-66655908D01*
X124397883Y-66649501D01*
X124397881Y-66649500D01*
X124397873Y-66649500D01*
X124397864Y-66649500D01*
X122602129Y-66649500D01*
X122602123Y-66649501D01*
X122542516Y-66655908D01*
X122407671Y-66706202D01*
X122407664Y-66706206D01*
X122292455Y-66792452D01*
X122292452Y-66792455D01*
X122206206Y-66907664D01*
X122206202Y-66907671D01*
X122155908Y-67042517D01*
X122151510Y-67083431D01*
X122149501Y-67102123D01*
X122149500Y-67102135D01*
X122149500Y-68897870D01*
X122149501Y-68897876D01*
X122155908Y-68957483D01*
X122206202Y-69092328D01*
X122206206Y-69092335D01*
X122292452Y-69207544D01*
X122292455Y-69207547D01*
X122407664Y-69293793D01*
X122407671Y-69293797D01*
X122539082Y-69342810D01*
X122595016Y-69384681D01*
X122619433Y-69450145D01*
X122604582Y-69518418D01*
X122583431Y-69546673D01*
X122469889Y-69660215D01*
X122344951Y-69832179D01*
X122248444Y-70021585D01*
X122182753Y-70223760D01*
X122155304Y-70397067D01*
X122149500Y-70433713D01*
X122149500Y-70646287D01*
X122159534Y-70709644D01*
X122180922Y-70844681D01*
X122182754Y-70856243D01*
X122222451Y-70978418D01*
X122248444Y-71058414D01*
X122344951Y-71247820D01*
X122469890Y-71419786D01*
X122620213Y-71570109D01*
X122792182Y-71695050D01*
X122800946Y-71699516D01*
X122851742Y-71747491D01*
X122868536Y-71815312D01*
X122845998Y-71881447D01*
X122800946Y-71920484D01*
X122792182Y-71924949D01*
X122620213Y-72049890D01*
X122469890Y-72200213D01*
X122344951Y-72372179D01*
X122248444Y-72561585D01*
X122182753Y-72763760D01*
X122157044Y-72926082D01*
X122149500Y-72973713D01*
X122149500Y-73186287D01*
X122159534Y-73249644D01*
X122180965Y-73384951D01*
X122182754Y-73396243D01*
X122219682Y-73509896D01*
X122248444Y-73598414D01*
X122344951Y-73787820D01*
X122469890Y-73959786D01*
X122620213Y-74110109D01*
X122792182Y-74235050D01*
X122800946Y-74239516D01*
X122851742Y-74287491D01*
X122868536Y-74355312D01*
X122845998Y-74421447D01*
X122800946Y-74460484D01*
X122792182Y-74464949D01*
X122620213Y-74589890D01*
X122469890Y-74740213D01*
X122344951Y-74912179D01*
X122248444Y-75101585D01*
X122182753Y-75303760D01*
X122149500Y-75513713D01*
X122149500Y-75726286D01*
X122180815Y-75924005D01*
X122182754Y-75936243D01*
X122248234Y-76137770D01*
X122248444Y-76138414D01*
X122344951Y-76327820D01*
X122469890Y-76499786D01*
X122620213Y-76650109D01*
X122792182Y-76775050D01*
X122800946Y-76779516D01*
X122851742Y-76827491D01*
X122868536Y-76895312D01*
X122845998Y-76961447D01*
X122800946Y-77000484D01*
X122792182Y-77004949D01*
X122620213Y-77129890D01*
X122469890Y-77280213D01*
X122344951Y-77452179D01*
X122248444Y-77641585D01*
X122182753Y-77843760D01*
X122158007Y-78000001D01*
X122149500Y-78053713D01*
X122149500Y-78266287D01*
X122149949Y-78269119D01*
X122178390Y-78448695D01*
X122182754Y-78476243D01*
X122234276Y-78634812D01*
X122248444Y-78678414D01*
X122344951Y-78867820D01*
X122469890Y-79039786D01*
X122620213Y-79190109D01*
X122792182Y-79315050D01*
X122800946Y-79319516D01*
X122851742Y-79367491D01*
X122868536Y-79435312D01*
X122845998Y-79501447D01*
X122800946Y-79540484D01*
X122792182Y-79544949D01*
X122620213Y-79669890D01*
X122469890Y-79820213D01*
X122344951Y-79992179D01*
X122248444Y-80181585D01*
X122182753Y-80383760D01*
X122149500Y-80593713D01*
X122149500Y-80806286D01*
X122180182Y-81000009D01*
X122182754Y-81016243D01*
X122210877Y-81102797D01*
X122248444Y-81218414D01*
X122344951Y-81407820D01*
X122469890Y-81579786D01*
X122620213Y-81730109D01*
X122792182Y-81855050D01*
X122800946Y-81859516D01*
X122851742Y-81907491D01*
X122868536Y-81975312D01*
X122845998Y-82041447D01*
X122800946Y-82080484D01*
X122792182Y-82084949D01*
X122620213Y-82209890D01*
X122469890Y-82360213D01*
X122344951Y-82532179D01*
X122248444Y-82721585D01*
X122182753Y-82923760D01*
X122164480Y-83039131D01*
X122149500Y-83133713D01*
X122149500Y-83346287D01*
X122156143Y-83388228D01*
X122180815Y-83544005D01*
X122182754Y-83556243D01*
X122197880Y-83602797D01*
X122248444Y-83758414D01*
X122344951Y-83947820D01*
X122469890Y-84119786D01*
X122620213Y-84270109D01*
X122792182Y-84395050D01*
X122800946Y-84399516D01*
X122851742Y-84447491D01*
X122868536Y-84515312D01*
X122845998Y-84581447D01*
X122800946Y-84620484D01*
X122792182Y-84624949D01*
X122620213Y-84749890D01*
X122469890Y-84900213D01*
X122344951Y-85072179D01*
X122248444Y-85261585D01*
X122182753Y-85463760D01*
X122160341Y-85605263D01*
X122149500Y-85673713D01*
X122149500Y-85886287D01*
X122159534Y-85949644D01*
X122182753Y-86096239D01*
X122248444Y-86298414D01*
X122344951Y-86487820D01*
X122469890Y-86659786D01*
X122620213Y-86810109D01*
X122792182Y-86935050D01*
X122800946Y-86939516D01*
X122851742Y-86987491D01*
X122868536Y-87055312D01*
X122845998Y-87121447D01*
X122800946Y-87160484D01*
X122792182Y-87164949D01*
X122620213Y-87289890D01*
X122469890Y-87440213D01*
X122344951Y-87612179D01*
X122248444Y-87801585D01*
X122182753Y-88003760D01*
X122164060Y-88121786D01*
X122149500Y-88213713D01*
X122149500Y-88426287D01*
X122159534Y-88489644D01*
X122182753Y-88636239D01*
X122182753Y-88636241D01*
X122182754Y-88636243D01*
X122244337Y-88825776D01*
X122248444Y-88838414D01*
X122344951Y-89027820D01*
X122469890Y-89199786D01*
X122620213Y-89350109D01*
X122792182Y-89475050D01*
X122800946Y-89479516D01*
X122851742Y-89527491D01*
X122868536Y-89595312D01*
X122845998Y-89661447D01*
X122800946Y-89700484D01*
X122792182Y-89704949D01*
X122620213Y-89829890D01*
X122469890Y-89980213D01*
X122344951Y-90152179D01*
X122248444Y-90341585D01*
X122182753Y-90543760D01*
X122160341Y-90685263D01*
X122149500Y-90753713D01*
X122149500Y-90966287D01*
X122182754Y-91176243D01*
X122231340Y-91325776D01*
X122248444Y-91378414D01*
X122344951Y-91567820D01*
X122469890Y-91739786D01*
X122620213Y-91890109D01*
X122792182Y-92015050D01*
X122800946Y-92019516D01*
X122851742Y-92067491D01*
X122868536Y-92135312D01*
X122845998Y-92201447D01*
X122800946Y-92240484D01*
X122792182Y-92244949D01*
X122620213Y-92369890D01*
X122469890Y-92520213D01*
X122344951Y-92692179D01*
X122248444Y-92881585D01*
X122182753Y-93083760D01*
X122149500Y-93293713D01*
X122149500Y-93506286D01*
X122182753Y-93716239D01*
X122248444Y-93918414D01*
X122344951Y-94107820D01*
X122469890Y-94279786D01*
X122620213Y-94430109D01*
X122792182Y-94555050D01*
X122800946Y-94559516D01*
X122851742Y-94607491D01*
X122868536Y-94675312D01*
X122845998Y-94741447D01*
X122800946Y-94780484D01*
X122792182Y-94784949D01*
X122620213Y-94909890D01*
X122469890Y-95060213D01*
X122344951Y-95232179D01*
X122248444Y-95421585D01*
X122182753Y-95623760D01*
X122149500Y-95833713D01*
X122149500Y-96046286D01*
X122182225Y-96252907D01*
X122182754Y-96256243D01*
X122238888Y-96429006D01*
X122248444Y-96458414D01*
X122344951Y-96647820D01*
X122469890Y-96819786D01*
X122620213Y-96970109D01*
X122792182Y-97095050D01*
X122800946Y-97099516D01*
X122851742Y-97147491D01*
X122868536Y-97215312D01*
X122845998Y-97281447D01*
X122800946Y-97320484D01*
X122792182Y-97324949D01*
X122620213Y-97449890D01*
X122469890Y-97600213D01*
X122344951Y-97772179D01*
X122248444Y-97961585D01*
X122182753Y-98163760D01*
X122149500Y-98373713D01*
X122149500Y-98586286D01*
X122182735Y-98796127D01*
X122182754Y-98796243D01*
X122212397Y-98887475D01*
X122248444Y-98998414D01*
X122344951Y-99187820D01*
X122469890Y-99359786D01*
X122620213Y-99510109D01*
X122792182Y-99635050D01*
X122800946Y-99639516D01*
X122851742Y-99687491D01*
X122868536Y-99755312D01*
X122845998Y-99821447D01*
X122800946Y-99860484D01*
X122792182Y-99864949D01*
X122620213Y-99989890D01*
X122469890Y-100140213D01*
X122344951Y-100312179D01*
X122248444Y-100501585D01*
X122182753Y-100703760D01*
X122149500Y-100913713D01*
X122149500Y-101126286D01*
X122182735Y-101336127D01*
X122182754Y-101336243D01*
X122244514Y-101526321D01*
X122248444Y-101538414D01*
X122344951Y-101727820D01*
X122469890Y-101899786D01*
X122620213Y-102050109D01*
X122792182Y-102175050D01*
X122800946Y-102179516D01*
X122851742Y-102227491D01*
X122868536Y-102295312D01*
X122845998Y-102361447D01*
X122800946Y-102400484D01*
X122792182Y-102404949D01*
X122620213Y-102529890D01*
X122469890Y-102680213D01*
X122344951Y-102852179D01*
X122248444Y-103041585D01*
X122182753Y-103243760D01*
X122158807Y-103394949D01*
X122149500Y-103453713D01*
X122149500Y-103666287D01*
X122182754Y-103876243D01*
X122239480Y-104050828D01*
X122248444Y-104078414D01*
X122344951Y-104267820D01*
X122469890Y-104439786D01*
X122620213Y-104590109D01*
X122792182Y-104715050D01*
X122800946Y-104719516D01*
X122851742Y-104767491D01*
X122868536Y-104835312D01*
X122845998Y-104901447D01*
X122800946Y-104940484D01*
X122792182Y-104944949D01*
X122620213Y-105069890D01*
X122469890Y-105220213D01*
X122344951Y-105392179D01*
X122248444Y-105581585D01*
X122182753Y-105783760D01*
X122155538Y-105955590D01*
X122149500Y-105993713D01*
X122149500Y-106206287D01*
X122182754Y-106416243D01*
X122246975Y-106613895D01*
X122248444Y-106618414D01*
X122344951Y-106807820D01*
X122469890Y-106979786D01*
X122620213Y-107130109D01*
X122792179Y-107255048D01*
X122792181Y-107255049D01*
X122792184Y-107255051D01*
X122981588Y-107351557D01*
X123183757Y-107417246D01*
X123393713Y-107450500D01*
X123393714Y-107450500D01*
X123606286Y-107450500D01*
X123606287Y-107450500D01*
X123816243Y-107417246D01*
X124018412Y-107351557D01*
X124207816Y-107255051D01*
X124230897Y-107238282D01*
X124379786Y-107130109D01*
X124379788Y-107130106D01*
X124379792Y-107130104D01*
X124530104Y-106979792D01*
X124530106Y-106979788D01*
X124530109Y-106979786D01*
X124655048Y-106807820D01*
X124655047Y-106807820D01*
X124655051Y-106807816D01*
X124751557Y-106618412D01*
X124817246Y-106416243D01*
X124850500Y-106206287D01*
X124850500Y-105993713D01*
X124835382Y-105898268D01*
X124844336Y-105828979D01*
X124870171Y-105791195D01*
X127582951Y-103078416D01*
X127665084Y-102955495D01*
X127721658Y-102818913D01*
X127728829Y-102782861D01*
X127750500Y-102673918D01*
X127750500Y-100938646D01*
X128841400Y-100938646D01*
X128875984Y-101112512D01*
X128875986Y-101112520D01*
X128943828Y-101276307D01*
X128943833Y-101276316D01*
X129042323Y-101423716D01*
X129042326Y-101423720D01*
X129167679Y-101549073D01*
X129167683Y-101549076D01*
X129315083Y-101647566D01*
X129315093Y-101647571D01*
X129478876Y-101715412D01*
X129478883Y-101715415D01*
X129491400Y-101717904D01*
X129491400Y-100250000D01*
X128841400Y-100250000D01*
X128841400Y-100938646D01*
X127750500Y-100938646D01*
X127750500Y-99665029D01*
X127770185Y-99597990D01*
X127786819Y-99577348D01*
X128197775Y-99166392D01*
X128717532Y-98646634D01*
X128778853Y-98613151D01*
X128848544Y-98618135D01*
X128904478Y-98660007D01*
X128928895Y-98725471D01*
X128919772Y-98781769D01*
X128875987Y-98887475D01*
X128875984Y-98887487D01*
X128841400Y-99061353D01*
X128841400Y-99750000D01*
X129617400Y-99750000D01*
X129684439Y-99769685D01*
X129730194Y-99822489D01*
X129741400Y-99874000D01*
X129741400Y-100000000D01*
X129867400Y-100000000D01*
X129934439Y-100019685D01*
X129980194Y-100072489D01*
X129991400Y-100124000D01*
X129991400Y-101717903D01*
X130003916Y-101715415D01*
X130003919Y-101715414D01*
X130089446Y-101679987D01*
X130158916Y-101672518D01*
X130221395Y-101703792D01*
X130257048Y-101763881D01*
X130260900Y-101794548D01*
X130260900Y-106525951D01*
X130241215Y-106592990D01*
X130188411Y-106638745D01*
X130131159Y-106648868D01*
X130131159Y-106649500D01*
X130127585Y-106649500D01*
X130127189Y-106649570D01*
X130126298Y-106649500D01*
X130126287Y-106649500D01*
X129913713Y-106649500D01*
X129865042Y-106657208D01*
X129703760Y-106682753D01*
X129501585Y-106748444D01*
X129312179Y-106844951D01*
X129140215Y-106969889D01*
X129026285Y-107083819D01*
X128964962Y-107117303D01*
X128895270Y-107112319D01*
X128839337Y-107070447D01*
X128822422Y-107039470D01*
X128773354Y-106907913D01*
X128773350Y-106907906D01*
X128687190Y-106792812D01*
X128687187Y-106792809D01*
X128572093Y-106706649D01*
X128572086Y-106706645D01*
X128437379Y-106656403D01*
X128437372Y-106656401D01*
X128377844Y-106650000D01*
X127730000Y-106650000D01*
X127730000Y-107566988D01*
X127672993Y-107534075D01*
X127545826Y-107500000D01*
X127414174Y-107500000D01*
X127287007Y-107534075D01*
X127230000Y-107566988D01*
X127230000Y-106650000D01*
X126582155Y-106650000D01*
X126522627Y-106656401D01*
X126522620Y-106656403D01*
X126387913Y-106706645D01*
X126387906Y-106706649D01*
X126272812Y-106792809D01*
X126272809Y-106792812D01*
X126186649Y-106907906D01*
X126186645Y-106907913D01*
X126136403Y-107042620D01*
X126136401Y-107042627D01*
X126130000Y-107102155D01*
X126130000Y-107750000D01*
X127046988Y-107750000D01*
X127014075Y-107807007D01*
X126980000Y-107934174D01*
X126980000Y-108065826D01*
X127014075Y-108192993D01*
X127046988Y-108250000D01*
X126130000Y-108250000D01*
X126130000Y-108897844D01*
X126136401Y-108957372D01*
X126136403Y-108957379D01*
X126186645Y-109092086D01*
X126186649Y-109092093D01*
X126272809Y-109207187D01*
X126272812Y-109207190D01*
X126387906Y-109293350D01*
X126387913Y-109293354D01*
X126522620Y-109343596D01*
X126522627Y-109343598D01*
X126582155Y-109349999D01*
X126582172Y-109350000D01*
X127230000Y-109350000D01*
X127230000Y-108433012D01*
X127287007Y-108465925D01*
X127414174Y-108500000D01*
X127545826Y-108500000D01*
X127672993Y-108465925D01*
X127730000Y-108433012D01*
X127730000Y-109350000D01*
X128377828Y-109350000D01*
X128377844Y-109349999D01*
X128437372Y-109343598D01*
X128437379Y-109343596D01*
X128572086Y-109293354D01*
X128572093Y-109293350D01*
X128687187Y-109207190D01*
X128687190Y-109207187D01*
X128773350Y-109092093D01*
X128773354Y-109092086D01*
X128822422Y-108960529D01*
X128864293Y-108904595D01*
X128929757Y-108880178D01*
X128998030Y-108895030D01*
X129026285Y-108916181D01*
X129140213Y-109030109D01*
X129312179Y-109155048D01*
X129312181Y-109155049D01*
X129312184Y-109155051D01*
X129501588Y-109251557D01*
X129703757Y-109317246D01*
X129913713Y-109350500D01*
X129913714Y-109350500D01*
X130126286Y-109350500D01*
X130126287Y-109350500D01*
X130336243Y-109317246D01*
X130538412Y-109251557D01*
X130727816Y-109155051D01*
X130814471Y-109092093D01*
X130899786Y-109030109D01*
X130899788Y-109030106D01*
X130899792Y-109030104D01*
X131050104Y-108879792D01*
X131050106Y-108879788D01*
X131050109Y-108879786D01*
X131175048Y-108707820D01*
X131175047Y-108707820D01*
X131175051Y-108707816D01*
X131179514Y-108699054D01*
X131227488Y-108648259D01*
X131295308Y-108631463D01*
X131361444Y-108653999D01*
X131400486Y-108699056D01*
X131404951Y-108707820D01*
X131529890Y-108879786D01*
X131680213Y-109030109D01*
X131852179Y-109155048D01*
X131852181Y-109155049D01*
X131852184Y-109155051D01*
X132041588Y-109251557D01*
X132243757Y-109317246D01*
X132453713Y-109350500D01*
X132453714Y-109350500D01*
X132666286Y-109350500D01*
X132666287Y-109350500D01*
X132876243Y-109317246D01*
X133078412Y-109251557D01*
X133267816Y-109155051D01*
X133354471Y-109092093D01*
X133439786Y-109030109D01*
X133439788Y-109030106D01*
X133439792Y-109030104D01*
X133590104Y-108879792D01*
X133590106Y-108879788D01*
X133590109Y-108879786D01*
X133715048Y-108707820D01*
X133715047Y-108707820D01*
X133715051Y-108707816D01*
X133719514Y-108699054D01*
X133767488Y-108648259D01*
X133835308Y-108631463D01*
X133901444Y-108653999D01*
X133940486Y-108699056D01*
X133944951Y-108707820D01*
X134069890Y-108879786D01*
X134220213Y-109030109D01*
X134392179Y-109155048D01*
X134392181Y-109155049D01*
X134392184Y-109155051D01*
X134581588Y-109251557D01*
X134783757Y-109317246D01*
X134993713Y-109350500D01*
X134993714Y-109350500D01*
X135206286Y-109350500D01*
X135206287Y-109350500D01*
X135416243Y-109317246D01*
X135618412Y-109251557D01*
X135807816Y-109155051D01*
X135894471Y-109092093D01*
X135979786Y-109030109D01*
X135979788Y-109030106D01*
X135979792Y-109030104D01*
X136130104Y-108879792D01*
X136130106Y-108879788D01*
X136130109Y-108879786D01*
X136255048Y-108707820D01*
X136255047Y-108707820D01*
X136255051Y-108707816D01*
X136259514Y-108699054D01*
X136307488Y-108648259D01*
X136375308Y-108631463D01*
X136441444Y-108653999D01*
X136480486Y-108699056D01*
X136484951Y-108707820D01*
X136609890Y-108879786D01*
X136760213Y-109030109D01*
X136932179Y-109155048D01*
X136932181Y-109155049D01*
X136932184Y-109155051D01*
X137121588Y-109251557D01*
X137323757Y-109317246D01*
X137533713Y-109350500D01*
X137533714Y-109350500D01*
X137746286Y-109350500D01*
X137746287Y-109350500D01*
X137956243Y-109317246D01*
X138158412Y-109251557D01*
X138347816Y-109155051D01*
X138434471Y-109092093D01*
X138519786Y-109030109D01*
X138519788Y-109030106D01*
X138519792Y-109030104D01*
X138670104Y-108879792D01*
X138670106Y-108879788D01*
X138670109Y-108879786D01*
X138795048Y-108707820D01*
X138795047Y-108707820D01*
X138795051Y-108707816D01*
X138799514Y-108699054D01*
X138847488Y-108648259D01*
X138915308Y-108631463D01*
X138981444Y-108653999D01*
X139020486Y-108699056D01*
X139024951Y-108707820D01*
X139149890Y-108879786D01*
X139300213Y-109030109D01*
X139472179Y-109155048D01*
X139472181Y-109155049D01*
X139472184Y-109155051D01*
X139661588Y-109251557D01*
X139863757Y-109317246D01*
X140073713Y-109350500D01*
X140073714Y-109350500D01*
X140286286Y-109350500D01*
X140286287Y-109350500D01*
X140496243Y-109317246D01*
X140698412Y-109251557D01*
X140887816Y-109155051D01*
X140974471Y-109092093D01*
X141059786Y-109030109D01*
X141059788Y-109030106D01*
X141059792Y-109030104D01*
X141210104Y-108879792D01*
X141210106Y-108879788D01*
X141210109Y-108879786D01*
X141335048Y-108707820D01*
X141335047Y-108707820D01*
X141335051Y-108707816D01*
X141339514Y-108699054D01*
X141387488Y-108648259D01*
X141455308Y-108631463D01*
X141521444Y-108653999D01*
X141560486Y-108699056D01*
X141564951Y-108707820D01*
X141689890Y-108879786D01*
X141840213Y-109030109D01*
X142012179Y-109155048D01*
X142012181Y-109155049D01*
X142012184Y-109155051D01*
X142201588Y-109251557D01*
X142403757Y-109317246D01*
X142613713Y-109350500D01*
X142613714Y-109350500D01*
X142826286Y-109350500D01*
X142826287Y-109350500D01*
X143036243Y-109317246D01*
X143238412Y-109251557D01*
X143427816Y-109155051D01*
X143514471Y-109092093D01*
X143599786Y-109030109D01*
X143599788Y-109030106D01*
X143599792Y-109030104D01*
X143750104Y-108879792D01*
X143750106Y-108879788D01*
X143750109Y-108879786D01*
X143875048Y-108707820D01*
X143875047Y-108707820D01*
X143875051Y-108707816D01*
X143879514Y-108699054D01*
X143927488Y-108648259D01*
X143995308Y-108631463D01*
X144061444Y-108653999D01*
X144100486Y-108699056D01*
X144104951Y-108707820D01*
X144229890Y-108879786D01*
X144380213Y-109030109D01*
X144552179Y-109155048D01*
X144552181Y-109155049D01*
X144552184Y-109155051D01*
X144741588Y-109251557D01*
X144943757Y-109317246D01*
X145153713Y-109350500D01*
X145153714Y-109350500D01*
X145366286Y-109350500D01*
X145366287Y-109350500D01*
X145576243Y-109317246D01*
X145778412Y-109251557D01*
X145967816Y-109155051D01*
X146054471Y-109092093D01*
X146139786Y-109030109D01*
X146139788Y-109030106D01*
X146139792Y-109030104D01*
X146290104Y-108879792D01*
X146290106Y-108879788D01*
X146290109Y-108879786D01*
X146415048Y-108707820D01*
X146415047Y-108707820D01*
X146415051Y-108707816D01*
X146419514Y-108699054D01*
X146467488Y-108648259D01*
X146535308Y-108631463D01*
X146601444Y-108653999D01*
X146640486Y-108699056D01*
X146644951Y-108707820D01*
X146769890Y-108879786D01*
X146920213Y-109030109D01*
X147092179Y-109155048D01*
X147092181Y-109155049D01*
X147092184Y-109155051D01*
X147281588Y-109251557D01*
X147483757Y-109317246D01*
X147693713Y-109350500D01*
X147693714Y-109350500D01*
X147906286Y-109350500D01*
X147906287Y-109350500D01*
X148116243Y-109317246D01*
X148318412Y-109251557D01*
X148507816Y-109155051D01*
X148594471Y-109092093D01*
X148679786Y-109030109D01*
X148679788Y-109030106D01*
X148679792Y-109030104D01*
X148830104Y-108879792D01*
X148830106Y-108879788D01*
X148830109Y-108879786D01*
X148955048Y-108707820D01*
X148955047Y-108707820D01*
X148955051Y-108707816D01*
X148959514Y-108699054D01*
X149007488Y-108648259D01*
X149075308Y-108631463D01*
X149141444Y-108653999D01*
X149180486Y-108699056D01*
X149184951Y-108707820D01*
X149309890Y-108879786D01*
X149460213Y-109030109D01*
X149632179Y-109155048D01*
X149632181Y-109155049D01*
X149632184Y-109155051D01*
X149821588Y-109251557D01*
X150023757Y-109317246D01*
X150233713Y-109350500D01*
X150233714Y-109350500D01*
X150446286Y-109350500D01*
X150446287Y-109350500D01*
X150656243Y-109317246D01*
X150858412Y-109251557D01*
X151047816Y-109155051D01*
X151134471Y-109092093D01*
X151219786Y-109030109D01*
X151219788Y-109030106D01*
X151219792Y-109030104D01*
X151370104Y-108879792D01*
X151370106Y-108879788D01*
X151370109Y-108879786D01*
X151495048Y-108707820D01*
X151495047Y-108707820D01*
X151495051Y-108707816D01*
X151499514Y-108699054D01*
X151547488Y-108648259D01*
X151615308Y-108631463D01*
X151681444Y-108653999D01*
X151720486Y-108699056D01*
X151724951Y-108707820D01*
X151849890Y-108879786D01*
X152000213Y-109030109D01*
X152172179Y-109155048D01*
X152172181Y-109155049D01*
X152172184Y-109155051D01*
X152361588Y-109251557D01*
X152563757Y-109317246D01*
X152773713Y-109350500D01*
X152773714Y-109350500D01*
X152986286Y-109350500D01*
X152986287Y-109350500D01*
X153196243Y-109317246D01*
X153398412Y-109251557D01*
X153587816Y-109155051D01*
X153602769Y-109144186D01*
X153763734Y-109027241D01*
X153764364Y-109028108D01*
X153823419Y-109001641D01*
X153840200Y-109000500D01*
X154459800Y-109000500D01*
X154526839Y-109020185D01*
X154539365Y-109029493D01*
X154712179Y-109155048D01*
X154712181Y-109155049D01*
X154712184Y-109155051D01*
X154901588Y-109251557D01*
X155103757Y-109317246D01*
X155313713Y-109350500D01*
X155313714Y-109350500D01*
X155526286Y-109350500D01*
X155526287Y-109350500D01*
X155736243Y-109317246D01*
X155938412Y-109251557D01*
X156127816Y-109155051D01*
X156214471Y-109092093D01*
X156299786Y-109030109D01*
X156299788Y-109030106D01*
X156299792Y-109030104D01*
X156450104Y-108879792D01*
X156450106Y-108879788D01*
X156450109Y-108879786D01*
X156535890Y-108761717D01*
X156575051Y-108707816D01*
X156579793Y-108698508D01*
X156627763Y-108647711D01*
X156695583Y-108630911D01*
X156761719Y-108653445D01*
X156800763Y-108698500D01*
X156805373Y-108707547D01*
X156844728Y-108761716D01*
X157477037Y-108129408D01*
X157494075Y-108192993D01*
X157559901Y-108307007D01*
X157652993Y-108400099D01*
X157767007Y-108465925D01*
X157830590Y-108482962D01*
X157198282Y-109115269D01*
X157198282Y-109115270D01*
X157252449Y-109154624D01*
X157441782Y-109251095D01*
X157643870Y-109316757D01*
X157853754Y-109350000D01*
X158066246Y-109350000D01*
X158276127Y-109316757D01*
X158276130Y-109316757D01*
X158478217Y-109251095D01*
X158667554Y-109154622D01*
X158721716Y-109115270D01*
X158721717Y-109115270D01*
X158089408Y-108482962D01*
X158152993Y-108465925D01*
X158267007Y-108400099D01*
X158360099Y-108307007D01*
X158425925Y-108192993D01*
X158442962Y-108129408D01*
X159075270Y-108761717D01*
X159075270Y-108761716D01*
X159114622Y-108707554D01*
X159119514Y-108697954D01*
X159167488Y-108647157D01*
X159235308Y-108630361D01*
X159301444Y-108652897D01*
X159340486Y-108697954D01*
X159345375Y-108707550D01*
X159384728Y-108761716D01*
X160017037Y-108129408D01*
X160034075Y-108192993D01*
X160099901Y-108307007D01*
X160192993Y-108400099D01*
X160307007Y-108465925D01*
X160370590Y-108482962D01*
X159738282Y-109115269D01*
X159738282Y-109115270D01*
X159792449Y-109154624D01*
X159981782Y-109251095D01*
X160183870Y-109316757D01*
X160393754Y-109350000D01*
X160606246Y-109350000D01*
X160816127Y-109316757D01*
X160816130Y-109316757D01*
X161018217Y-109251095D01*
X161207554Y-109154622D01*
X161261716Y-109115270D01*
X161261717Y-109115270D01*
X160629408Y-108482962D01*
X160692993Y-108465925D01*
X160807007Y-108400099D01*
X160900099Y-108307007D01*
X160965925Y-108192993D01*
X160982962Y-108129409D01*
X161615270Y-108761717D01*
X161615270Y-108761716D01*
X161654622Y-108707554D01*
X161751095Y-108518217D01*
X161816757Y-108316130D01*
X161816757Y-108316127D01*
X161850000Y-108106246D01*
X161850000Y-107893753D01*
X161816757Y-107683872D01*
X161816757Y-107683869D01*
X161751095Y-107481782D01*
X161654624Y-107292449D01*
X161615270Y-107238282D01*
X161615269Y-107238282D01*
X160982962Y-107870590D01*
X160965925Y-107807007D01*
X160900099Y-107692993D01*
X160807007Y-107599901D01*
X160692993Y-107534075D01*
X160629409Y-107517037D01*
X161261716Y-106884728D01*
X161207550Y-106845375D01*
X161018217Y-106748904D01*
X160816129Y-106683242D01*
X160606246Y-106650000D01*
X160393754Y-106650000D01*
X160183872Y-106683242D01*
X160183869Y-106683242D01*
X159981782Y-106748904D01*
X159792439Y-106845380D01*
X159738282Y-106884727D01*
X159738282Y-106884728D01*
X160370591Y-107517037D01*
X160307007Y-107534075D01*
X160192993Y-107599901D01*
X160099901Y-107692993D01*
X160034075Y-107807007D01*
X160017037Y-107870591D01*
X159384728Y-107238282D01*
X159384727Y-107238282D01*
X159345380Y-107292440D01*
X159340483Y-107302051D01*
X159292506Y-107352845D01*
X159224684Y-107369638D01*
X159158550Y-107347098D01*
X159119516Y-107302048D01*
X159114626Y-107292452D01*
X159075270Y-107238282D01*
X159075269Y-107238282D01*
X158442962Y-107870590D01*
X158425925Y-107807007D01*
X158360099Y-107692993D01*
X158267007Y-107599901D01*
X158152993Y-107534075D01*
X158089409Y-107517037D01*
X158721716Y-106884728D01*
X158667550Y-106845375D01*
X158478217Y-106748904D01*
X158276129Y-106683242D01*
X158066246Y-106650000D01*
X157853754Y-106650000D01*
X157643872Y-106683242D01*
X157643869Y-106683242D01*
X157441782Y-106748904D01*
X157252439Y-106845380D01*
X157198282Y-106884727D01*
X157198282Y-106884728D01*
X157830591Y-107517037D01*
X157767007Y-107534075D01*
X157652993Y-107599901D01*
X157559901Y-107692993D01*
X157494075Y-107807007D01*
X157477037Y-107870591D01*
X156844728Y-107238282D01*
X156844727Y-107238282D01*
X156805380Y-107292440D01*
X156805376Y-107292446D01*
X156800760Y-107301505D01*
X156752781Y-107352297D01*
X156684959Y-107369087D01*
X156618826Y-107346543D01*
X156579794Y-107301493D01*
X156575051Y-107292184D01*
X156575049Y-107292181D01*
X156575048Y-107292179D01*
X156450109Y-107120213D01*
X156299786Y-106969890D01*
X156127820Y-106844951D01*
X155938414Y-106748444D01*
X155938413Y-106748443D01*
X155938412Y-106748443D01*
X155736243Y-106682754D01*
X155736241Y-106682753D01*
X155736240Y-106682753D01*
X155574957Y-106657208D01*
X155526287Y-106649500D01*
X155313713Y-106649500D01*
X155265042Y-106657208D01*
X155103760Y-106682753D01*
X154901585Y-106748444D01*
X154712179Y-106844951D01*
X154536266Y-106972759D01*
X154535635Y-106971891D01*
X154476581Y-106998359D01*
X154459800Y-106999500D01*
X153840200Y-106999500D01*
X153773161Y-106979815D01*
X153760634Y-106970506D01*
X153587817Y-106844949D01*
X153568202Y-106834954D01*
X153517407Y-106786978D01*
X153500500Y-106724471D01*
X153500500Y-106104675D01*
X153500501Y-106104654D01*
X153500501Y-105901457D01*
X153500500Y-105901455D01*
X153487454Y-105835868D01*
X153462052Y-105708165D01*
X153386632Y-105526086D01*
X153386631Y-105526085D01*
X153386628Y-105526079D01*
X153277140Y-105362219D01*
X153277137Y-105362215D01*
X152284209Y-104369289D01*
X152284206Y-104369285D01*
X152284206Y-104369286D01*
X152277139Y-104362219D01*
X152277139Y-104362218D01*
X152137782Y-104222861D01*
X152137781Y-104222860D01*
X152137780Y-104222859D01*
X151973920Y-104113371D01*
X151973907Y-104113364D01*
X151822931Y-104050828D01*
X151822924Y-104050826D01*
X151814022Y-104047139D01*
X151791836Y-104037949D01*
X151670305Y-104013775D01*
X151656205Y-104010970D01*
X151598543Y-103999500D01*
X151598541Y-103999500D01*
X147448111Y-103999500D01*
X147381072Y-103979815D01*
X147360430Y-103963181D01*
X145282331Y-101885082D01*
X145248846Y-101823759D01*
X145253830Y-101754067D01*
X145295702Y-101698134D01*
X145322560Y-101682840D01*
X145407704Y-101647573D01*
X145407716Y-101647566D01*
X145547509Y-101554159D01*
X145614186Y-101533281D01*
X145681566Y-101551765D01*
X145685291Y-101554159D01*
X145825083Y-101647566D01*
X145825093Y-101647571D01*
X145988876Y-101715412D01*
X145988883Y-101715415D01*
X146001400Y-101717904D01*
X146001400Y-101717903D01*
X146501400Y-101717903D01*
X146513916Y-101715415D01*
X146513923Y-101715412D01*
X146677706Y-101647571D01*
X146677716Y-101647566D01*
X146825116Y-101549076D01*
X146825120Y-101549073D01*
X146950473Y-101423720D01*
X146950476Y-101423716D01*
X147048966Y-101276316D01*
X147048971Y-101276307D01*
X147116813Y-101112520D01*
X147116815Y-101112512D01*
X147151399Y-100938646D01*
X147151400Y-100938643D01*
X147151400Y-100250000D01*
X146501400Y-100250000D01*
X146501400Y-101717903D01*
X146001400Y-101717903D01*
X146001400Y-100250000D01*
X145105400Y-100250000D01*
X145038361Y-100230315D01*
X144992606Y-100177511D01*
X144981400Y-100126000D01*
X144981400Y-99874000D01*
X145001085Y-99806961D01*
X145053889Y-99761206D01*
X145105400Y-99750000D01*
X147151400Y-99750000D01*
X147151400Y-99324500D01*
X147153950Y-99315814D01*
X147152662Y-99306853D01*
X147163640Y-99282812D01*
X147171085Y-99257461D01*
X147177925Y-99251533D01*
X147181687Y-99243297D01*
X147203921Y-99229007D01*
X147223889Y-99211706D01*
X147234403Y-99209418D01*
X147240465Y-99205523D01*
X147275400Y-99200500D01*
X147475500Y-99200500D01*
X147542539Y-99220185D01*
X147588294Y-99272989D01*
X147599500Y-99324500D01*
X147599500Y-99365891D01*
X147633608Y-99493187D01*
X147666554Y-99550250D01*
X147699500Y-99607314D01*
X147792686Y-99700500D01*
X147880861Y-99751408D01*
X147897831Y-99761206D01*
X147906814Y-99766392D01*
X148034108Y-99800500D01*
X148034110Y-99800500D01*
X151065890Y-99800500D01*
X151065892Y-99800500D01*
X151193186Y-99766392D01*
X151307314Y-99700500D01*
X151400500Y-99607314D01*
X151466392Y-99493186D01*
X151500500Y-99365892D01*
X151500500Y-99324500D01*
X151520185Y-99257461D01*
X151572989Y-99211706D01*
X151624500Y-99200500D01*
X152128642Y-99200500D01*
X152195681Y-99220185D01*
X152241436Y-99272989D01*
X152250259Y-99300309D01*
X152284103Y-99470458D01*
X152284106Y-99470467D01*
X152351983Y-99634340D01*
X152351990Y-99634353D01*
X152450535Y-99781834D01*
X152450538Y-99781838D01*
X152575961Y-99907261D01*
X152575965Y-99907264D01*
X152723446Y-100005809D01*
X152723459Y-100005816D01*
X152772452Y-100026109D01*
X152887334Y-100073694D01*
X152887336Y-100073694D01*
X152887341Y-100073696D01*
X153061304Y-100108299D01*
X153061307Y-100108300D01*
X153061309Y-100108300D01*
X154938693Y-100108300D01*
X154938694Y-100108299D01*
X155005554Y-100095000D01*
X155112658Y-100073696D01*
X155112661Y-100073694D01*
X155112666Y-100073694D01*
X155276547Y-100005813D01*
X155276550Y-100005810D01*
X155276552Y-100005810D01*
X155316378Y-99979199D01*
X155383055Y-99958320D01*
X155385270Y-99958300D01*
X155785570Y-99958300D01*
X155852609Y-99977985D01*
X155873251Y-99994619D01*
X159129824Y-103251191D01*
X159163309Y-103312514D01*
X159164616Y-103358270D01*
X159149500Y-103453707D01*
X159149500Y-103453713D01*
X159149500Y-103666287D01*
X159182754Y-103876243D01*
X159239480Y-104050828D01*
X159248444Y-104078414D01*
X159344951Y-104267820D01*
X159469890Y-104439786D01*
X159620213Y-104590109D01*
X159792179Y-104715048D01*
X159792181Y-104715049D01*
X159792184Y-104715051D01*
X159981588Y-104811557D01*
X160183757Y-104877246D01*
X160393713Y-104910500D01*
X160393714Y-104910500D01*
X160606286Y-104910500D01*
X160606287Y-104910500D01*
X160816243Y-104877246D01*
X161018412Y-104811557D01*
X161207816Y-104715051D01*
X161248366Y-104685590D01*
X161379786Y-104590109D01*
X161379788Y-104590106D01*
X161379792Y-104590104D01*
X161530104Y-104439792D01*
X161530106Y-104439788D01*
X161530109Y-104439786D01*
X161655048Y-104267820D01*
X161655047Y-104267820D01*
X161655051Y-104267816D01*
X161751557Y-104078412D01*
X161817246Y-103876243D01*
X161850500Y-103666287D01*
X161850500Y-103453713D01*
X161817246Y-103243757D01*
X161751557Y-103041588D01*
X161655051Y-102852184D01*
X161655049Y-102852181D01*
X161655048Y-102852179D01*
X161530109Y-102680213D01*
X161379786Y-102529890D01*
X161207817Y-102404949D01*
X161198504Y-102400204D01*
X161147707Y-102352230D01*
X161130912Y-102284409D01*
X161153449Y-102218274D01*
X161198507Y-102179232D01*
X161207555Y-102174622D01*
X161261716Y-102135270D01*
X161261717Y-102135270D01*
X160629408Y-101502962D01*
X160692993Y-101485925D01*
X160807007Y-101420099D01*
X160900099Y-101327007D01*
X160965925Y-101212993D01*
X160982962Y-101149409D01*
X161615270Y-101781717D01*
X161615270Y-101781716D01*
X161654622Y-101727554D01*
X161751095Y-101538217D01*
X161816757Y-101336130D01*
X161816757Y-101336127D01*
X161850000Y-101126246D01*
X161850000Y-100913753D01*
X161816757Y-100703872D01*
X161816757Y-100703869D01*
X161751095Y-100501782D01*
X161654624Y-100312449D01*
X161615270Y-100258282D01*
X161615269Y-100258282D01*
X160982962Y-100890590D01*
X160965925Y-100827007D01*
X160900099Y-100712993D01*
X160807007Y-100619901D01*
X160692993Y-100554075D01*
X160629409Y-100537037D01*
X161261716Y-99904728D01*
X161207550Y-99865375D01*
X161197954Y-99860486D01*
X161147157Y-99812512D01*
X161130361Y-99744692D01*
X161152897Y-99678556D01*
X161197954Y-99639514D01*
X161207554Y-99634622D01*
X161261716Y-99595270D01*
X161261717Y-99595270D01*
X160629408Y-98962962D01*
X160692993Y-98945925D01*
X160807007Y-98880099D01*
X160900099Y-98787007D01*
X160965925Y-98672993D01*
X160982962Y-98609409D01*
X161615270Y-99241717D01*
X161615270Y-99241716D01*
X161654622Y-99187554D01*
X161751095Y-98998217D01*
X161816757Y-98796130D01*
X161816757Y-98796127D01*
X161850000Y-98586246D01*
X161850000Y-98373753D01*
X161816757Y-98163872D01*
X161816757Y-98163869D01*
X161751095Y-97961782D01*
X161654624Y-97772449D01*
X161615270Y-97718282D01*
X161615269Y-97718282D01*
X160982962Y-98350590D01*
X160965925Y-98287007D01*
X160900099Y-98172993D01*
X160807007Y-98079901D01*
X160692993Y-98014075D01*
X160629409Y-97997037D01*
X161261716Y-97364728D01*
X161207547Y-97325373D01*
X161207547Y-97325372D01*
X161198500Y-97320763D01*
X161147706Y-97272788D01*
X161130912Y-97204966D01*
X161153451Y-97138832D01*
X161198508Y-97099793D01*
X161207816Y-97095051D01*
X161304923Y-97024499D01*
X161379786Y-96970109D01*
X161379788Y-96970106D01*
X161379792Y-96970104D01*
X161530104Y-96819792D01*
X161551309Y-96790606D01*
X161586903Y-96741615D01*
X161642233Y-96698949D01*
X161687221Y-96690500D01*
X167068059Y-96690500D01*
X167135098Y-96710185D01*
X167180853Y-96762989D01*
X167190797Y-96832147D01*
X167161772Y-96895703D01*
X167155740Y-96902181D01*
X167068213Y-96989707D01*
X167068210Y-96989711D01*
X166980606Y-97120819D01*
X166980103Y-97121761D01*
X166979709Y-97122161D01*
X166977221Y-97125886D01*
X166976514Y-97125413D01*
X166931139Y-97171604D01*
X166863001Y-97187063D01*
X166797322Y-97163229D01*
X166783065Y-97150986D01*
X166760292Y-97128213D01*
X166760288Y-97128210D01*
X166629185Y-97040609D01*
X166629172Y-97040602D01*
X166483501Y-96980264D01*
X166483489Y-96980261D01*
X166328845Y-96949500D01*
X166328842Y-96949500D01*
X166171158Y-96949500D01*
X166171155Y-96949500D01*
X166016510Y-96980261D01*
X166016498Y-96980264D01*
X165870827Y-97040602D01*
X165870814Y-97040609D01*
X165739711Y-97128210D01*
X165739707Y-97128213D01*
X165628213Y-97239707D01*
X165628211Y-97239710D01*
X165596725Y-97286832D01*
X165543112Y-97331637D01*
X165473787Y-97340344D01*
X165424732Y-97321043D01*
X165379185Y-97290609D01*
X165379172Y-97290602D01*
X165233501Y-97230264D01*
X165233489Y-97230261D01*
X165078845Y-97199500D01*
X165078842Y-97199500D01*
X164921158Y-97199500D01*
X164921155Y-97199500D01*
X164766510Y-97230261D01*
X164766498Y-97230264D01*
X164620827Y-97290602D01*
X164620814Y-97290609D01*
X164489711Y-97378210D01*
X164489707Y-97378213D01*
X164378213Y-97489707D01*
X164378210Y-97489711D01*
X164290609Y-97620814D01*
X164290602Y-97620827D01*
X164230264Y-97766498D01*
X164230261Y-97766510D01*
X164199500Y-97921153D01*
X164199500Y-98078846D01*
X164230261Y-98233489D01*
X164230264Y-98233501D01*
X164290602Y-98379172D01*
X164290609Y-98379185D01*
X164378210Y-98510288D01*
X164378213Y-98510292D01*
X164489710Y-98621789D01*
X164620815Y-98709390D01*
X164620821Y-98709394D01*
X164644475Y-98719191D01*
X164684703Y-98746071D01*
X170748726Y-104810094D01*
X170775606Y-104850322D01*
X170843366Y-105013911D01*
X170843371Y-105013920D01*
X170952860Y-105177781D01*
X170952863Y-105177785D01*
X171092214Y-105317136D01*
X171092218Y-105317139D01*
X171256079Y-105426628D01*
X171256092Y-105426635D01*
X171438160Y-105502049D01*
X171438165Y-105502051D01*
X171438169Y-105502051D01*
X171438170Y-105502052D01*
X171631456Y-105540500D01*
X171631459Y-105540500D01*
X171828543Y-105540500D01*
X171958582Y-105514632D01*
X172021835Y-105502051D01*
X172124126Y-105459680D01*
X172193590Y-105452212D01*
X172245887Y-105474976D01*
X172257668Y-105483795D01*
X172257671Y-105483797D01*
X172392517Y-105534091D01*
X172392516Y-105534091D01*
X172399444Y-105534835D01*
X172452127Y-105540500D01*
X173547872Y-105540499D01*
X173607483Y-105534091D01*
X173742331Y-105483796D01*
X173857546Y-105397546D01*
X173884227Y-105361903D01*
X173900485Y-105340188D01*
X173956419Y-105298318D01*
X173999751Y-105290500D01*
X176033920Y-105290500D01*
X176131462Y-105271096D01*
X176178913Y-105261658D01*
X176315495Y-105205084D01*
X176364729Y-105172186D01*
X176438416Y-105122952D01*
X177082951Y-104478416D01*
X177165084Y-104355495D01*
X177221658Y-104218913D01*
X177250500Y-104073918D01*
X177250500Y-103926083D01*
X177250500Y-97306082D01*
X177250500Y-97306079D01*
X177243877Y-97272788D01*
X177237298Y-97239711D01*
X177221659Y-97161088D01*
X177171753Y-97040606D01*
X177165084Y-97024505D01*
X177097618Y-96923535D01*
X177093786Y-96917800D01*
X177082954Y-96901587D01*
X176209048Y-96027681D01*
X176175563Y-95966358D01*
X176180547Y-95896666D01*
X176209048Y-95852319D01*
X177372925Y-94688443D01*
X178547986Y-93513382D01*
X178609309Y-93479897D01*
X178679001Y-93484881D01*
X178734934Y-93526753D01*
X178759351Y-93592217D01*
X178759664Y-93601950D01*
X178623487Y-112641393D01*
X178603323Y-112708290D01*
X178587015Y-112728344D01*
X176029278Y-115276964D01*
X175967895Y-115310339D01*
X175942171Y-115313125D01*
X119554989Y-115503208D01*
X119487884Y-115483750D01*
X119466890Y-115466890D01*
X116536319Y-112536319D01*
X116502834Y-112474996D01*
X116500000Y-112448638D01*
X116500000Y-62551362D01*
X116519685Y-62484323D01*
X116536319Y-62463681D01*
X116549148Y-62450852D01*
X119463683Y-59536316D01*
X119525004Y-59502833D01*
X119551352Y-59499999D01*
X175953857Y-59499999D01*
X176020896Y-59519684D01*
G37*
G04 #@! TD.AperFunction*
G04 #@! TA.AperFunction,Conductor*
G36*
X174764809Y-96710185D02*
G01*
X174785451Y-96726819D01*
X175713181Y-97654548D01*
X175746666Y-97715871D01*
X175749500Y-97742229D01*
X175749500Y-103637770D01*
X175740855Y-103667210D01*
X175734332Y-103697197D01*
X175730577Y-103702212D01*
X175729815Y-103704809D01*
X175713181Y-103725451D01*
X175685451Y-103753181D01*
X175624128Y-103786666D01*
X175597770Y-103789500D01*
X174052788Y-103789500D01*
X173985749Y-103769815D01*
X173939994Y-103717011D01*
X173930050Y-103647853D01*
X173938227Y-103618048D01*
X173961569Y-103561693D01*
X173961572Y-103561681D01*
X173999999Y-103368495D01*
X174000000Y-103368492D01*
X174000000Y-103171508D01*
X173999999Y-103171504D01*
X173961572Y-102978318D01*
X173961569Y-102978306D01*
X173886192Y-102796328D01*
X173862571Y-102760978D01*
X173325000Y-103298551D01*
X173325000Y-103227213D01*
X173302851Y-103144555D01*
X173260064Y-103070446D01*
X173199554Y-103009936D01*
X173125445Y-102967149D01*
X173042787Y-102945000D01*
X172957213Y-102945000D01*
X172874555Y-102967149D01*
X172800446Y-103009936D01*
X172739936Y-103070446D01*
X172717973Y-103108485D01*
X172692052Y-102978170D01*
X172692051Y-102978169D01*
X172692051Y-102978165D01*
X172669216Y-102923037D01*
X172661748Y-102853571D01*
X172693023Y-102791092D01*
X172753112Y-102755439D01*
X172822937Y-102757932D01*
X172871459Y-102787905D01*
X173000000Y-102916446D01*
X173281446Y-102635001D01*
X173281446Y-102634999D01*
X173000001Y-102353553D01*
X172871460Y-102482093D01*
X172810137Y-102515577D01*
X172740445Y-102510593D01*
X172684512Y-102468721D01*
X172660095Y-102403257D01*
X172669218Y-102346958D01*
X172678127Y-102325450D01*
X172692051Y-102291835D01*
X172714393Y-102179516D01*
X172717973Y-102161514D01*
X172739936Y-102199554D01*
X172800446Y-102260064D01*
X172874555Y-102302851D01*
X172957213Y-102325000D01*
X173042787Y-102325000D01*
X173125445Y-102302851D01*
X173199554Y-102260064D01*
X173260064Y-102199554D01*
X173302851Y-102125445D01*
X173325000Y-102042787D01*
X173325000Y-101971447D01*
X173862571Y-102509019D01*
X173862573Y-102509019D01*
X173886187Y-102473680D01*
X173886190Y-102473676D01*
X173961569Y-102291693D01*
X173961572Y-102291681D01*
X173999999Y-102098495D01*
X174000000Y-102098492D01*
X174000000Y-101901508D01*
X173999999Y-101901504D01*
X173961572Y-101708318D01*
X173961569Y-101708306D01*
X173886192Y-101526328D01*
X173886188Y-101526321D01*
X173824728Y-101434341D01*
X173803850Y-101367663D01*
X173822334Y-101300283D01*
X173824704Y-101296595D01*
X173886632Y-101203914D01*
X173962051Y-101021835D01*
X174000500Y-100828541D01*
X174000500Y-100631459D01*
X174000500Y-100631456D01*
X173962052Y-100438170D01*
X173962051Y-100438169D01*
X173962051Y-100438165D01*
X173962049Y-100438160D01*
X173886635Y-100256092D01*
X173886633Y-100256088D01*
X173886632Y-100256086D01*
X173869412Y-100230315D01*
X173825029Y-100163891D01*
X173804151Y-100097214D01*
X173822635Y-100029834D01*
X173825029Y-100026109D01*
X173870324Y-99958320D01*
X173886632Y-99933914D01*
X173962051Y-99751835D01*
X173985281Y-99635050D01*
X174000500Y-99558543D01*
X174000500Y-99361456D01*
X173962052Y-99168170D01*
X173962051Y-99168169D01*
X173962051Y-99168165D01*
X173961317Y-99166392D01*
X173886635Y-98986092D01*
X173886628Y-98986079D01*
X173777139Y-98822218D01*
X173777136Y-98822214D01*
X173637785Y-98682863D01*
X173637781Y-98682860D01*
X173473920Y-98573371D01*
X173473907Y-98573364D01*
X173291839Y-98497950D01*
X173291829Y-98497947D01*
X173098543Y-98459500D01*
X173098541Y-98459500D01*
X172901459Y-98459500D01*
X172901457Y-98459500D01*
X172708170Y-98497947D01*
X172708160Y-98497950D01*
X172526089Y-98573366D01*
X172433890Y-98634971D01*
X172367213Y-98655848D01*
X172299833Y-98637363D01*
X172296110Y-98634971D01*
X172269740Y-98617352D01*
X172203914Y-98573368D01*
X172203911Y-98573366D01*
X172203910Y-98573366D01*
X172021839Y-98497950D01*
X172021829Y-98497947D01*
X171828543Y-98459500D01*
X171828541Y-98459500D01*
X171631459Y-98459500D01*
X171631457Y-98459500D01*
X171438170Y-98497947D01*
X171438160Y-98497950D01*
X171256092Y-98573364D01*
X171256079Y-98573371D01*
X171092218Y-98682860D01*
X170969152Y-98805926D01*
X170907829Y-98839410D01*
X170838137Y-98834426D01*
X170793790Y-98805925D01*
X170286819Y-98298954D01*
X170253334Y-98237631D01*
X170250500Y-98211273D01*
X170250500Y-97804604D01*
X170259939Y-97757151D01*
X170269737Y-97733497D01*
X170300500Y-97578842D01*
X170300500Y-97421158D01*
X170300500Y-97421155D01*
X170300499Y-97421153D01*
X170281448Y-97325380D01*
X170269737Y-97266503D01*
X170261646Y-97246969D01*
X170209397Y-97120827D01*
X170209390Y-97120814D01*
X170121789Y-96989711D01*
X170121786Y-96989707D01*
X170034260Y-96902181D01*
X170000775Y-96840858D01*
X170005759Y-96771166D01*
X170047631Y-96715233D01*
X170113095Y-96690816D01*
X170121941Y-96690500D01*
X172136082Y-96690500D01*
X174697770Y-96690500D01*
X174764809Y-96710185D01*
G37*
G04 #@! TD.AperFunction*
G04 #@! TA.AperFunction,Conductor*
G36*
X159126791Y-96167985D02*
G01*
X159172546Y-96220789D01*
X159182225Y-96252904D01*
X159182754Y-96256243D01*
X159238888Y-96429006D01*
X159248444Y-96458414D01*
X159344951Y-96647820D01*
X159469890Y-96819786D01*
X159620213Y-96970109D01*
X159792179Y-97095048D01*
X159792181Y-97095049D01*
X159792184Y-97095051D01*
X159801493Y-97099794D01*
X159852290Y-97147766D01*
X159869087Y-97215587D01*
X159846552Y-97281722D01*
X159801505Y-97320760D01*
X159792446Y-97325376D01*
X159792440Y-97325380D01*
X159738282Y-97364727D01*
X159738282Y-97364728D01*
X160370591Y-97997037D01*
X160307007Y-98014075D01*
X160192993Y-98079901D01*
X160099901Y-98172993D01*
X160034075Y-98287007D01*
X160017037Y-98350591D01*
X159384728Y-97718282D01*
X159384727Y-97718282D01*
X159345380Y-97772439D01*
X159248904Y-97961782D01*
X159183242Y-98163869D01*
X159183242Y-98163872D01*
X159150000Y-98373753D01*
X159150000Y-98586246D01*
X159183242Y-98796127D01*
X159183242Y-98796130D01*
X159248904Y-98998217D01*
X159345375Y-99187550D01*
X159384728Y-99241716D01*
X160017037Y-98609408D01*
X160034075Y-98672993D01*
X160099901Y-98787007D01*
X160192993Y-98880099D01*
X160307007Y-98945925D01*
X160370591Y-98962962D01*
X159769971Y-99563581D01*
X159848711Y-99680895D01*
X159849920Y-99684729D01*
X159852844Y-99687491D01*
X159860343Y-99717778D01*
X159869727Y-99747529D01*
X159868671Y-99751408D01*
X159869638Y-99755312D01*
X159859573Y-99784844D01*
X159851383Y-99814947D01*
X159848397Y-99817640D01*
X159847100Y-99821447D01*
X159802051Y-99860483D01*
X159792440Y-99865380D01*
X159738282Y-99904727D01*
X159738282Y-99904728D01*
X160370591Y-100537037D01*
X160307007Y-100554075D01*
X160192993Y-100619901D01*
X160099901Y-100712993D01*
X160034075Y-100827007D01*
X160017037Y-100890591D01*
X159384728Y-100258282D01*
X159384727Y-100258282D01*
X159345380Y-100312439D01*
X159248904Y-100501782D01*
X159183242Y-100703869D01*
X159183242Y-100703872D01*
X159155955Y-100876151D01*
X159126025Y-100939286D01*
X159066714Y-100976217D01*
X158996851Y-100975219D01*
X158945801Y-100944434D01*
X158313816Y-100312449D01*
X157167760Y-99166392D01*
X156626221Y-98624852D01*
X156626220Y-98624851D01*
X156621637Y-98621789D01*
X156549169Y-98573368D01*
X156503295Y-98542716D01*
X156366713Y-98486142D01*
X156363856Y-98485573D01*
X156363855Y-98485573D01*
X156221720Y-98457300D01*
X156221718Y-98457300D01*
X155794549Y-98457300D01*
X155727510Y-98437615D01*
X155681755Y-98384811D01*
X155671811Y-98315653D01*
X155679988Y-98285847D01*
X155715412Y-98200323D01*
X155715415Y-98200316D01*
X155717904Y-98187800D01*
X154124000Y-98187800D01*
X154056961Y-98168115D01*
X154011206Y-98115311D01*
X154000000Y-98063800D01*
X154000000Y-97937800D01*
X153874000Y-97937800D01*
X153806961Y-97918115D01*
X153761206Y-97865311D01*
X153750000Y-97813800D01*
X153750000Y-97687800D01*
X154250000Y-97687800D01*
X155717904Y-97687800D01*
X155715415Y-97675283D01*
X155715412Y-97675276D01*
X155647571Y-97511493D01*
X155647566Y-97511483D01*
X155554159Y-97371691D01*
X155533281Y-97305014D01*
X155551765Y-97237634D01*
X155554159Y-97233909D01*
X155647566Y-97094116D01*
X155647571Y-97094106D01*
X155715412Y-96930323D01*
X155715415Y-96930316D01*
X155717904Y-96917800D01*
X154250000Y-96917800D01*
X154250000Y-97687800D01*
X153750000Y-97687800D01*
X153750000Y-96791800D01*
X153769685Y-96724761D01*
X153822489Y-96679006D01*
X153874000Y-96667800D01*
X154000000Y-96667800D01*
X154000000Y-96541800D01*
X154019685Y-96474761D01*
X154072489Y-96429006D01*
X154124000Y-96417800D01*
X155717904Y-96417800D01*
X155715415Y-96405283D01*
X155715412Y-96405276D01*
X155679988Y-96319753D01*
X155672519Y-96250283D01*
X155703794Y-96187804D01*
X155763883Y-96152152D01*
X155794549Y-96148300D01*
X159059752Y-96148300D01*
X159126791Y-96167985D01*
G37*
G04 #@! TD.AperFunction*
G04 #@! TA.AperFunction,Conductor*
G36*
X171654808Y-67720184D02*
G01*
X171675450Y-67736818D01*
X177213181Y-73274548D01*
X177246666Y-73335871D01*
X177249500Y-73362229D01*
X177249500Y-79346042D01*
X177229815Y-79413081D01*
X177190598Y-79451580D01*
X177181344Y-79457287D01*
X177181343Y-79457288D01*
X177087681Y-79550951D01*
X177026358Y-79584436D01*
X176956666Y-79579452D01*
X176912319Y-79550951D01*
X176818657Y-79457289D01*
X176818656Y-79457288D01*
X176669334Y-79365186D01*
X176502797Y-79310001D01*
X176502795Y-79310000D01*
X176400010Y-79299500D01*
X175599998Y-79299500D01*
X175599980Y-79299501D01*
X175497203Y-79310000D01*
X175497200Y-79310001D01*
X175330668Y-79365185D01*
X175330663Y-79365187D01*
X175181342Y-79457289D01*
X175057289Y-79581342D01*
X174965187Y-79730663D01*
X174965186Y-79730666D01*
X174910001Y-79897203D01*
X174910001Y-79897204D01*
X174910000Y-79897204D01*
X174899500Y-79999983D01*
X174899500Y-80420500D01*
X174879815Y-80487539D01*
X174827011Y-80533294D01*
X174775500Y-80544500D01*
X174187221Y-80544500D01*
X174120182Y-80524815D01*
X174086903Y-80493385D01*
X174030107Y-80415211D01*
X173879786Y-80264890D01*
X173707820Y-80139951D01*
X173518414Y-80043444D01*
X173518413Y-80043443D01*
X173518412Y-80043443D01*
X173316243Y-79977754D01*
X173316241Y-79977753D01*
X173316240Y-79977753D01*
X173154957Y-79952208D01*
X173106287Y-79944500D01*
X172893713Y-79944500D01*
X172845042Y-79952208D01*
X172683760Y-79977753D01*
X172481585Y-80043444D01*
X172292179Y-80139951D01*
X172120215Y-80264889D01*
X172006673Y-80378431D01*
X171945350Y-80411915D01*
X171875658Y-80406931D01*
X171819725Y-80365059D01*
X171802810Y-80334082D01*
X171753797Y-80202671D01*
X171753793Y-80202664D01*
X171667547Y-80087455D01*
X171667544Y-80087452D01*
X171552335Y-80001206D01*
X171552328Y-80001202D01*
X171417482Y-79950908D01*
X171417483Y-79950908D01*
X171357883Y-79944501D01*
X171357881Y-79944500D01*
X171357873Y-79944500D01*
X171357864Y-79944500D01*
X169562129Y-79944500D01*
X169562123Y-79944501D01*
X169502516Y-79950908D01*
X169367671Y-80001202D01*
X169367664Y-80001206D01*
X169252455Y-80087452D01*
X169252452Y-80087455D01*
X169166206Y-80202664D01*
X169166202Y-80202671D01*
X169115908Y-80337517D01*
X169109501Y-80397116D01*
X169109500Y-80397135D01*
X169109500Y-80420500D01*
X169089815Y-80487539D01*
X169037011Y-80533294D01*
X168985500Y-80544500D01*
X167157229Y-80544500D01*
X167090190Y-80524815D01*
X167069548Y-80508181D01*
X164496071Y-77934703D01*
X164469191Y-77894475D01*
X164459394Y-77870821D01*
X164459390Y-77870815D01*
X164371789Y-77739710D01*
X164260292Y-77628213D01*
X164260288Y-77628210D01*
X164129185Y-77540609D01*
X164129180Y-77540607D01*
X164129179Y-77540606D01*
X164105519Y-77530805D01*
X164065293Y-77503926D01*
X162536319Y-75974951D01*
X162502834Y-75913628D01*
X162500000Y-75887270D01*
X162500000Y-73954500D01*
X162519685Y-73887461D01*
X162572489Y-73841706D01*
X162624000Y-73830500D01*
X169143457Y-73830500D01*
X169210496Y-73850185D01*
X169256251Y-73902989D01*
X169266195Y-73972147D01*
X169253942Y-74010794D01*
X169248445Y-74021582D01*
X169182753Y-74223760D01*
X169149500Y-74433713D01*
X169149500Y-74646286D01*
X169164376Y-74740213D01*
X169182754Y-74856243D01*
X169200930Y-74912184D01*
X169248444Y-75058414D01*
X169344951Y-75247820D01*
X169469890Y-75419786D01*
X169469896Y-75419792D01*
X169620208Y-75570104D01*
X169698384Y-75626902D01*
X169741051Y-75682231D01*
X169749500Y-75727220D01*
X169749500Y-76137770D01*
X169740854Y-76167214D01*
X169734331Y-76197198D01*
X169730577Y-76202211D01*
X169729815Y-76204809D01*
X169713180Y-76225452D01*
X169675449Y-76263182D01*
X169614125Y-76296667D01*
X169587769Y-76299500D01*
X169099998Y-76299500D01*
X169099980Y-76299501D01*
X168997203Y-76310000D01*
X168997200Y-76310001D01*
X168830668Y-76365185D01*
X168830663Y-76365187D01*
X168681342Y-76457289D01*
X168557289Y-76581342D01*
X168465187Y-76730663D01*
X168465185Y-76730668D01*
X168450478Y-76775051D01*
X168410001Y-76897203D01*
X168410001Y-76897204D01*
X168410000Y-76897204D01*
X168399500Y-76999983D01*
X168399500Y-78000001D01*
X168399501Y-78000019D01*
X168410000Y-78102796D01*
X168410001Y-78102799D01*
X168454800Y-78237991D01*
X168465186Y-78269334D01*
X168557288Y-78418656D01*
X168681344Y-78542712D01*
X168830666Y-78634814D01*
X168997203Y-78689999D01*
X169099991Y-78700500D01*
X169900008Y-78700499D01*
X169900016Y-78700498D01*
X169900019Y-78700498D01*
X169956302Y-78694748D01*
X170002797Y-78689999D01*
X170169334Y-78634814D01*
X170318656Y-78542712D01*
X170412675Y-78448692D01*
X170473994Y-78415210D01*
X170543686Y-78420194D01*
X170588034Y-78448695D01*
X170681654Y-78542315D01*
X170830875Y-78634356D01*
X170830880Y-78634358D01*
X170997302Y-78689505D01*
X170997309Y-78689506D01*
X171100019Y-78699999D01*
X171249999Y-78699999D01*
X171750000Y-78699999D01*
X171899972Y-78699999D01*
X171899986Y-78699998D01*
X172002697Y-78689505D01*
X172169119Y-78634358D01*
X172169124Y-78634356D01*
X172318345Y-78542315D01*
X172442315Y-78418345D01*
X172534356Y-78269124D01*
X172534358Y-78269119D01*
X172589505Y-78102697D01*
X172589506Y-78102690D01*
X172599999Y-77999986D01*
X172600000Y-77999973D01*
X172600000Y-77750000D01*
X171750000Y-77750000D01*
X171750000Y-78699999D01*
X171249999Y-78699999D01*
X171250000Y-78699998D01*
X171250000Y-77250000D01*
X171750000Y-77250000D01*
X172599999Y-77250000D01*
X172599999Y-77000028D01*
X172599998Y-77000013D01*
X172589505Y-76897302D01*
X172534358Y-76730880D01*
X172534356Y-76730875D01*
X172442315Y-76581654D01*
X172318345Y-76457684D01*
X172169124Y-76365643D01*
X172169119Y-76365641D01*
X172002697Y-76310494D01*
X172002690Y-76310493D01*
X171899986Y-76300000D01*
X171750000Y-76300000D01*
X171750000Y-77250000D01*
X171250000Y-77250000D01*
X171250000Y-76585084D01*
X171250500Y-76574916D01*
X171250500Y-75727220D01*
X171270185Y-75660181D01*
X171301614Y-75626902D01*
X171379792Y-75570104D01*
X171530104Y-75419792D01*
X171530106Y-75419788D01*
X171530109Y-75419786D01*
X171655048Y-75247820D01*
X171655047Y-75247820D01*
X171655051Y-75247816D01*
X171751557Y-75058412D01*
X171817246Y-74856243D01*
X171850500Y-74646287D01*
X171850500Y-74433713D01*
X171817246Y-74223757D01*
X171751557Y-74021588D01*
X171655051Y-73832184D01*
X171655049Y-73832181D01*
X171655048Y-73832179D01*
X171530109Y-73660213D01*
X171379786Y-73509890D01*
X171207820Y-73384951D01*
X171200030Y-73380982D01*
X171199054Y-73380485D01*
X171148259Y-73332512D01*
X171131463Y-73264692D01*
X171153999Y-73198556D01*
X171199054Y-73159515D01*
X171207816Y-73155051D01*
X171345567Y-73054970D01*
X171379786Y-73030109D01*
X171379788Y-73030106D01*
X171379792Y-73030104D01*
X171530104Y-72879792D01*
X171530106Y-72879788D01*
X171530109Y-72879786D01*
X171655048Y-72707820D01*
X171655047Y-72707820D01*
X171655051Y-72707816D01*
X171751557Y-72518412D01*
X171817246Y-72316243D01*
X171850500Y-72106287D01*
X171850500Y-71893713D01*
X171817246Y-71683757D01*
X171751557Y-71481588D01*
X171655051Y-71292184D01*
X171655049Y-71292181D01*
X171655048Y-71292179D01*
X171530109Y-71120213D01*
X171416569Y-71006673D01*
X171383084Y-70945350D01*
X171388068Y-70875658D01*
X171429940Y-70819725D01*
X171460915Y-70802810D01*
X171592331Y-70753796D01*
X171707546Y-70667546D01*
X171793796Y-70552331D01*
X171844091Y-70417483D01*
X171850500Y-70357873D01*
X171850499Y-68562128D01*
X171844091Y-68502517D01*
X171843152Y-68500000D01*
X171793797Y-68367671D01*
X171793793Y-68367664D01*
X171707547Y-68252455D01*
X171707544Y-68252452D01*
X171592335Y-68166206D01*
X171592328Y-68166202D01*
X171457482Y-68115908D01*
X171457483Y-68115908D01*
X171397883Y-68109501D01*
X171397881Y-68109500D01*
X171397873Y-68109500D01*
X171397865Y-68109500D01*
X171374500Y-68109500D01*
X171365814Y-68106949D01*
X171356853Y-68108238D01*
X171332812Y-68097259D01*
X171307461Y-68089815D01*
X171301533Y-68082974D01*
X171293297Y-68079213D01*
X171279007Y-68056978D01*
X171261706Y-68037011D01*
X171259418Y-68026496D01*
X171255523Y-68020435D01*
X171250500Y-67985500D01*
X171250500Y-67824499D01*
X171270185Y-67757460D01*
X171322989Y-67711705D01*
X171374500Y-67700499D01*
X171587769Y-67700499D01*
X171654808Y-67720184D01*
G37*
G04 #@! TD.AperFunction*
M02*
