G04 #@! TF.GenerationSoftware,KiCad,Pcbnew,10.0.3*
G04 #@! TF.CreationDate,2026-06-22T12:31:00+02:00*
G04 #@! TF.ProjectId,vocore2-breakout,766f636f-7265-4322-9d62-7265616b6f75,rev?*
G04 #@! TF.SameCoordinates,Original*
G04 #@! TF.FileFunction,Soldermask,Bot*
G04 #@! TF.FilePolarity,Negative*
%FSLAX46Y46*%
G04 Gerber Fmt 4.6, Leading zero omitted, Abs format (unit mm)*
G04 Created by KiCad (PCBNEW 10.0.3) date 2026-06-22 12:31:00*
%MOMM*%
%LPD*%
G01*
G04 APERTURE LIST*
%ADD10R,1.700000X1.700000*%
%ADD11C,1.700000*%
%ADD12C,5.600000*%
%ADD13R,1.000000X1.000000*%
%ADD14C,1.000000*%
G04 APERTURE END LIST*
D10*
X170460000Y-81295000D03*
D11*
X173000000Y-81295000D03*
X170460000Y-83835000D03*
X173000000Y-83835000D03*
X170460000Y-86375000D03*
X173000000Y-86375000D03*
X170460000Y-88915000D03*
X173000000Y-88915000D03*
X170460000Y-91455000D03*
X173000000Y-91455000D03*
D10*
X123500000Y-68000000D03*
D11*
X123500000Y-70540000D03*
X123500000Y-73080000D03*
X123500000Y-75620000D03*
X123500000Y-78160000D03*
X123500000Y-80700000D03*
X123500000Y-83240000D03*
X123500000Y-85780000D03*
X123500000Y-88320000D03*
X123500000Y-90860000D03*
X123500000Y-93400000D03*
X123500000Y-95940000D03*
X123500000Y-98480000D03*
X123500000Y-101020000D03*
X123500000Y-103560000D03*
X123500000Y-106100000D03*
X155900000Y-68000000D03*
X153360000Y-68000000D03*
X150820000Y-68000000D03*
X148280000Y-68000000D03*
X145740000Y-68000000D03*
X143200000Y-68000000D03*
X140660000Y-68000000D03*
X138120000Y-68000000D03*
X135580000Y-68000000D03*
X133040000Y-68000000D03*
X130500000Y-68000000D03*
D10*
X127960000Y-68000000D03*
D12*
X176000000Y-112500000D03*
X119500000Y-112500000D03*
X176000000Y-62500000D03*
X119500000Y-62500000D03*
D11*
X160500000Y-103560000D03*
X160500000Y-101020000D03*
X160500000Y-98480000D03*
X160500000Y-95940000D03*
X160500000Y-93400000D03*
X160500000Y-90860000D03*
X160500000Y-88320000D03*
X160500000Y-85780000D03*
X160500000Y-83240000D03*
X160500000Y-80700000D03*
X160500000Y-78160000D03*
X160500000Y-75620000D03*
X160500000Y-73080000D03*
X160500000Y-70540000D03*
D10*
X160500000Y-68000000D03*
D11*
X170500000Y-74540000D03*
X170500000Y-72000000D03*
D10*
X170500000Y-69460000D03*
X127480000Y-108000000D03*
D11*
X130020000Y-108000000D03*
X132560000Y-108000000D03*
X135100000Y-108000000D03*
X137640000Y-108000000D03*
X140180000Y-108000000D03*
X142720000Y-108000000D03*
X145260000Y-108000000D03*
X147800000Y-108000000D03*
X150340000Y-108000000D03*
X152880000Y-108000000D03*
X155420000Y-108000000D03*
X157960000Y-108000000D03*
X160500000Y-108000000D03*
D13*
X173000000Y-104540000D03*
D14*
X171730000Y-104540000D03*
X173000000Y-103270000D03*
X171730000Y-103270000D03*
X173000000Y-102000000D03*
X171730000Y-102000000D03*
X173000000Y-100730000D03*
X171730000Y-100730000D03*
X173000000Y-99460000D03*
X171730000Y-99460000D03*
M02*
